SplineFontDB: 3.0
FontName: Pliska-Italic
FullName: Pliska-Italic
FamilyName: Pliska
Weight: Normal
Copyright: The font Pliska is modification of the Tempora Regular, created by Michael Sharpe \\(c\\) 2015 which on its turn was derived from TemporaLGCUni by Alexej Kryukov, issued in 2005 under the GPL.
Version: 001.001
ItalicAngle: -12
UnderlinePosition: -350
UnderlineWidth: 50
Ascent: 800
Descent: 200
InvalidEm: 0
sfntRevision: 0x00011999
LayerCount: 2
Layer: 0 0 "Back" 1
Layer: 1 0 "Fore" 0
XUID: [1021 174 -1597659960 24674]
StyleMap: 0x0001
FSType: 0
OS2Version: 3
OS2_WeightWidthSlopeOnly: 0
OS2_UseTypoMetrics: 0
CreationTime: 1442031797
ModificationTime: 1470009876
PfmFamily: 17
TTFWeight: 400
TTFWidth: 5
LineGap: 26
VLineGap: 0
Panose: 2 0 5 3 7 0 0 9 0 3
OS2TypoAscent: 683
OS2TypoAOffset: 0
OS2TypoDescent: -209
OS2TypoDOffset: 0
OS2TypoLinegap: 51
OS2WinAscent: 903
OS2WinAOffset: 0
OS2WinDescent: 217
OS2WinDOffset: 0
HheadAscent: 903
HheadAOffset: 0
HheadDescent: -217
HheadDOffset: 0
OS2SubXSize: 500
OS2SubYSize: 500
OS2SubXOff: 0
OS2SubYOff: 250
OS2SupXSize: 500
OS2SupYSize: 500
OS2SupXOff: 0
OS2SupYOff: 500
OS2StrikeYSize: 50
OS2StrikeYPos: 250
OS2CapHeight: 653
OS2XHeight: 442
OS2Vendor: 'PfEd'
OS2CodePages: 6000019f.9fd70000
OS2UnicodeRanges: e00002ff.400161fb.00000000.00000000
Lookup: 1 0 0 "'aalt' Access All Alternates lookup 0" { "'aalt' Access All Alternates lookup 0 subtable"  } ['aalt' ('DFLT' <'dflt' > 'cyrl' <'BGR ' 'MKD ' 'RUS ' 'SRB ' 'UKR ' 'dflt' > 'grek' <'dflt' > 'latn' <'CAT ' 'LTH ' 'MOL ' 'NLD ' 'ROM ' 'TRK ' 'VIT ' 'dflt' > ) ]
Lookup: 3 0 0 "'aalt' Access All Alternates lookup 1" { "'aalt' Access All Alternates lookup 1 subtable"  } ['aalt' ('DFLT' <'dflt' > 'cyrl' <'BGR ' 'MKD ' 'RUS ' 'SRB ' 'UKR ' 'dflt' > 'grek' <'dflt' > 'latn' <'CAT ' 'LTH ' 'MOL ' 'NLD ' 'ROM ' 'TRK ' 'VIT ' 'dflt' > ) ]

StartChar: .notdef
Encoding: 1114112 -1 0
Width: 586
Flags: MW
HStem: 0 25 199 270 643 25
VStem: 42 25 116 270 433 25
CounterMasks: 1 e0
LayerCount: 2
Fore
SplineSet
50 0 m 1
 50 530 l 1
 536 530 l 1
 536 0 l 1
 50 0 l 1
69 74 m 1
 118 181 190 273 271 355 c 1
 242 368 220 375 194 380 c 1
 139 286 102 188 69 74 c 1
348 313 m 1
 234 255 153 173 76 72 c 1
 180 145 288 209 416 255 c 1
 391 281 373 297 348 313 c 1
97 72 m 1
 517 72 l 1
 511 111 500 141 477 173 c 1
 343 155 195 115 97 72 c 1
EndSplineSet
Validated: 1
EndChar

StartChar: exclam
Encoding: 33 33 2
Width: 332
Flags: MW
HStem: -11 21G<75.5 105> 647 20G<243.5 275>
LayerCount: 2
Fore
SplineSet
137 177 m 1
 120 181 l 1
 161 370 168 407 192 551 c 0
 206 634 225 667 262 667 c 0
 288 667 302 649 302 616 c 0
 302 587 292 555 264 493 c 0
 217 391 194 332 137 177 c 1
91 95 m 0
 120 95 145 70 145 41 c 0
 145 13 120 -11 90 -11 c 0
 61 -11 39 12 39 43 c 0
 39 70 64 95 91 95 c 0
EndSplineSet
Validated: 1
EndChar

StartChar: quotedbl
Encoding: 34 34 3
Width: 419
Flags: MW
HStem: 646 20G<209.5 230.5 388 409>
LayerCount: 2
Fore
SplineSet
344 421 m 1
 323 421 l 1
 331 523 340 600 346 625 c 0
 351 647 376 666 400 666 c 0
 418 666 432 653 432 637 c 0
 432 621 401 545 344 421 c 1
165 421 m 1
 144 421 l 1
 152 523 161 600 167 625 c 0
 172 647 197 666 222 666 c 0
 239 666 253 653 253 637 c 0
 253 621 223 547 165 421 c 1
EndSplineSet
Validated: 1
EndChar

StartChar: numbersign
Encoding: 35 35 4
Width: 500
Flags: MW
HStem: 0 21G<17 79 17 17 208 270 208 208> 213 54<13 97 2 118 179 288 13 158 370 454> 410 54<87 172 76 192 87 233 253 363 444 529> 656 20G<272 333 333 333 463 524 524 524>
LayerCount: 2
Fore
SplineSet
465 267 m 1
 454 213 l 1
 349 213 l 1
 270 0 l 1
 208 0 l 1
 288 213 l 1
 158 213 l 1
 79 0 l 1
 17 0 l 1
 97 213 l 1
 2 213 l 1
 13 267 l 1
 118 267 l 1
 172 410 l 1
 76 410 l 1
 87 464 l 1
 192 464 l 1
 272 676 l 1
 333 676 l 1
 253 464 l 1
 383 464 l 1
 463 676 l 1
 524 676 l 1
 444 464 l 1
 540 464 l 1
 529 410 l 1
 424 410 l 1
 370 267 l 1
 465 267 l 1
363 410 m 1
 233 410 l 1
 179 267 l 1
 309 267 l 1
 363 410 l 1
EndSplineSet
Validated: 1
EndChar

StartChar: dollar
Encoding: 36 36 5
Width: 500
Flags: MW
HStem: 641 27<316 336>
VStem: 123 78<515.5 539> 380 75<155 189>
LayerCount: 2
Fore
SplineSet
497 612 m 1
 469 498 l 1
 454 500 l 1
 452 574 430 609 369 633 c 1
 313 396 l 1
 430 305 455 269 455 190 c 0
 455 120 420 60 361 30 c 0
 322 10 288 3 215 0 c 1
 194 -89 l 1
 159 -89 l 1
 181 2 l 1
 119 14 67 37 31 67 c 1
 58 190 l 1
 74 193 l 1
 85 88 111 51 189 32 c 1
 258 329 l 1
 206 366 186 383 165 410 c 0
 135 446 123 476 123 513 c 0
 123 565 151 612 198 639 c 0
 239 663 266 668 341 668 c 1
 358 731 l 1
 392 731 l 1
 376 663 l 1
 423 652 465 635 497 612 c 1
282 420 m 1
 336 641 l 1
 296 641 287 640 268 633 c 0
 226 618 201 583 201 538 c 0
 201 493 220 465 282 420 c 1
289 306 m 1
 221 25 l 1
 327 33 380 79 380 162 c 0
 380 216 363 245 295 301 c 2
 289 306 l 1
EndSplineSet
Validated: 1
EndChar

StartChar: percent
Encoding: 37 37 6
Width: 832
Flags: MW
HStem: 0 30<584.5 610> 289 34<196 223.5> 339 32<678 713.5> 583 25<444.5 481> 632 30<269.5 303>
VStem: 79 76<382.5 439.5 366.5 480.5> 377 26<515 547.5 515 557> 468 76<93 125 77.5 194> 765 25<227.5 281>
LayerCount: 2
Fore
SplineSet
683 371 m 0
 750 371 790 330 790 263 c 0
 790 187 758 108 704 51 c 0
 672 18 632 0 588 0 c 0
 512 0 468 50 468 136 c 0
 468 252 577 371 683 371 c 0
694 339 m 0
 662 339 634 320 607 280 c 0
 573 232 544 149 544 101 c 0
 544 54 564 30 605 30 c 0
 634 30 663 44 685 68 c 0
 733 119 765 196 765 259 c 0
 765 303 733 339 694 339 c 0
653 676 m 1
 267 -13 l 1
 220 -13 l 1
 570 613 l 1
 528 590 504 583 458 583 c 0
 431 583 416 585 396 593 c 1
 397 590 397 590 397 587 c 0
 401 570 403 554 403 541 c 0
 403 489 374 413 335 363 c 0
 297 315 249 289 198 289 c 0
 131 289 79 346 79 419 c 0
 79 542 187 662 297 662 c 0
 323 662 351 653 365 641 c 2
 383 625 l 2
 395 614 420 608 452 608 c 0
 519 608 563 627 613 676 c 1
 653 676 l 1
368 600 m 1
 341 607 332 611 316 624 c 0
 309 630 305 632 301 632 c 0
 238 632 155 493 155 386 c 0
 155 347 178 323 214 323 c 0
 296 323 377 436 377 549 c 0
 377 565 375 578 368 600 c 1
EndSplineSet
Validated: 1
EndChar

StartChar: ampersand
Encoding: 38 38 7
Width: 777
Flags: MW
HStem: -18 52<261.5 289.5> 634 32<449.5 488>
VStem: 76 94<127.5 167> 324 81<491 520.5> 517 69<555 597>
LayerCount: 2
Fore
SplineSet
530 350 m 1
 715 350 l 1
 715 333 l 1
 665 328 658 322 607 247 c 0
 596 230 558 177 520 125 c 1
 560 58 595 31 642 31 c 0
 665 31 683 39 712 61 c 1
 723 50 l 1
 680 1 644 -18 594 -18 c 0
 541 -18 502 4 457 61 c 1
 354 -5 321 -18 258 -18 c 0
 147 -18 76 43 76 140 c 0
 76 194 100 240 148 280 c 0
 184 309 228 333 331 378 c 1
 330 393 329 403 328 409 c 0
 325 435 324 451 324 460 c 0
 324 581 390 666 484 666 c 0
 542 666 586 625 586 572 c 0
 586 538 567 503 532 471 c 0
 505 447 476 428 414 397 c 1
 438 295 469 209 501 160 c 1
 564 236 580 265 580 299 c 0
 580 321 569 328 530 331 c 1
 530 350 l 1
333 345 m 1
 233 307 170 236 170 164 c 0
 170 91 225 34 298 34 c 0
 348 34 391 51 438 90 c 1
 404 133 369 218 333 345 c 1
410 428 m 1
 454 456 456 458 473 473 c 0
 504 502 517 532 517 577 c 0
 517 617 504 634 472 634 c 0
 427 634 405 592 405 504 c 0
 405 478 406 458 410 428 c 1
EndSplineSet
Validated: 1
EndChar

StartChar: quotesingle
Encoding: 39 39 8
Width: 213
Flags: MW
HStem: 646 20G<197 218>
LayerCount: 2
Fore
SplineSet
153 421 m 1
 132 421 l 1
 140 523 149 600 155 625 c 0
 160 647 185 666 209 666 c 0
 227 666 241 653 241 637 c 0
 241 621 210 545 153 421 c 1
EndSplineSet
Validated: 1
EndChar

StartChar: parenleft
Encoding: 40 40 9
Width: 332
Flags: MW
VStem: 42 69<141.5 145 37 218>
LayerCount: 2
Fore
SplineSet
159 -175 m 1
 141 -181 l 1
 105 -115 90 -84 76 -41 c 0
 54 28 42 103 42 180 c 0
 42 256 53 318 79 381 c 0
 121 485 172 551 302 669 c 1
 315 654 l 1
 250 586 218 539 186 460 c 0
 140 349 111 205 111 85 c 0
 111 -11 123 -74 159 -175 c 1
EndSplineSet
Validated: 1
EndChar

StartChar: parenright
Encoding: 41 41 10
Width: 332
Flags: MW
VStem: 220 69<267 452>
LayerCount: 2
Fore
SplineSet
29 -180 m 1
 16 -165 l 1
 77 -101 107 -59 136 6 c 0
 186 113 220 275 220 402 c 0
 220 502 205 583 171 664 c 1
 190 669 l 1
 235 589 250 553 267 485 c 0
 281 425 289 361 289 304 c 0
 289 230 277 167 249 101 c 0
 204 -8 153 -72 29 -180 c 1
EndSplineSet
Validated: 1
EndChar

StartChar: asterisk
Encoding: 42 42 11
Width: 500
Flags: MW
HStem: 646 20G<299 320.5>
VStem: 273 74<283.5 297.5> 301 18<476 497.5>
LayerCount: 2
Fore
SplineSet
319 500 m 2xa0
 319 473 l 1
 362 502 367 506 418 561 c 0
 433 578 441 582 454 582 c 0
 476 582 492 567 492 545 c 0
 492 519 477 508 435 501 c 0
 388 493 371 486 328 459 c 1
 365 440 l 2
 380 432 403 425 431 420 c 0
 475 413 492 401 492 378 c 0
 492 356 475 339 454 339 c 0
 439 339 427 347 408 371 c 0
 382 403 359 423 326 442 c 2
 319 446 l 1xa0
 320 393 324 371 339 329 c 0
 345 311 347 303 347 295 c 0
 347 272 331 255 308 255 c 0
 288 255 273 271 273 293 c 0xc0
 273 302 276 314 283 334 c 0
 297 371 302 395 302 417 c 0
 302 422 302 429 300 446 c 1
 297 443 294 441 285 436 c 0
 254 417 240 405 213 371 c 0
 197 351 180 340 163 340 c 0
 144 340 128 357 128 377 c 0
 128 400 145 413 187 420 c 0
 233 428 251 435 294 461 c 1
 282 468 l 2
 258 483 226 493 189 500 c 0
 143 508 128 519 128 546 c 0
 128 566 143 581 163 581 c 0
 179 581 190 574 210 551 c 0
 242 515 262 498 301 476 c 1
 301 519 297 542 284 587 c 0
 277 608 275 617 275 626 c 0
 275 651 288 666 310 666 c 0
 331 666 346 650 346 627 c 0
 346 616 343 603 335 577 c 0
 323 543 319 522 319 500 c 2xa0
EndSplineSet
Validated: 1
EndChar

StartChar: plus
Encoding: 43 43 12
Width: 674
Flags: MW
HStem: 0 21G<305 371 305 305> 220 66<86 305 86 305 371 590>
VStem: 305 66<0 220 0 220 286 506>
LayerCount: 2
Fore
SplineSet
305 286 m 1
 305 506 l 1
 371 506 l 1
 371 286 l 1
 590 286 l 1
 590 220 l 1
 371 220 l 1
 371 0 l 1
 305 0 l 1
 305 220 l 1
 86 220 l 1
 86 286 l 1
 305 286 l 1
EndSplineSet
Validated: 1
EndChar

StartChar: comma
Encoding: 44 44 13
Width: 250
Flags: MW
VStem: 71 64<-36.5 50>
LayerCount: 2
Fore
SplineSet
5 -129 m 1
 -4 -112 l 1
 48 -77 71 -50 71 -23 c 0
 71 -13 66 -5 51 9 c 0
 32 26 26 37 26 54 c 0
 26 81 48 101 77 101 c 0
 110 101 135 70 135 30 c 0
 135 -26 89 -82 5 -129 c 1
EndSplineSet
Validated: 1
EndChar

StartChar: hyphen
Encoding: 45 45 14
Width: 332
Flags: MW
HStem: 192 63<63 269 49 282>
LayerCount: 2
Fore
SplineSet
282 255 m 1
 269 192 l 1
 49 192 l 1
 63 255 l 1
 282 255 l 1
EndSplineSet
Validated: 1
EndChar

StartChar: period
Encoding: 46 46 15
Width: 250
Flags: MW
HStem: -11 111<67 96>
VStem: 27 111<28.5 58.5>
LayerCount: 2
Fore
SplineSet
82 100 m 0
 112 100 138 74 138 43 c 0
 138 13 112 -11 80 -11 c 0
 52 -11 27 14 27 43 c 0
 27 74 52 100 82 100 c 0
EndSplineSet
Validated: 1
EndChar

StartChar: slash
Encoding: 47 47 16
Width: 277
Flags: MW
HStem: -18 21G<-65 8 -65 -65> 646 20G<313 386 386 386>
LayerCount: 2
Fore
SplineSet
313 666 m 1
 386 666 l 1
 8 -18 l 1
 -65 -18 l 1
 313 666 l 1
EndSplineSet
Validated: 1
Substitution2: "'frac' Diagonal Fractions in Cyrillic lookup 22 subtable" fraction
Substitution2: "'frac' Diagonal Fractions in Latin lookup 20 subtable" fraction
Substitution2: "'frac' Diagonal Fractions lookup 18 subtable" fraction
EndChar

StartChar: zero
Encoding: 48 48 17
Width: 500
Flags: MW
HStem: -7 28<182 265 182 277> 648 28<267.5 375>
VStem: 32 79<148 204.5 98 335> 418 79<428.5 475 327 531>
LayerCount: 2
Fore
SplineSet
111 156 m 0
 111 40 166 21 198 21 c 0
 332 21 418 341 418 516 c 0
 418 546 418 648 332 648 c 0
 183 648 111 253 111 156 c 0
497 426 m 0
 497 228 361 -7 193 -7 c 0
 89 -7 32 96 32 200 c 0
 32 470 198 676 337 676 c 0
 470 676 497 524 497 426 c 0
EndSplineSet
Validated: 1
Substitution2: "'zero' Slashed Zero lookup 68 subtable" zero.slash
Substitution2: "'sups' Superscript in Latin lookup 51 subtable" zero.superior
Substitution2: "'sups' Superscript in Cyrillic lookup 50 subtable" zero.superior
Substitution2: "'sups' Superscript in Greek lookup 49 subtable" zero.superior
Substitution2: "'subs' Subscript in Latin lookup 48 subtable" zero.inferior
Substitution2: "'subs' Subscript in Cyrillic lookup 47 subtable" zero.inferior
Substitution2: "'subs' Subscript in Greek lookup 46 subtable" zero.inferior
Substitution2: "'dnom' Denominators lookup 45 subtable" zero.denominator
Substitution2: "'numr' Numerators lookup 44 subtable" zero.numerator
Substitution2: "'onum' Oldstyle Figures in Latin lookup 43 subtable" zerooldstyle
Substitution2: "'onum' Oldstyle Figures in Cyrillic lookup 42 subtable" zerooldstyle
Substitution2: "'onum' Oldstyle Figures in Greek lookup 41 subtable" zerooldstyle
Substitution2: "'frac' Diagonal Fractions in Cyrillic lookup 22 subtable" zero.numerator
Substitution2: "'frac' Diagonal Fractions in Latin lookup 20 subtable" zero.numerator
Substitution2: "'frac' Diagonal Fractions lookup 18 subtable" zero.numerator
AlternateSubs2: "'aalt' Access All Alternates lookup 1 subtable" zerooldstyle zero.inferior zero.superior
EndChar

StartChar: one
Encoding: 49 49 18
Width: 500
Flags: HMW
HStem: 0 21G<49 49 49 328> 625 51
LayerCount: 2
Fore
SplineSet
49 0 m 1
 49 14 l 1
 108 20 148 23 161 68 c 2
 299 560 l 2
 302 571 306 585 306 593 c 0
 306 625 277 625 268 625 c 2
 211 623 l 1
 211 638 l 1
 258 646 397 676 405 676 c 0
 407.876894374 676 408.943299727 673.413587112 408.943299727 669.356886839 c 0
 408.943299727 662.132810706 405.561552813 650.246211251 403 640 c 2
 260 121 l 2
 255 101 242 64 242 48 c 0
 242 20.0025506221 271.364056379 14.8438117611 313.885528452 14.8438117611 c 0
 318.445689297 14.8438117611 323.157176416 14.9031435283 328 15 c 1
 328 0 l 1
 49 0 l 1
EndSplineSet
Validated: 524289
Substitution2: "'sups' Superscript in Latin lookup 51 subtable" one.superior
Substitution2: "'sups' Superscript in Cyrillic lookup 50 subtable" one.superior
Substitution2: "'sups' Superscript in Greek lookup 49 subtable" one.superior
Substitution2: "'subs' Subscript in Latin lookup 48 subtable" one.inferior
Substitution2: "'subs' Subscript in Cyrillic lookup 47 subtable" one.inferior
Substitution2: "'subs' Subscript in Greek lookup 46 subtable" one.inferior
Substitution2: "'dnom' Denominators lookup 45 subtable" one.denominator
Substitution2: "'numr' Numerators lookup 44 subtable" one.numerator
Substitution2: "'onum' Oldstyle Figures in Latin lookup 43 subtable" oneoldstyle
Substitution2: "'onum' Oldstyle Figures in Cyrillic lookup 42 subtable" oneoldstyle
Substitution2: "'onum' Oldstyle Figures in Greek lookup 41 subtable" oneoldstyle
Substitution2: "'frac' Diagonal Fractions in Cyrillic lookup 22 subtable" one.numerator
Substitution2: "'frac' Diagonal Fractions in Latin lookup 20 subtable" one.numerator
Substitution2: "'frac' Diagonal Fractions lookup 18 subtable" one.numerator
AlternateSubs2: "'aalt' Access All Alternates lookup 1 subtable" oneoldstyle one.inferior one.superior
EndChar

StartChar: two
Encoding: 50 50 19
Width: 500
Flags: MW
HStem: 0 76<111 301 301 334 111 367> 603 73<277.5 281.5>
VStem: 366 86<475.5 512>
LayerCount: 2
Fore
SplineSet
400 139 m 1
 417 132 l 1
 367 0 l 1
 12 0 l 1
 12 17 l 1
 222 241 l 2
 362 390 366 448 366 481 c 0
 366 543 320 603 243 603 c 0
 153 603 115 534 101 509 c 1
 80 516 l 1
 134 672 265 676 290 676 c 0
 396 676 452 584 452 509 c 0
 452 442 427 397 303 273 c 2
 111 81 l 1
 111 76 l 1
 301 76 l 2
 367 76 383 103 400 139 c 1
EndSplineSet
Validated: 1
Substitution2: "'sups' Superscript in Latin lookup 51 subtable" two.superior
Substitution2: "'sups' Superscript in Cyrillic lookup 50 subtable" two.superior
Substitution2: "'sups' Superscript in Greek lookup 49 subtable" two.superior
Substitution2: "'subs' Subscript in Latin lookup 48 subtable" two.inferior
Substitution2: "'subs' Subscript in Cyrillic lookup 47 subtable" two.inferior
Substitution2: "'subs' Subscript in Greek lookup 46 subtable" two.inferior
Substitution2: "'dnom' Denominators lookup 45 subtable" two.denominator
Substitution2: "'numr' Numerators lookup 44 subtable" two.numerator
Substitution2: "'onum' Oldstyle Figures in Latin lookup 43 subtable" twooldstyle
Substitution2: "'onum' Oldstyle Figures in Cyrillic lookup 42 subtable" twooldstyle
Substitution2: "'onum' Oldstyle Figures in Greek lookup 41 subtable" twooldstyle
Substitution2: "'frac' Diagonal Fractions in Cyrillic lookup 22 subtable" two.numerator
Substitution2: "'frac' Diagonal Fractions in Latin lookup 20 subtable" two.numerator
Substitution2: "'frac' Diagonal Fractions lookup 18 subtable" two.numerator
AlternateSubs2: "'aalt' Access All Alternates lookup 1 subtable" twooldstyle two.inferior two.superior
EndChar

StartChar: three
Encoding: 51 51 20
Width: 500
Flags: HMW
HStem: -7 38<169 214 169 221.5> 634 42<290.5 310>
VStem: 325 80<190.5 261> 378 87<513 576.5>
LayerCount: 2
Fore
SplineSet
178 567 m 1xd0
 162 572 l 1
 187 632 262 676 319 676 c 0
 393 676 465 634 465 551 c 0xd0
 465 475 415 440 310 401 c 1
 310 398 l 1
 336 386 405 356 405 246 c 0
 405 135 314 -7 129 -7 c 0
 70 -7 15 7 15 52 c 0
 15 73 25 91 62 91 c 0
 108 91 141 31 197 31 c 0
 231 31 325 65 325 191 c 0xe0
 325 320.401565136 249.819422181 361.807681234 161.840593701 361.807681234 c 0
 154.634823955 361.807681234 147.343201299 361.529921743 140 361 c 1
 139 377 l 1
 239 391 378 435 378 543 c 0
 378 610 329 634 291 634 c 0
 228 634 193 587 178 567 c 1xd0
EndSplineSet
Validated: 524289
Substitution2: "'sups' Superscript in Latin lookup 51 subtable" three.superior
Substitution2: "'sups' Superscript in Cyrillic lookup 50 subtable" three.superior
Substitution2: "'sups' Superscript in Greek lookup 49 subtable" three.superior
Substitution2: "'subs' Subscript in Latin lookup 48 subtable" three.inferior
Substitution2: "'subs' Subscript in Cyrillic lookup 47 subtable" three.inferior
Substitution2: "'subs' Subscript in Greek lookup 46 subtable" three.inferior
Substitution2: "'dnom' Denominators lookup 45 subtable" three.denominator
Substitution2: "'numr' Numerators lookup 44 subtable" three.numerator
Substitution2: "'onum' Oldstyle Figures in Latin lookup 43 subtable" threeoldstyle
Substitution2: "'onum' Oldstyle Figures in Cyrillic lookup 42 subtable" threeoldstyle
Substitution2: "'onum' Oldstyle Figures in Greek lookup 41 subtable" threeoldstyle
Substitution2: "'frac' Diagonal Fractions in Cyrillic lookup 22 subtable" three.numerator
Substitution2: "'frac' Diagonal Fractions in Latin lookup 20 subtable" three.numerator
Substitution2: "'frac' Diagonal Fractions lookup 18 subtable" three.numerator
AlternateSubs2: "'aalt' Access All Alternates lookup 1 subtable" threeoldstyle three.inferior three.superior
EndChar

StartChar: four
Encoding: 52 52 21
Width: 500
Flags: MW
HStem: 0 21G<214 293 214 214> 176 65<358 439 65 339> 656 20G<438 479 479 479>
LayerCount: 2
Fore
SplineSet
453 241 m 1
 439 176 l 1
 339 176 l 1
 293 0 l 1
 214 0 l 1
 263 178 l 1
 1 178 l 1
 21 245 l 1
 438 676 l 1
 479 676 l 1
 358 241 l 1
 453 241 l 1
277 241 m 1
 373 563 l 1
 369 563 l 1
 65 245 l 1
 65 241 l 1
 277 241 l 1
EndSplineSet
Validated: 1
Substitution2: "'sups' Superscript in Latin lookup 51 subtable" four.superior
Substitution2: "'sups' Superscript in Cyrillic lookup 50 subtable" four.superior
Substitution2: "'sups' Superscript in Greek lookup 49 subtable" four.superior
Substitution2: "'subs' Subscript in Latin lookup 48 subtable" four.inferior
Substitution2: "'subs' Subscript in Cyrillic lookup 47 subtable" four.inferior
Substitution2: "'subs' Subscript in Greek lookup 46 subtable" four.inferior
Substitution2: "'dnom' Denominators lookup 45 subtable" four.denominator
Substitution2: "'numr' Numerators lookup 44 subtable" four.numerator
Substitution2: "'onum' Oldstyle Figures in Latin lookup 43 subtable" fouroldstyle
Substitution2: "'onum' Oldstyle Figures in Cyrillic lookup 42 subtable" fouroldstyle
Substitution2: "'onum' Oldstyle Figures in Greek lookup 41 subtable" fouroldstyle
Substitution2: "'frac' Diagonal Fractions in Cyrillic lookup 22 subtable" four.numerator
Substitution2: "'frac' Diagonal Fractions in Latin lookup 20 subtable" four.numerator
Substitution2: "'frac' Diagonal Fractions lookup 18 subtable" four.numerator
AlternateSubs2: "'aalt' Access All Alternates lookup 1 subtable" fouroldstyle four.inferior four.superior
EndChar

StartChar: five
Encoding: 53 53 22
Width: 500
Flags: MW
HStem: -7 42<152 214.5> 595 71<238 238 238 468>
VStem: 350 69<211 309.5>
LayerCount: 2
Fore
SplineSet
238 595 m 1
 199 507 l 1
 329 481 419 409 419 275 c 0
 419 147 312 -7 117 -7 c 0
 45 -7 15 21 15 49 c 0
 15 78 36 90 55 90 c 0
 100 90 125 35 179 35 c 0
 277 35 350 146 350 233 c 0
 350 386 247 408 131 433 c 1
 131 448 l 1
 235 666 l 1
 491 666 l 1
 468 595 l 1
 238 595 l 1
EndSplineSet
Validated: 1
Substitution2: "'sups' Superscript in Latin lookup 51 subtable" five.superior
Substitution2: "'sups' Superscript in Cyrillic lookup 50 subtable" five.superior
Substitution2: "'sups' Superscript in Greek lookup 49 subtable" five.superior
Substitution2: "'subs' Subscript in Latin lookup 48 subtable" five.inferior
Substitution2: "'subs' Subscript in Cyrillic lookup 47 subtable" five.inferior
Substitution2: "'subs' Subscript in Greek lookup 46 subtable" five.inferior
Substitution2: "'dnom' Denominators lookup 45 subtable" five.denominator
Substitution2: "'numr' Numerators lookup 44 subtable" five.numerator
Substitution2: "'onum' Oldstyle Figures in Latin lookup 43 subtable" fiveoldstyle
Substitution2: "'onum' Oldstyle Figures in Cyrillic lookup 42 subtable" fiveoldstyle
Substitution2: "'onum' Oldstyle Figures in Greek lookup 41 subtable" fiveoldstyle
Substitution2: "'frac' Diagonal Fractions in Cyrillic lookup 22 subtable" five.numerator
Substitution2: "'frac' Diagonal Fractions in Latin lookup 20 subtable" five.numerator
Substitution2: "'frac' Diagonal Fractions lookup 18 subtable" five.numerator
AlternateSubs2: "'aalt' Access All Alternates lookup 1 subtable" fiveoldstyle five.inferior five.superior
EndChar

StartChar: six
Encoding: 54 54 23
Width: 500
Flags: MW
HStem: -7 26<169.5 261 155 295> 411 36<284 292>
VStem: 30 76<144 165 144 313> 372 89<236 322>
LayerCount: 2
Fore
SplineSet
520 686 m 1
 521 670 l 1
 345 647 223 478 199 428 c 1
 203 426 l 1
 217 433 231 438 246 441 c 0
 261 445 276 447 292 447 c 0
 360 447 461 405 461 263 c 0
 461 162 380 -7 210 -7 c 0
 129 -7 30 46 30 210 c 0
 30 416 215 667 520 686 c 1
254 411 m 0
 116 411 106 173 106 157 c 0
 106 131 106 19 204 19 c 0
 318 19 372 191 372 281 c 0
 372 363 330 411 254 411 c 0
EndSplineSet
Validated: 1
Substitution2: "'sups' Superscript in Latin lookup 51 subtable" six.superior
Substitution2: "'sups' Superscript in Cyrillic lookup 50 subtable" six.superior
Substitution2: "'sups' Superscript in Greek lookup 49 subtable" six.superior
Substitution2: "'subs' Subscript in Latin lookup 48 subtable" six.inferior
Substitution2: "'subs' Subscript in Cyrillic lookup 47 subtable" six.inferior
Substitution2: "'subs' Subscript in Greek lookup 46 subtable" six.inferior
Substitution2: "'dnom' Denominators lookup 45 subtable" six.denominator
Substitution2: "'numr' Numerators lookup 44 subtable" six.numerator
Substitution2: "'onum' Oldstyle Figures in Latin lookup 43 subtable" sixoldstyle
Substitution2: "'onum' Oldstyle Figures in Cyrillic lookup 42 subtable" sixoldstyle
Substitution2: "'onum' Oldstyle Figures in Greek lookup 41 subtable" sixoldstyle
Substitution2: "'frac' Diagonal Fractions in Cyrillic lookup 22 subtable" six.numerator
Substitution2: "'frac' Diagonal Fractions in Latin lookup 20 subtable" six.numerator
Substitution2: "'frac' Diagonal Fractions lookup 18 subtable" six.numerator
AlternateSubs2: "'aalt' Access All Alternates lookup 1 subtable" sixoldstyle six.inferior six.superior
EndChar

StartChar: seven
Encoding: 55 55 24
Width: 500
Flags: MW
HStem: -8 21G<79 149 79 79> 593 73<193 222 222 444>
LayerCount: 2
Fore
SplineSet
537 656 m 1
 149 -8 l 1
 79 -8 l 1
 446 590 l 1
 444 593 l 1
 222 593 l 2
 164 593 137 578 89 521 c 1
 75 530 l 1
 156 666 l 1
 531 666 l 1
 537 656 l 1
EndSplineSet
Validated: 1
Substitution2: "'sups' Superscript in Latin lookup 51 subtable" seven.superior
Substitution2: "'sups' Superscript in Cyrillic lookup 50 subtable" seven.superior
Substitution2: "'sups' Superscript in Greek lookup 49 subtable" seven.superior
Substitution2: "'subs' Subscript in Latin lookup 48 subtable" seven.inferior
Substitution2: "'subs' Subscript in Cyrillic lookup 47 subtable" seven.inferior
Substitution2: "'subs' Subscript in Greek lookup 46 subtable" seven.inferior
Substitution2: "'dnom' Denominators lookup 45 subtable" seven.denominator
Substitution2: "'numr' Numerators lookup 44 subtable" seven.numerator
Substitution2: "'onum' Oldstyle Figures in Latin lookup 43 subtable" sevenoldstyle
Substitution2: "'onum' Oldstyle Figures in Cyrillic lookup 42 subtable" sevenoldstyle
Substitution2: "'onum' Oldstyle Figures in Greek lookup 41 subtable" sevenoldstyle
Substitution2: "'frac' Diagonal Fractions in Cyrillic lookup 22 subtable" seven.numerator
Substitution2: "'frac' Diagonal Fractions in Latin lookup 20 subtable" seven.numerator
Substitution2: "'frac' Diagonal Fractions lookup 18 subtable" seven.numerator
AlternateSubs2: "'aalt' Access All Alternates lookup 1 subtable" sevenoldstyle seven.inferior seven.superior
EndChar

StartChar: eight
Encoding: 56 56 25
Width: 500
Flags: MW
HStem: -7 22<194 264 194 297> 653 23<286 352 272 358.5>
VStem: 30 68<142 217.5 114.5 229.5> 138 78<529 575.5 529 575.5> 369 75<125 185.5> 425 68<494.5 560>
LayerCount: 2
Fore
SplineSet
30 157 m 0xf8
 30 302 201 353 225 360 c 1
 164 425 138 472 138 524 c 0
 138 627 225 676 319 676 c 0
 385 676 493 643 493 533 c 0xf4
 493 436 384 400 329 382 c 1
 404 307 444 246 444 168 c 0
 444 82 364 -7 230 -7 c 0
 51 -7 30 127 30 157 c 0xf8
98 154 m 0
 98 75 151 15 237 15 c 0
 291 15 369 57 369 153 c 0
 369 218 344 244 247 344 c 1
 221 336 98 281 98 154 c 0
216 542 m 0
 216 516 216 485 311 399 c 1
 366 425 425 453 425 536 c 0
 425 584 399 653 318 653 c 0
 254 653 216 609 216 542 c 0
EndSplineSet
Validated: 1
Substitution2: "'sups' Superscript in Latin lookup 51 subtable" eight.superior
Substitution2: "'sups' Superscript in Cyrillic lookup 50 subtable" eight.superior
Substitution2: "'sups' Superscript in Greek lookup 49 subtable" eight.superior
Substitution2: "'subs' Subscript in Latin lookup 48 subtable" eight.inferior
Substitution2: "'subs' Subscript in Cyrillic lookup 47 subtable" eight.inferior
Substitution2: "'subs' Subscript in Greek lookup 46 subtable" eight.inferior
Substitution2: "'dnom' Denominators lookup 45 subtable" eight.denominator
Substitution2: "'numr' Numerators lookup 44 subtable" eight.numerator
Substitution2: "'onum' Oldstyle Figures in Latin lookup 43 subtable" eightoldstyle
Substitution2: "'onum' Oldstyle Figures in Cyrillic lookup 42 subtable" eightoldstyle
Substitution2: "'onum' Oldstyle Figures in Greek lookup 41 subtable" eightoldstyle
Substitution2: "'frac' Diagonal Fractions in Cyrillic lookup 22 subtable" eight.numerator
Substitution2: "'frac' Diagonal Fractions in Latin lookup 20 subtable" eight.numerator
Substitution2: "'frac' Diagonal Fractions lookup 18 subtable" eight.numerator
AlternateSubs2: "'aalt' Access All Alternates lookup 1 subtable" eightoldstyle eight.inferior eight.superior
EndChar

StartChar: nine
Encoding: 57 57 26
Width: 500
Flags: MW
HStem: 229 46<211 242> 650 26<261.5 360.5 250.5 367.5>
VStem: 69 88<396 458.5 396 483.5> 417 75<489.5 522.5>
LayerCount: 2
Fore
SplineSet
23 -17 m 1
 23 1 l 1
 205 32 341 229 352 272 c 1
 348 274 l 1
 308 248 264 229 220 229 c 0
 135 229 69 296 69 415 c 0
 69 552 192 676 309 676 c 0
 412 676 492 602 492 454 c 0
 492 252 324 19 23 -17 c 1
157 412 m 0
 157 380 161 275 261 275 c 0
 292 275 348 292 376 335 c 0
 401 374 417 476 417 503 c 0
 417 542 417 650 318 650 c 0
 205 650 157 505 157 412 c 0
EndSplineSet
Validated: 1
Substitution2: "'sups' Superscript in Latin lookup 51 subtable" nine.superior
Substitution2: "'sups' Superscript in Cyrillic lookup 50 subtable" nine.superior
Substitution2: "'sups' Superscript in Greek lookup 49 subtable" nine.superior
Substitution2: "'subs' Subscript in Latin lookup 48 subtable" nine.inferior
Substitution2: "'subs' Subscript in Cyrillic lookup 47 subtable" nine.inferior
Substitution2: "'subs' Subscript in Greek lookup 46 subtable" nine.inferior
Substitution2: "'dnom' Denominators lookup 45 subtable" nine.denominator
Substitution2: "'numr' Numerators lookup 44 subtable" nine.numerator
Substitution2: "'onum' Oldstyle Figures in Latin lookup 43 subtable" nineoldstyle
Substitution2: "'onum' Oldstyle Figures in Cyrillic lookup 42 subtable" nineoldstyle
Substitution2: "'onum' Oldstyle Figures in Greek lookup 41 subtable" nineoldstyle
Substitution2: "'frac' Diagonal Fractions in Cyrillic lookup 22 subtable" nine.numerator
Substitution2: "'frac' Diagonal Fractions in Latin lookup 20 subtable" nine.numerator
Substitution2: "'frac' Diagonal Fractions lookup 18 subtable" nine.numerator
AlternateSubs2: "'aalt' Access All Alternates lookup 1 subtable" nineoldstyle nine.inferior nine.superior
EndChar

StartChar: colon
Encoding: 58 58 27
Width: 332
Flags: MW
HStem: -11 21G<89.5 120> 421 20G<189.5 220.5>
LayerCount: 2
Fore
SplineSet
106 100 m 0
 136 100 161 74 161 43 c 0
 161 13 136 -11 104 -11 c 0
 75 -11 50 14 50 43 c 0
 50 74 75 100 106 100 c 0
205 441 m 0
 236 441 261 416 261 384 c 0
 261 354 236 330 204 330 c 0
 174 330 150 354 150 384 c 0
 150 416 174 441 205 441 c 0
EndSplineSet
Validated: 1
EndChar

StartChar: semicolon
Encoding: 59 59 28
Width: 332
Flags: MW
HStem: 330 111<189.5 220>
VStem: 102 64<-36.5 50>
LayerCount: 2
Fore
SplineSet
36 -129 m 1
 27 -112 l 1
 79 -77 102 -50 102 -23 c 0
 102 -13 97 -5 82 9 c 0
 63 26 57 37 57 54 c 0
 57 81 79 101 108 101 c 0
 141 101 166 70 166 30 c 0
 166 -26 120 -82 36 -129 c 1
205 441 m 0
 236 441 261 416 261 384 c 0
 261 354 236 330 204 330 c 0
 174 330 150 354 150 384 c 0
 150 416 174 441 205 441 c 0
EndSplineSet
Validated: 1
EndChar

StartChar: less
Encoding: 60 60 29
Width: 674
Flags: MW
HStem: -10 21G<592 592>
VStem: 84 508<-10 286 -10 286>
LayerCount: 2
Fore
SplineSet
592 -10 m 1
 84 220 l 1
 84 286 l 1
 592 516 l 1
 592 444 l 1
 172 253 l 1
 592 62 l 1
 592 -10 l 1
EndSplineSet
Validated: 1
EndChar

StartChar: equal
Encoding: 61 61 30
Width: 674
Flags: MW
HStem: 120 66<86 590 86 590> 320 66<86 590 86 590>
LayerCount: 2
Fore
SplineSet
590 386 m 1
 590 320 l 1
 86 320 l 1
 86 386 l 1
 590 386 l 1
590 186 m 1
 590 120 l 1
 86 120 l 1
 86 186 l 1
 590 186 l 1
EndSplineSet
Validated: 1
EndChar

StartChar: greater
Encoding: 62 62 31
Width: 674
Flags: MW
HStem: -10 21G<84 84>
VStem: 84 508<-10 286 62 286 220 516 220 516>
LayerCount: 2
Fore
SplineSet
84 -10 m 1
 84 62 l 1
 504 253 l 1
 84 444 l 1
 84 516 l 1
 592 286 l 1
 592 220 l 1
 84 -10 l 1
EndSplineSet
Validated: 1
EndChar

StartChar: question
Encoding: 63 63 32
Width: 500
Flags: MW
HStem: -12 105<170 198.5> 642 22<296.5 343.5>
VStem: 184 79<540 545.5 532 587> 398 74<531 574 504.5 584>
LayerCount: 2
Fore
SplineSet
216 174 m 1
 199 176 l 1
 216 275 228 297 311 392 c 0
 376 463 398 505 398 557 c 0
 398 611 369 642 318 642 c 0
 275 642 248 624 248 594 c 0
 248 586 250 580 256 567 c 0
 261 555 263 549 263 542 c 0
 263 522 246 507 223 507 c 0
 199 507 184 525 184 555 c 0
 184 619 242 664 324 664 c 0
 413 664 472 613 472 535 c 0
 472 474 452 447 338 354 c 0
 267 297 237 259 223 203 c 2
 216 174 l 1
184 93 m 0
 213 93 237 69 237 40 c 0
 237 13 212 -12 185 -12 c 0
 155 -12 132 11 132 40 c 0
 132 69 155 93 184 93 c 0
EndSplineSet
Validated: 1
EndChar

StartChar: at
Encoding: 64 64 33
Width: 919
Flags: HMW
HStem: -18 39<408.5 517.5> 138 33<623 647.5 623 671.5> 139 42<385 479> 635 31<399.5 559>
VStem: 118 83<227.5 406.5 227.5 415.5> 321 71<239 285.5> 766 40<337 440>
LayerCount: 2
Fore
SplineSet
587 449 m 1xbe
 597 486 l 1
 666 486 l 1
 601 234 l 2
 599 227 598 218 598 213 c 0
 598 186 611 171 635 171 c 0
 660 171 685 183 704 202 c 0
 741 241 766 307 766 367 c 0
 766 513 637 635 481 635 c 0
 318 635 201 500 201 313 c 0
 201 142 323 21 494 21 c 0
 559 21 608 33 686 68 c 1
 698 39 l 1
 604 -5 553 -18 482 -18 c 0
 278 -18 118 130 118 319 c 0
 118 512 278 666 481 666 c 0
 664 666 806 539 806 376 c 0
 806 248 721 138 622 138 c 0xde
 575 138 539 167 533 210 c 1
 497 165 452 139 410 139 c 0
 360 139 321 187 321 250 c 0
 321 321 352 398 403 450 c 0
 433 482 474 500 516 500 c 0
 551 500 565 490 587 449 c 1xbe
530 456 m 0
 528.897582148 456.091868154 527.771954963 456.137317641 526.62486297 456.137317641 c 0
 502.799384176 456.137317641 469.71384584 436.530109531 443 406 c 0
 410 368 392 318 392 265 c 0
 392 213 414 181 451 181 c 0
 507 181 564 281 570 394 c 0
 570.118682765 396.195631145 570.177501735 398.341962695 570.177501735 400.437531897 c 0
 570.177501735 433.655754193 555.397782678 454.118682765 530 456 c 0
EndSplineSet
Validated: 524289
EndChar

StartChar: A
Encoding: 65 65 34
Width: 630
Flags: MW
HStem: 0 21G<-31 156 -31 -31 338 584 338 338> 226 36<200 387 200 393 179 387>
LayerCount: 2
Fore
SplineSet
584 16 m 1
 584 0 l 1
 338 0 l 1
 338 16 l 1
 402 22 416 31 416 69 c 0
 416 77 415 86 414 95 c 2
 393 226 l 1
 179 226 l 1
 117 113 l 2
 100 79 97 70 97 51 c 0
 97 26 105 21 156 16 c 1
 156 0 l 1
 -31 0 l 1
 -31 16 l 1
 8 32 34 47 103 168 c 2
 388 668 l 1
 414 668 l 1
 508 102 l 2
 521 29 527 21 584 16 c 1
200 262 m 1
 387 262 l 1
 345 522 l 1
 200 262 l 1
EndSplineSet
Validated: 1
EndChar

StartChar: B
Encoding: 66 66 35
Width: 610
Flags: MW
HStem: 0 30<214 274> 331 32<248 270.5> 623 30<350.5 388 388 410>
VStem: 431 108<150 231> 487 101<486.5 552>
LayerCount: 2
Fore
SplineSet
413 351 m 1xe8
 476 324 539 292 539 200 c 0xf0
 539 82 431 0 274 0 c 2
 -8 0 l 1
 -8 16 l 1
 48 26 57 31 73 90 c 2
 196 532 l 2
 203 556 207 581 207 596 c 0
 207 624 192 632 130 637 c 1
 130 653 l 1
 388 653 l 2
 517 653 588 601 588 506 c 0
 588 384 451 360 413 351 c 1xe8
171 72 m 0
 171 45 193 30 235 30 c 0
 357 30 431 96 431 204 c 0
 431 258 406 302 365 319 c 0
 345 327 303 331 238 331 c 1
 225 280 171 84 171 72 c 0
313 595 m 2
 248 363 l 1
 338 363 386 370 420 390 c 0
 463 414 487 458 487 515 c 0xe8
 487 589 450 623 370 623 c 0
 331 623 319 617 313 595 c 2
EndSplineSet
Validated: 1
EndChar

StartChar: C
Encoding: 67 67 36
Width: 666
Flags: MW
HStem: -18 45<287 386> 630 36<386 500 365.5 530.5>
VStem: 66 112<183 324 183 357.5>
LayerCount: 2
Fore
SplineSet
689 664 m 1
 652 465 l 1
 634 468 l 1
 629 561 581 630 480 630 c 0
 292 630 178 407 178 241 c 0
 178 125 222 27 352 27 c 0
 451 27 516 79 583 145 c 1
 600 131 l 1
 529 46 444 -18 328 -18 c 0
 168 -18 66 93 66 252 c 0
 66 463 259 666 472 666 c 0
 528 666 582 642 628 642 c 0
 644 642 662 647 668 664 c 1
 689 664 l 1
EndSplineSet
Validated: 1
EndChar

StartChar: D
Encoding: 68 68 37
Width: 721
Flags: HMW
HStem: 0 30<226 245> 623 30<365 408 408 451>
VStem: 589 111<296.5 468.5>
LayerCount: 2
Fore
SplineSet
700 387 m 0
 700 133 477 0 245 0 c 2
 -8 0 l 1
 -8 16 l 1
 47 24 58 36 73 90 c 2
 196 532 l 2
 202 552 207 573 207 594 c 0
 207 635 160 635 130 637 c 1
 130 653 l 1
 408 653 l 2
 572 653 700 559 700 387 c 0
589 399 m 0
 589 538 524 623 378 623 c 0
 376.375 623 374.73046875 623.00390625 373.073242188 623.00390625 c 0
 348.21484375 623.00390625 320.5 622.125 313 594 c 2
 192 162 l 2
 186 141 170 89 170 69 c 0
 170 30.9047619048 207.188208617 29.9977324263 236.645070727 29.9977324263 c 0
 238.117913832 29.9977324263 239.571428571 30 241 30 c 0
 454 30 589 194 589 399 c 0
EndSplineSet
Validated: 524289
EndChar

StartChar: E
Encoding: 69 69 38
Width: 603
Flags: HMW
HStem: 0 33<219.5 286.5 219.5 499> 325 38<319 325 319 356.5> 620 33<357 463.5>
LayerCount: 2
Fore
SplineSet
315 325 m 0
 303 325 237 328 237 328 c 1
 170 76 l 2
 168.920583149 72.042138214 168.387775533 68.4151188596 168.387775533 65.0965143058 c 0
 168.387775533 40.7451404228 197.076177133 33 249 33 c 0
 324 33 392 43 429 60 c 0
 472 80 498 106 545 170 c 1
 561 162 l 1
 499 0 l 1
 -8 0 l 1
 -8 16 l 1
 48 26 56 33 73 90 c 2
 196 532 l 2
 201 550 207 585 207 596 c 0
 207 623 192 631 130 637 c 1
 130 653 l 1
 627 653 l 1
 596 500 l 1
 575 502 l 1
 576 519 577 534 577 547 c 0
 577 607 542 620 385 620 c 0
 329 620 318 616 312 594 c 2
 246 361 l 1
 246 361 313 363 325 363 c 0
 416 367 425 373 463 458 c 1
 481 454 l 1
 413 222 l 1
 393 227 l 1
 398 249 400 262 400 279 c 0
 400 309 398 325 315 325 c 0
EndSplineSet
Validated: 524289
EndChar

StartChar: F
Encoding: 70 70 39
Width: 610
Flags: MW
HStem: 0 21G<-8 244 -8 -8> 325 36 620 33<354.5 459>
LayerCount: 2
Fore
SplineSet
320 325 m 0
 298 325 276 326 239 328 c 1
 177 105 l 2
 171 83 168 68 168 60 c 0
 168 30 186 19 244 16 c 1
 244 0 l 1
 -8 0 l 1
 -8 16 l 1
 49 24 56 30 74 90 c 2
 197 532 l 2
 204 556 208 581 208 596 c 0
 208 625 196 631 131 637 c 1
 131 653 l 1
 629 653 l 1
 597 500 l 1
 576 502 l 1
 577 514 579 539 579 545 c 0
 579 607 543 620 375 620 c 0
 334 620 320 614 314 594 c 2
 248 361 l 1
 416 363 419 364 464 454 c 1
 482 449 l 1
 406 215 l 1
 389 220 l 1
 395 251 397 263 397 279 c 0
 397 316 383 325 320 325 c 0
EndSplineSet
Validated: 1
EndChar

StartChar: G
Encoding: 71 71 40
Width: 721
Flags: MW
HStem: -18 37<299.5 383> 632 34<362 491 345 512>
VStem: 52 110<158 305.5 157.5 349>
LayerCount: 2
Fore
SplineSet
722 303 m 1
 664 300 641 290 625 231 c 2
 576 44 l 1
 512 4 421 -18 345 -18 c 0
 192 -18 52 76 52 240 c 0
 52 458 233 666 457 666 c 0
 525 666 591 632 630 632 c 0
 657 632 679 643 693 666 c 1
 708 662 l 1
 659 465 l 1
 641 468 l 1
 634 573 563 632 461 632 c 0
 263 632 162 390 162 221 c 0
 162 94 235 19 364 19 c 0
 403 19 439 27 469 53 c 0
 493 74 534 231 534 266 c 0
 534 302 481 301 456 303 c 1
 456 319 l 1
 722 319 l 1
 722 303 l 1
EndSplineSet
Validated: 1
EndChar

StartChar: H
Encoding: 72 72 41
Width: 721
Flags: MW
HStem: 0 21G<-8 238 -8 -8 355 628 355 355> 326 42<248 521 236 533> 633 20G<130 403 403 403 520 767 767 767>
LayerCount: 2
Fore
SplineSet
767 653 m 1
 767 637 l 1
 710 627 702 621 685 563 c 2
 553 82 l 2
 551 74 550 68 550 58 c 0
 550 30 564 22 628 16 c 1
 628 0 l 1
 355 0 l 1
 355 16 l 1
 420 23 442 38 456 90 c 2
 521 326 l 1
 236 326 l 1
 170 82 l 2
 168 75 167 67 167 60 c 0
 167 31 178 24 238 16 c 1
 238 0 l 1
 -8 0 l 1
 -8 16 l 1
 48 26 57 31 73 90 c 2
 196 532 l 2
 203 557 207 580 207 594 c 0
 207 623 192 631 130 637 c 1
 130 653 l 1
 403 653 l 1
 403 637 l 1
 343 633 317 614 302 563 c 2
 248 368 l 1
 533 368 l 1
 579 532 l 2
 586 557 590 580 590 594 c 0
 590 622 578 630 520 637 c 1
 520 653 l 1
 767 653 l 1
EndSplineSet
Validated: 1
EndChar

StartChar: I
Encoding: 73 73 42
Width: 338
Flags: MW
HStem: 0 21G<-8 -8 -8 236> 633 20G<137 384 384 384>
LayerCount: 2
Fore
SplineSet
-8 0 m 1
 -8 16 l 1
 48 26 57 31 73 90 c 2
 196 532 l 2
 203 557 207 580 207 594 c 0
 207 622 195 630 137 637 c 1
 137 653 l 1
 384 653 l 1
 384 637 l 1
 327 627 318 622 302 563 c 2
 179 120 l 2
 170 88 168 76 168 57 c 0
 168 29 179 23 236 16 c 1
 236 0 l 1
 -8 0 l 1
EndSplineSet
Validated: 1
EndChar

StartChar: J
Encoding: 74 74 43
Width: 443
Flags: MW
HStem: -18 31<110 134 110 136.5> 633 20G<237 491 491 491>
VStem: -6 94<68 77 68 86>
LayerCount: 2
Fore
SplineSet
491 653 m 1
 491 637 l 1
 434 629 427 623 409 563 c 2
 306 192 l 2
 285 116 265 71 238 39 c 0
 207 2 162 -18 111 -18 c 0
 41 -18 -6 18 -6 70 c 0
 -6 102 13 124 40 124 c 0
 65 124 88 102 88 77 c 2
 88 68 l 2
 87 62 87 58 87 53 c 0
 87 26 98 13 122 13 c 0
 146 13 160 28 171 67 c 2
 302 532 l 2
 310 560 314 582 314 596 c 0
 314 623 300 631 237 637 c 1
 237 653 l 1
 491 653 l 1
EndSplineSet
Validated: 1
EndChar

StartChar: K
Encoding: 75 75 44
Width: 659
Flags: MW
HStem: 0 21G<-8 240 -8 -8 328 328 328 603> 634 19<510 512>
LayerCount: 2
Fore
SplineSet
403 45 m 0
 403 64 389 99 365 140 c 2
 244 348 l 1
 176 99 l 2
 170 79 168 70 168 60 c 0
 168 29 177 23 240 16 c 1
 240 0 l 1
 -8 0 l 1
 -8 16 l 1
 51 25 56 30 74 90 c 2
 197 532 l 2
 204 557 208 580 208 594 c 0
 208 623 193 631 131 637 c 1
 131 653 l 1
 404 653 l 1
 404 637 l 1
 345 633 318 613 303 563 c 2
 250 369 l 1
 402 475 l 2
 491 537 546 591 546 615 c 0
 546 626 536 632 512 634 c 0
 508 634 497 636 485 637 c 1
 485 653 l 1
 707 653 l 1
 707 637 l 1
 683 633 660 622 632 601 c 2
 332 375 l 1
 506 72 l 2
 534 25 540 22 603 16 c 1
 603 0 l 1
 328 0 l 1
 328 16 l 1
 349 20 403 15 403 45 c 0
EndSplineSet
Validated: 1
EndChar

StartChar: L
Encoding: 76 76 45
Width: 555
Flags: MW
HStem: 0 36<232 313.5 232 501> 633 20G<130 403 403 403>
LayerCount: 2
Fore
SplineSet
403 653 m 1
 403 637 l 1
 343 633 317 614 302 563 c 2
 179 120 l 2
 174 101 169 77 169 70 c 0
 169 44 194 36 270 36 c 0
 357 36 398 42 433 59 c 0
 477 81 504 113 539 185 c 1
 559 179 l 1
 501 0 l 1
 -8 0 l 1
 -8 16 l 1
 48 26 57 31 73 90 c 2
 196 532 l 2
 203 557 207 580 207 594 c 0
 207 623 192 631 130 637 c 1
 130 653 l 1
 403 653 l 1
EndSplineSet
Validated: 1
EndChar

StartChar: M
Encoding: 77 77 46
Width: 827
Flags: MW
HStem: 0 21G<-18 180 -18 -18 297 314 297 297 461 734 461 461> 637 16<134 146.5>
LayerCount: 2
Fore
SplineSet
873 637 m 1
 815 627 807 621 791 563 c 2
 668 120 l 2
 663 100 657 80 657 60 c 0
 657 15 700 19 734 16 c 1
 734 0 l 1
 461 0 l 1
 461 16 l 1
 518 21 546 34 562 91 c 2
 689 553 l 1
 686 553 l 1
 314 0 l 1
 297 0 l 1
 237 536 l 1
 233 536 l 1
 118 113 l 2
 114 98 109 79 109 63 c 0
 109 23 149 18 180 16 c 1
 180 0 l 1
 -18 0 l 1
 -18 16 l 1
 53 27 62 84 80 146 c 2
 186 518 l 2
 190 532 208 587 208 598 c 0
 208 632 159 637 134 637 c 1
 134 653 l 1
 315 653 l 1
 370 164 l 1
 373 164 l 1
 706 653 l 1
 873 653 l 1
 873 637 l 1
EndSplineSet
Validated: 1
EndChar

StartChar: N
Encoding: 78 78 47
Width: 656
Flags: MW
HStem: -15 21G<463 481 463 463> 633 20G<118 279 279 279 530 729 729 729>
LayerCount: 2
Fore
SplineSet
600 586 m 0
 600 622 587 632 530 637 c 1
 530 653 l 1
 729 653 l 1
 729 637 l 1
 666 623 662 617 625 488 c 2
 481 -15 l 1
 463 -15 l 1
 233 535 l 1
 119 113 l 2
 113 92 110 72 110 59 c 0
 110 31 129 20 180 16 c 1
 180 0 l 1
 -18 0 l 1
 -18 16 l 1
 39 24 47 36 85 164 c 2
 204 581 l 1
 186 620 165 633 118 637 c 1
 118 653 l 1
 279 653 l 1
 487 154 l 1
 589 534 l 2
 589 535 600 574 600 586 c 0
EndSplineSet
Validated: 1
EndChar

StartChar: O
Encoding: 79 79 48
Width: 721
Flags: MW
HStem: -18 33<246 387> 633 33<370 512>
VStem: 60 105<160.5 258 139 324.5> 594 105<394.5 494 318 515.5>
LayerCount: 2
Fore
SplineSet
699 423 m 0
 699 213 495 -18 279 -18 c 0
 138 -18 60 94 60 227 c 0
 60 422 264 666 467 666 c 0
 612 666 699 565 699 423 c 0
594 472 m 0
 594 559 561 633 463 633 c 0
 277 633 165 335 165 181 c 0
 165 97 197 15 295 15 c 0
 482 15 594 317 594 472 c 0
EndSplineSet
Validated: 1
EndChar

StartChar: P
Encoding: 80 80 49
Width: 602
Flags: MW
HStem: 0 21G<-8 237 -8 -8> 305 37<305.5 386.5 286.5 446> 623 30<346 386 386 424>
VStem: 494 103<474.5 527.5>
LayerCount: 2
Fore
SplineSet
326 305 m 0
 285 305 259 307 234 313 c 1
 181 120 l 2
 171 84 169 74 169 62 c 0
 169 28 174 25 237 16 c 1
 237 0 l 1
 -8 0 l 1
 -8 16 l 1
 49 24 56 30 74 90 c 2
 192 515 l 2
 205 560 209 581 209 595 c 0
 209 621 195 630 138 637 c 1
 138 653 l 1
 386 653 l 2
 522 653 597 600 597 504 c 0
 597 445 566 305 326 305 c 0
360 623 m 0
 332 623 320 616 314 595 c 2
 243 347 l 1
 270 343 278 342 295 342 c 0
 478 342 494 439 494 504 c 0
 494 551 488 623 360 623 c 0
EndSplineSet
Validated: 1
EndChar

StartChar: Q
Encoding: 81 81 50
Width: 721
Flags: HMW
HStem: -182 68<439.5 473.5> -16 33<279 386.5> 633 33<370 512>
VStem: 60 105<168.5 258 139 324.5> 594 105<394.5 494 317.5 515.5>
LayerCount: 2
Fore
SplineSet
699 423 m 0
 699 212 494 -16 279 -16 c 1
 225 -73 l 1
 250 -72 l 2
 252.483870968 -71.9032258065 254.964620187 -71.8563995838 257.442449062 -71.8563995838 c 0
 331.777315297 -71.8563995838 403.483870968 -114 478 -114 c 0
 559 -114 598 -95 653 -38 c 1
 668 -49 l 1
 618 -124 519 -182 428 -182 c 0
 344 -182 265 -138 186 -138 c 0
 146 -138 104 -148 69 -169 c 1
 59 -154 l 1
 121 -109 178 -62 236 -12 c 1
 115 10 60 110 60 227 c 0
 60 422 264 666 467 666 c 0
 612 666 699 565 699 423 c 0
594 472 m 0
 594 559 561 633 463 633 c 0
 277 633 165 335 165 181 c 0
 165 97 198 17 295 17 c 0
 481 17 594 317 594 472 c 0
EndSplineSet
Validated: 524289
EndChar

StartChar: R
Encoding: 82 82 51
Width: 627
Flags: MW
HStem: 0 21G<-8 236 -8 -8 424 572 424 424> 623 30<348 385 385 405.5>
VStem: 488 105<461.5 548>
LayerCount: 2
Fore
SplineSet
137 637 m 1
 137 653 l 1
 385 653 l 2
 519 653 593 602 593 509 c 0
 593 408 502 350 396 333 c 1
 489 88 l 2
 508 36 528 19 572 16 c 1
 572 0 l 1
 424 0 l 1
 301 324 l 1
 236 329 l 1
 180 120 l 2
 171 85 168 72 168 62 c 0
 168 29 175 24 236 16 c 1
 236 0 l 1
 -8 0 l 1
 -8 16 l 1
 48 25 56 31 73 90 c 2
 196 532 l 2
 203 559 208 583 208 595 c 0
 208 614 190 637 137 637 c 1
313 595 m 2
 248 366 l 1
 272 362 283 361 299 361 c 0
 424 361 488 412 488 511 c 0
 488 585 447 623 364 623 c 0
 332 623 319 616 313 595 c 2
EndSplineSet
Validated: 1
EndChar

StartChar: S
Encoding: 83 83 52
Width: 500
Flags: MW
HStem: -15 21G<17 35 17 17> 17 1 633 33<295 333.5 256 377.5>
VStem: 131 88<468 550> 344 87<123 217>
LayerCount: 2
Fore
SplineSet
508 667 m 1
 468 468 l 1
 450 471 l 1
 449 558 430 633 325 633 c 0
 265 633 219 595 219 533 c 0
 219 403 431 346 431 180 c 0
 431 66 341 -18 228 -18 c 0
 171 -18 121 18 74 18 c 0
 52 18 40 5 35 -15 c 1
 17 -15 l 1
 51 208 l 1
 71 206 l 1
 70 199 69 192 69 185 c 0
 69 99 123 17 215 17 c 0
 289 17 344 76 344 149 c 0
 344 285 131 348 131 502 c 0
 131 598 209 666 303 666 c 0
 364 666 405 641 441 641 c 0
 463 641 474 649 485 667 c 1
 508 667 l 1
EndSplineSet
Validated: 1
EndChar

StartChar: T
Encoding: 84 84 53
Width: 555
Flags: HMW
HStem: 0 21G<65 355 65 65> 618 35<315 315 416 416 416 471>
LayerCount: 2
Fore
SplineSet
355 16 m 1
 355 0 l 1
 65 0 l 1
 65 16 l 1
 131 21 155 37 171 90 c 2
 315 618 l 1
 307.62156426 618.09645014 300.524533064 618.14871279 293.692980405 618.14871279 c 0
 158.864756702 618.14871279 127.44407128 597.791692419 77 495 c 1
 59 499 l 1
 101 653 l 1
 633 653 l 1
 589 490 l 1
 572 492 l 1
 574 509 575 524 575 537 c 0
 575 593 543 618 471 618 c 2
 416 618 l 1
 277 120 l 2
 268 86 265 74 265 61 c 0
 265 21 287 21 355 16 c 1
EndSplineSet
Validated: 524289
EndChar

StartChar: U
Encoding: 85 85 54
Width: 722
Flags: MW
HStem: -18 41<293.5 390> 633 20G<127 400 400 400 566 765 765 765>
VStem: 102 90<103.5 171 103.5 189.5>
LayerCount: 2
Fore
SplineSet
765 637 m 1
 683 620 682 560 661 488 c 2
 578 203 l 2
 538 67 465 -18 315 -18 c 0
 214 -18 102 37 102 151 c 0
 102 228 154 394 176 473 c 0
 184 499 205 569 205 594 c 0
 205 637 159 635 127 637 c 1
 127 653 l 1
 400 653 l 1
 400 637 l 1
 340 631 318 618 299 559 c 0
 276 491 192 198 192 144 c 0
 192 63 256 23 331 23 c 0
 464 23 515 130 546 241 c 0
 561 293 637 556 637 586 c 0
 637 630 601 635 566 637 c 1
 566 653 l 1
 765 653 l 1
 765 637 l 1
EndSplineSet
Validated: 1
EndChar

StartChar: V
Encoding: 86 86 55
Width: 610
Flags: MW
HStem: -18 21G<240 259 240 240> 633 20G<76 317 317 317 502 688 688 688>
LayerCount: 2
Fore
SplineSet
688 653 m 1
 688 637 l 1
 665 636 649 624 632 597 c 2
 259 -18 l 1
 240 -18 l 1
 155 502 l 2
 134 627 132 630 76 637 c 1
 76 653 l 1
 317 653 l 1
 317 637 l 1
 254 630 240 620 240 586 c 0
 240 580 240 576 241 571 c 2
 307 128 l 1
 513 484 l 2
 546 541 565 584 565 603 c 0
 565 622 547 632 502 637 c 1
 502 653 l 1
 688 653 l 1
EndSplineSet
Validated: 1
EndChar

StartChar: W
Encoding: 87 87 56
Width: 832
Flags: HMW
HStem: -18 21G<212 231 212 212 508 528 508 508> 416 20G<453 458 453 453> 633 20G<71 307 307 307 367 605 605 605 721 906 906 906>
LayerCount: 2
Fore
SplineSet
537 578 m 2
 578 162 l 1
 765 530 l 2
 778 556 786 581 786 597 c 0
 786 625 775 632 721 637 c 1
 721 653 l 1
 906 653 l 1
 906 637 l 1
 868 625 858 616 831 565 c 2
 528 -18 l 1
 508 -18 l 1
 458 436 l 1
 453 436 l 1
 231 -18 l 1
 212 -18 l 1
 150 499 l 2
 138 591 134 610 122 621 c 0
 113 630 104 633 71 637 c 1
 71 653 l 1
 307 653 l 1
 307 637 l 1
 246 630 234 621 234 582 c 0
 234 580 234 573 235 568 c 2
 279 162 l 1
 451 510 l 1
 442 579 l 2
 435 628 425 635 367 637 c 1
 367 653 l 1
 605 653 l 1
 605 637 l 1
 555.774757441 632.44210717 536.464632227 620.405435004 536.464632227 588.012493055 c 0
 536.464632227 584.870437627 536.646314264 581.536857364 537 578 c 2
EndSplineSet
Validated: 524289
EndChar

StartChar: X
Encoding: 88 88 57
Width: 660
Flags: MW
HStem: 0 16<182 206 -8 -8> 633 20G<97 361 361 361 468 676 676 676>
LayerCount: 2
Fore
SplineSet
676 653 m 1
 676 637 l 1
 633 623 603 600 551 542 c 2
 382 348 l 1
 484 90 l 2
 509 30 518 24 588 16 c 1
 588 0 l 1
 315 0 l 1
 315 16 l 1
 381 21 391 26 391 55 c 0
 391 70 387 86 380 104 c 2
 313 269 l 1
 162 97 l 2
 149 82 141 65 141 50 c 0
 141 25 158 16 206 16 c 1
 206 0 l 1
 -8 0 l 1
 -8 16 l 1
 45 27 83 67 92 78 c 2
 295 313 l 1
 189 576 l 2
 170 622 155 632 97 637 c 1
 97 653 l 1
 361 653 l 1
 361 637 l 1
 306 630 290 621 290 596 c 0
 290 583 294 566 305 540 c 2
 364 393 l 1
 509 560 l 2
 523 576 529 588 529 601 c 0
 529 624 517 631 468 637 c 1
 468 653 l 1
 676 653 l 1
EndSplineSet
Validated: 1
EndChar

StartChar: Y
Encoding: 89 89 58
Width: 555
Flags: MW
HStem: 0 21G<78 367 78 78> 633 20G<91 330 330 330 444 633 633 633>
LayerCount: 2
Fore
SplineSet
367 16 m 1
 367 0 l 1
 78 0 l 1
 78 16 l 1
 144 20 166 36 183 90 c 2
 244 302 l 1
 167 571 l 2
 150 626 147 629 91 637 c 1
 91 653 l 1
 330 653 l 1
 330 637 l 1
 270 631 258 625 258 601 c 0
 258 574 313 391 325 347 c 1
 462 513 l 2
 481 536 513 588 513 606 c 0
 513 623 500 631 471 634 c 0
 467 635 456 636 444 637 c 1
 444 653 l 1
 633 653 l 1
 633 637 l 1
 603 623 595 616 563 576 c 2
 344 306 l 1
 344 306 278 99 278 56 c 0
 278 18 315 20 367 16 c 1
EndSplineSet
Validated: 1
EndChar

StartChar: Z
Encoding: 90 90 59
Width: 555
Flags: MW
HStem: 0 36<123 284 284 325> 617 36<264.5 302 302 473>
LayerCount: 2
Fore
SplineSet
606 653 m 1
 606 639 l 1
 123 36 l 1
 284 36 l 2
 366 36 416 44 450 64 c 0
 484 83 502 107 534 171 c 1
 553 168 l 1
 499 0 l 1
 -6 0 l 1
 -6 14 l 1
 473 617 l 1
 302 617 l 2
 227 617 174 604 145 580 c 0
 126 563 114 546 93 502 c 1
 74 507 l 1
 120 653 l 1
 606 653 l 1
EndSplineSet
Validated: 1
EndChar

StartChar: bracketleft
Encoding: 91 91 60
Width: 388
Flags: MW
HStem: -153 27<160 209> 636 27<307.5 322 322 384>
LayerCount: 2
Fore
SplineSet
384 636 m 1
 322 636 l 2
 293 636 281 627 275 601 c 2
 115 -77 l 2
 111 -93 111 -93 111 -98 c 0
 111 -117 128 -126 160 -126 c 2
 216 -126 l 1
 209 -153 l 1
 21 -153 l 1
 218 663 l 1
 391 663 l 1
 384 636 l 1
EndSplineSet
Validated: 1
EndChar

StartChar: backslash
Encoding: 92 92 61
Width: 277
Flags: MW
HStem: -18 21G<248 319 248 248> 646 20G<-41 31 31 31>
LayerCount: 2
Fore
SplineSet
-41 666 m 1
 31 666 l 1
 319 -18 l 1
 248 -18 l 1
 -41 666 l 1
EndSplineSet
Validated: 1
EndChar

StartChar: bracketright
Encoding: 93 93 62
Width: 388
Flags: MW
HStem: -153 27<19 81 81 96 19 185 12 81> 636 27<193 243 186 382>
LayerCount: 2
Fore
SplineSet
19 -126 m 1
 81 -126 l 2
 111 -126 120 -119 127 -90 c 2
 288 588 l 2
 292 604 292 605 292 609 c 0
 292 627 275 636 243 636 c 2
 186 636 l 1
 193 663 l 1
 382 663 l 1
 185 -153 l 1
 12 -153 l 1
 19 -126 l 1
EndSplineSet
Validated: 1
EndChar

StartChar: asciicircum
Encoding: 94 94 63
Width: 421
Flags: MW
HStem: 646 20G<181 241 241 241>
LayerCount: 2
Fore
SplineSet
68 301 m 1
 0 301 l 1
 181 666 l 1
 241 666 l 1
 422 301 l 1
 354 301 l 1
 211 590 l 1
 68 301 l 1
EndSplineSet
Validated: 1
EndChar

StartChar: underscore
Encoding: 95 95 64
Width: 500
Flags: MW
HStem: -125 50<-23 477 -23 477>
LayerCount: 2
Fore
SplineSet
477 -125 m 1
 -23 -125 l 1
 -23 -75 l 1
 477 -75 l 1
 477 -125 l 1
EndSplineSet
Validated: 1
EndChar

StartChar: grave
Encoding: 96 96 65
Width: 332
Flags: MW
HStem: 644 20G<146 163.5>
LayerCount: 2
Fore
SplineSet
280 492 m 1
 140 598 l 2
 127 608 121 618 121 630 c 0
 121 649 136 664 156 664 c 0
 171 664 182 657 195 641 c 2
 311 492 l 1
 280 492 l 1
EndSplineSet
Validated: 1
EndChar

StartChar: a
Encoding: 97 97 66
Width: 500
Flags: MW
HStem: -11 49<140.5 165> 419 22<251 319 231 327.5>
VStem: 17 84<90.5 157 90.5 174> 297 73<50 50.5>
LayerCount: 2
Fore
SplineSet
476 100 m 1
 445 62 393 -10 339 -10 c 0
 307 -10 297 3 297 33 c 0
 297 68 309 105 318 139 c 1
 316 141 l 1
 271 74 210 -11 120 -11 c 0
 45 -11 17 39 17 107 c 0
 17 241 159 441 303 441 c 0
 335 441 378 423 382 387 c 1
 384 387 l 1
 394 431 l 1
 397 434 l 1
 458 441 l 1
 465 438 l 1
 447 368 370 102 370 54 c 0
 370 46 377 41 384 41 c 0
 401 41 452 98 464 110 c 1
 476 100 l 1
365 352 m 0
 365 388 347 419 308 419 c 0
 194 419 101 205 101 109 c 0
 101 72 120 38 161 38 c 0
 270 38 365 260 365 352 c 0
EndSplineSet
Validated: 1
Substitution2: "'ordn' Ordinals in Latin lookup 14 subtable" ordfeminine
Substitution2: "'ordn' Ordinals in Cyrillic lookup 12 subtable" ordfeminine
Substitution2: "'ordn' Ordinals lookup 10 subtable" ordfeminine
EndChar

StartChar: b
Encoding: 98 98 67
Width: 500
Flags: HMW
HStem: -11 23<144.5 216.5 144.5 231.5> 392 49<311.5 341>
VStem: 388 85<252.5 330.5>
LayerCount: 2
Fore
SplineSet
473 320 m 0
 473 166 310 -11 153 -11 c 0
 110.033846008 -11 22.3968628546 9.9679402189 22.3968628546 41.4584670528 c 0
 22.3968628546 42.9491027358 22.5932307983 44.4633163493 23 46 c 2
 159 547 l 2
 164 565 174 595 174 614 c 0
 174 640.272727273 150.712809917 643.258264463 128.592693464 643.258264463 c 0
 122.08677686 643.258264463 115.681818182 643 110 643 c 1
 110 660 l 1
 161 666 212 673 263 683 c 1
 268 678 l 1
 166 297 l 1
 168 296 l 1
 209 361 269 441 354 441 c 0
 426 441 473 391 473 320 c 0
388 307 m 0
 388 354 367 392 315 392 c 0
 200 392 109 140 109 45 c 0
 109 19 133 12 156 12 c 0
 277 12 388 198 388 307 c 0
EndSplineSet
Validated: 524289
EndChar

StartChar: c
Encoding: 99 99 68
Width: 443
Flags: MW
HStem: -11 36<171.5 219.5> 420 21<253 321>
VStem: 30 86<116.5 200 116.5 219> 338 87<346.5 363>
LayerCount: 2
Fore
SplineSet
425 360 m 0
 425 333 404 314 378 314 c 0
 355 314 338 327 338 351 c 0
 338 375 353 384 353 400 c 0
 353 417 327 420 315 420 c 0
 191 420 116 253 116 147 c 0
 116 86 136 25 207 25 c 0
 265 25 313 65 350 106 c 1
 366 96 l 1
 317 34 261 -11 178 -11 c 0
 77 -11 30 48 30 147 c 0
 30 291 170 441 316 441 c 0
 365 441 425 418 425 360 c 0
EndSplineSet
Validated: 1
EndChar

StartChar: d
Encoding: 100 100 69
Width: 500
Flags: HMW
HStem: -11 48<139.5 160.5> 418 23<254 324 235.5 330>
VStem: 15 87<90.5 158 90.5 171.5> 287 76<18 81>
LayerCount: 2
Fore
SplineSet
527 678 m 1
 506 592 363 100 363 62 c 0
 363 51 369 40 381 40 c 0
 407 40 448 94 463 111 c 1
 475 101 l 1
 451 64 383 -13 334 -13 c 0
 304 -13 287 3 287 33 c 0
 287 60 293 87 299 114 c 1
 297 116 l 1
 255 51 202 -11 119 -11 c 0
 47 -11 15 41 15 107 c 0
 15 236 167 441 304 441 c 0
 344 441 365 425 371 386 c 1
 373 388 l 1
 382 421 431 581 431 614 c 0
 431 640.56097561 407.030339084 643.152290303 384.640748103 643.152290303 c 0
 379.212968471 643.152290303 373.87804878 643 369 643 c 1
 369 660 l 1
 420 665 472 672 522 683 c 1
 527 678 l 1
356 351 m 0
 356 384 351 418 309 418 c 0
 199 418 102 205 102 111 c 0
 102 70 116 37 163 37 c 0
 275 37 356 260 356 351 c 0
EndSplineSet
Validated: 524289
EndChar

StartChar: e
Encoding: 101 101 70
Width: 443
Flags: MW
HStem: -11 45<183.5 198.5> 418 23<285.5 321.5>
VStem: 31 87<97 131.5 97 201> 346 66<363.5 390.5>
LayerCount: 2
Fore
SplineSet
358 109 m 1
 370 97 l 1
 311 30 234 -11 163 -11 c 0
 85 -11 31 45 31 126 c 0
 31 276 188 441 332 441 c 0
 382 441 412 415 412 373 c 0
 412 287 306 211 156 190 c 2
 128 186 l 1
 120 154 118 139 118 124 c 0
 118 70 155 34 212 34 c 0
 255 34 286 50 358 109 c 1
152 252 m 2
 135 208 l 1
 221 229 259 247 296 282 c 0
 327 312 346 348 346 379 c 0
 346 402 332 418 311 418 c 0
 260 418 186 341 152 252 c 2
EndSplineSet
Validated: 1
EndChar

StartChar: f
Encoding: 102 102 71
Width: 277
Flags: MW
HStem: -207 21<-66 -39 -66 -23.5> 396 32<42 125 35 134 211 313> 656 22<305 339.5>
VStem: -147 67<-174.5 -134.5> 345 79<602 620.5>
LayerCount: 2
Fore
SplineSet
-71 -143 m 0
 -71 -158 -80 -160 -80 -170 c 0
 -80 -179 -72 -186 -60 -186 c 0
 -18 -186 15 -131 37 -24 c 2
 125 396 l 1
 35 396 l 1
 42 428 l 1
 134 428 l 1
 167 535 216 678 338 678 c 0
 387 678 424 650 424 613 c 0
 424 591 405 573 382 573 c 0
 360 573 345 589 345 613 c 0
 345 628 355 637 355 644 c 0
 355 651 346 656 333 656 c 0
 277 656 240 585 211 428 c 1
 319 428 l 1
 313 396 l 1
 204 396 l 1
 132 76 l 2
 91 -108 21 -207 -68 -207 c 0
 -112 -207 -147 -180 -147 -146 c 0
 -147 -123 -131 -105 -110 -105 c 0
 -89 -105 -71 -122 -71 -143 c 0
EndSplineSet
Validated: 1
EndChar

StartChar: g
Encoding: 103 103 72
Width: 500
Flags: MW
HStem: -206 22<150 228.5 150 238> 155 17<201.5 271> 366 39<422 472 422 422> 419 22<263.5 314.5>
VStem: 8 55<-114 -70 -114 -69> 96 78<244 293 223.5 317> 325 60<-103.5 -55> 352 79<313.5 318 271 371.5>
LayerCount: 2
Fore
SplineSet
297 441 m 0xfe
 375 441 396 405 411 405 c 2
 472 405 l 1
 472 366 l 1
 422 366 l 1
 428 346 431 326 431 310 c 0xfd
 431 232 337 151 246 151 c 0
 222 151 214 155 208 155 c 0
 195 155 172 129 172 114 c 0
 172 99 198 83 242 72 c 0
 337 47 385 3 385 -60 c 0
 385 -147 301 -206 175 -206 c 0
 74 -206 8 -161 8 -92 c 0
 8 -46 26 -26 125 39 c 1
 106 53 98 65 98 78 c 0
 98 102 116 122 175 162 c 1
 118 188 96 218 96 270 c 0
 96 364 186 441 297 441 c 0xfe
148 28 m 0
 140 28 98 -5 85 -22 c 0
 69 -41 63 -58 63 -82 c 0
 63 -146 110 -184 190 -184 c 0
 267 -184 325 -144 325 -90 c 0
 325 -20 226 2 153 26 c 0
 151 27 149 28 148 28 c 0
234 172 m 0
 308 172 352 279 352 348 c 0
 352 395 333 419 296 419 c 0
 231 419 174 339 174 247 c 0
 174 200 196 172 234 172 c 0
EndSplineSet
Validated: 1
EndChar

StartChar: h
Encoding: 104 104 73
Width: 500
Flags: HMW
HStem: -9 47<318 395.5> 390 51<337.5 349>
VStem: 288 79<52.5 68.5> 370 78<336 371.5>
LayerCount: 2
Fore
SplineSet
478 105 m 1
 444 56 400 -9 333 -9 c 0
 303 -9 288 8 288 37 c 0
 288 100 370 309 370 363 c 0
 370 380 357 390 341 390 c 0
 293 390 213 287 187 249 c 0
 136 174 117 87 94 0 c 1
 19 0 l 1
 151 501 l 2
 157 524 178 595 178 615 c 0
 178 637.052815094 156.153294858 641.533280401 135.697979529 641.533280401 c 0
 126.47136592 641.533280401 117.527840094 640.621699057 111 640 c 1
 111 656 l 1
 164 662 216 671 268 683 c 1
 273 678 l 1
 155 239 l 1
 157 237 l 1
 198 303 295 441 380 441 c 0
 425 441 448 414 448 369 c 0
 448 300 367 116 367 57 c 0
 367 48 373 38 383 38 c 0
 408 38 451 99 465 117 c 1
 478 105 l 1
EndSplineSet
Validated: 524289
EndChar

StartChar: i
Encoding: 105 105 74
Width: 277
Flags: HMW
HStem: -11 47<80 144.5> 551 96<201.5 228.5>
VStem: 49 75<47.5 56 47.5 56> 167 96<585.5 612.5>
LayerCount: 2
Fore
SplineSet
263 599 m 0
 263 572 242 551 215 551 c 0
 188 551 167 572 167 599 c 0
 167 626 188 647 215 647 c 0
 242 647 263 626 263 599 c 0
124 51 m 0
 124 44 132 36 140 36 c 0
 149 36 164 46 181 63 c 0
 191 74 198 82 222 114 c 1
 235 103 l 1
 178 19 141 -11 95 -11 c 0
 65 -11 49 9 49 46 c 0
 49 66 55 97 71 155 c 2
 119 332 l 2
 125 352 128 368 128 376 c 0
 128 396 118 399 65 400 c 1
 65 416 l 1
 104 419 124 422 225 441 c 1
 228 439 l 1
 140 117 l 2
 120 44 124 61 124 51 c 0
EndSplineSet
Validated: 33
Substitution2: "Single Substitution lookup 70 subtable" dotlessi
Ligature2: "'ccmp' Glyph Composition/Decomposition in Latin lookup 8 subtable" i dotabovecomb
EndChar

StartChar: j
Encoding: 106 106 75
Width: 277
Flags: HMW
HStem: -207 23<-44 -18 -44 -1.5> 400 16<73 100 73 73> 554 96<215.5 242.5>
VStem: -124 68<-176.5 -134> 181 96<588.5 615.5>
LayerCount: 2
Fore
SplineSet
277 602 m 0
 277 575 256 554 229 554 c 0
 202 554 181 575 181 602 c 0
 181 629 202 650 229 650 c 0
 256 650 277 629 277 602 c 0
-43 -141 m 0
 -43 -160 -56 -162 -56 -173 c 0
 -56 -180 -50 -184 -38 -184 c 0
 2 -184 25 -140 59 -3 c 2
 131 289 l 2
 142 332 147 359 147 369 c 0
 147 379 144 388 140 392 c 0
 134.929074472 396.225771274 122.7152918 400.451542547 108.18810487 400.451542547 c 0
 105.52649242 400.451542547 102.787223415 400.309691491 100 400 c 2
 73 400 l 1
 73 416 l 1
 104 417 154 425 243 441 c 1
 246 439 l 1
 142 28 l 2
 102 -131 42 -207 -45 -207 c 0
 -91 -207 -124 -181 -124 -146 c 0
 -124 -122 -107 -104 -84 -104 c 0
 -61 -104 -43 -120 -43 -141 c 0
EndSplineSet
Validated: 524289
Substitution2: "Single Substitution lookup 70 subtable" j.dotless
EndChar

StartChar: k
Encoding: 107 107 76
Width: 443
Flags: HMW
HStem: -11 52<303.5 361.5> 412 16<278 294 278 461 278 461>
LayerCount: 2
Fore
SplineSet
174 615 m 2
 174.420798329 616.514873984 174.629111177 617.958919474 174.629111177 619.332732561 c 0
 174.629111177 633.378708131 152.853789628 640.083162655 113.762612196 640.083162655 c 0
 111.24642045 640.083162655 108.658486631 640.055385138 106 640 c 1
 106 656 l 1
 165 663 203 670 262 683 c 1
 267 678 l 1
 147 221 l 1
 164 233 176 243 190 254 c 0
 283 325 333 374 333 394 c 0
 333 405 319 412 294 412 c 2
 278 412 l 1
 278 428 l 1
 461 428 l 1
 461 412 l 1
 414 409 383 389 236 258 c 1
 253 219 268 183 273 170 c 0
 312 74 333 41 354 41 c 0
 369 41 381 52 399 83 c 2
 414 109 l 1
 429 98 l 1
 384 14 358 -11 318 -11 c 0
 289 -11 271 8 239 71 c 0
 221 107 195 168 179 212 c 1
 137 180 l 1
 89 0 l 1
 14 0 l 1
 174 615 l 2
EndSplineSet
Validated: 524289
EndChar

StartChar: l
Encoding: 108 108 77
Width: 277
Flags: MW
HStem: -11 43<73 141>
VStem: 40 77<44.5 47.5>
LayerCount: 2
Fore
SplineSet
228 123 m 1
 241 114 l 1
 176 18 141 -11 89 -11 c 0
 57 -11 40 9 40 45 c 0
 40 50 42 60 45 71 c 2
 182 599 l 2
 185 608 186 614 186 617 c 0
 186 633 166 640 118 640 c 1
 118 656 l 1
 177 663 215 670 274 683 c 1
 279 678 l 1
 128 99 l 2
 127 97 117 60 117 50 c 0
 117 39 122 32 132 32 c 0
 150 32 169 47 201 89 c 0
 210 101 219 112 228 123 c 1
EndSplineSet
Validated: 1
EndChar

StartChar: m
Encoding: 109 109 78
Width: 721
Flags: MW
HStem: -9 47<542 611.5> 389 52<566 578.5>
VStem: 354 77<371.5 372> 515 76<22 56.5> 593 79<365.5 396>
LayerCount: 2
Fore
SplineSet
391 229 m 1
 420 275 519 441 613 441 c 0
 647 441 672 414 672 378 c 0
 672 372 670 354 669 350 c 2
 601 99 l 2
 595 75 591 59 591 54 c 0
 591 44 596 38 604 38 c 0
 619 38 640 55 668 91 c 0
 671 95 679 105 689 117 c 1
 704 105 l 1
 661 45 615 -9 555 -9 c 0
 529 -9 515 7 515 37 c 0
 515 47 519 66 528 103 c 2
 586 333 l 2
 591 351 593 363 593 368 c 0
 593 379 584 389 573 389 c 0
 544 389 494 345 445 277 c 0
 394 206 374 156 334 0 c 1
 259 0 l 1
 322 234 354 355 354 364 c 0
 354 380 347 389 334 389 c 0
 300 389 240 333 184 248 c 0
 150 196 135 159 87 0 c 1
 12 0 l 1
 25 51 110 350 110 350 c 2
 112 357 112 361 112 367 c 0
 112 387 97 394 71 394 c 2
 46 394 l 1
 46 410 l 1
 129 425 150 429 206 441 c 1
 209 439 l 1
 151 230 l 1
 243 375 313 441 374 441 c 0
 408 441 431 416 431 381 c 0
 431 362 416 305 391 229 c 1
EndSplineSet
Validated: 1
EndChar

StartChar: n
Encoding: 110 110 79
Width: 500
Flags: MW
HStem: -9 47<317.5 385> 390 51<344 344.5>
VStem: 287 75<26 57.5> 361 81<355 398>
LayerCount: 2
Fore
SplineSet
460 117 m 1xe0
 474 104 l 1
 405 12 379 -9 334 -9 c 0
 301 -9 287 7 287 45 c 0xe0
 287 55 290 69 303 120 c 2
 347 285 l 2
 355 316 361 349 361 361 c 0
 361 379 352 390 337 390 c 0
 300 390 249 340 189 248 c 0
 145 180 136 158 89 0 c 1
 14 0 l 1
 110 350 l 2
 111 355 112 361 112 367 c 0
 112 387 99 393 48 394 c 1
 48 410 l 1
 135 426 156 430 210 441 c 1
 213 439 l 1
 146 221 l 1
 249 381 312 441 376 441 c 0
 415 441 442 416 442 380 c 0xd0
 442 366 438 344 433 323 c 2
 376 117 l 2
 362 61 362 61 362 54 c 0
 362 46 370 38 378 38 c 0
 392 38 410 54 439 91 c 2
 460 117 l 1xe0
EndSplineSet
Validated: 1
EndChar

StartChar: o
Encoding: 111 111 80
Width: 500
Flags: MW
HStem: -11 21<163.5 248> 420 21<253.5 340>
VStem: 27 84<85.5 153 78 205.5> 384 84<275.5 339 224.5 346>
LayerCount: 2
Fore
SplineSet
468 293 m 0
 468 156 318 -11 178 -11 c 0
 85 -11 27 38 27 133 c 0
 27 278 173 441 321 441 c 0
 414 441 468 385 468 293 c 0
384 324 m 0
 384 368 366 420 314 420 c 0
 193 420 111 203 111 103 c 0
 111 53 136 10 191 10 c 0
 310 10 384 227 384 324 c 0
EndSplineSet
Validated: 1
Substitution2: "'ordn' Ordinals in Latin lookup 14 subtable" ordmasculine
Substitution2: "'ordn' Ordinals in Cyrillic lookup 12 subtable" ordmasculine
Substitution2: "'ordn' Ordinals lookup 10 subtable" ordmasculine
EndChar

StartChar: p
Encoding: 112 112 81
Width: 500
Flags: HMW
HStem: -205 15<106.5 130 106.5 130> -11 19<157.5 229.5 151 242> 398 43<321.5 336.5>
VStem: 379 90<257.5 341>
LayerCount: 2
Fore
SplineSet
121 377 m 0
 121 393 97 404 79 404 c 2
 56 404 l 1
 54 419 l 1
 54 419 211 442 211 441 c 1
 213 441 215 437 215 437 c 1
 183 328 l 1
 241 409 289 441 354 441 c 0
 425 441 469 394 469 316 c 0
 469 157 315 -11 169 -11 c 0
 146 -11 128 -7 103 6 c 1
 83 -68 66 -146 66 -160 c 0
 66 -181 83 -190 130 -190 c 1
 130 -205 l 1
 -75 -205 l 1
 -75 -189 l 1
 -32 -188 -19 -176 -8 -130 c 0
 -1 -101 121 368 121 377 c 0
165 8 m 0
 294 8 379 203 379 312 c 0
 379 370 356 398 317 398 c 0
 264 398 209 352 182 284 c 0
 153 210 117 79 117 45 c 0
 117 23 137 8 165 8 c 0
EndSplineSet
Validated: 33
EndChar

StartChar: q
Encoding: 113 113 82
Width: 500
Flags: MW
HStem: -209 18<374 391 374 391> -11 53<150 162.5> 419 22<275 337.5>
VStem: 25 86<95.5 176.5 95.5 181>
LayerCount: 2
Fore
SplineSet
391 -191 m 1
 391 -209 l 1
 150 -209 l 1
 150 -193 l 1
 215 -188 231 -180 244 -140 c 2
 333 153 l 1
 244 26 198 -11 127 -11 c 0
 64 -11 25 34 25 105 c 0
 25 257 186 441 318 441 c 0
 359 441 379 425 395 379 c 1
 410 426 l 1
 483 426 l 1
 319 -151 l 2
 318 -155 317 -159 317 -162 c 0
 317 -182 337 -191 374 -191 c 2
 391 -191 l 1
321 419 m 0
 229 419 111 234 111 119 c 0
 111 72 133 42 167 42 c 0
 191 42 218 54 244 76 c 0
 312 133 380 275 380 358 c 0
 380 392 354 419 321 419 c 0
EndSplineSet
Validated: 1
EndChar

StartChar: r
Encoding: 114 114 83
Width: 388
Flags: HMW
HStem: 0 21G<45 121 45 45> 340 101<344 379>
LayerCount: 2
Fore
SplineSet
366 340 m 0
 322 340 336 376 314 376 c 0
 297 376 269 345 236 289 c 0
 190 213 173 170 121 0 c 1
 45 0 l 1
 126 292 l 2
 140.44 342.92 142.1728 355.7184 142.1728 365.074304 c 0
 142.1728 368.0288 142 370.64 142 374 c 0
 142 392 129 402 107 402 c 0
 100 402 97 402 73 397 c 1
 73 414 l 1
 146 426 155 428 228 441 c 1
 231 439 l 1
 178 222 l 1
 192 258 l 2
 209 301 296 441 365 441 c 0
 393 441 412 420 412 389 c 0
 412 358 395 340 366 340 c 0
EndSplineSet
Validated: 524289
EndChar

StartChar: s
Encoding: 115 115 84
Width: 388
Flags: MW
HStem: -11 21<140.5 176 126.5 202> 418 23<220.5 248.5 193.5 264>
VStem: 109 73<327 364.5> 228 76<81 101.5>
LayerCount: 2
Fore
SplineSet
160 -11 m 0
 121 -11 89 8 56 8 c 0
 46 8 40 3 32 -13 c 1
 16 -13 l 1
 36 146 l 1
 52 146 l 1
 68 51 99 10 154 10 c 0
 198 10 228 42 228 87 c 0
 228 116 211 151 172 202 c 0
 130 256 109 299 109 331 c 0
 109 398 157 441 230 441 c 0
 267 441 300 424 322 424 c 0
 336 424 344 428 352 442 c 1
 366 442 l 1
 346 303 l 1
 330 303 l 1
 320 381 290 418 238 418 c 0
 203 418 182 397 182 364 c 0
 182 290 304 215 304 119 c 0
 304 43 244 -11 160 -11 c 0
EndSplineSet
Validated: 1
EndChar

StartChar: t
Encoding: 116 116 85
Width: 277
Flags: MW
HStem: -11 49<71.5 141> 396 32<216 291 207 296>
LayerCount: 2
Fore
SplineSet
216 428 m 1
 296 428 l 1
 291 396 l 1
 207 396 l 1
 119 63 l 2
 118 60 115 38 133 38 c 0
 149 38 165 54 214 117 c 1
 227 110 l 1
 164 17 131 -11 85 -11 c 0
 58 -11 37 5 37 27 c 0
 37 35 45 70 54 100 c 2
 132 396 l 1
 58 396 l 2
 57 399 57 401 57 402 c 0
 57 413 64 419 89 427 c 0
 121 436 183 486 222 537 c 0
 228 545 231 546 237 546 c 0
 242 546 245 543 245 536 c 0
 245 535 216 428 216 428 c 1
EndSplineSet
Validated: 1
EndChar

StartChar: u
Encoding: 117 117 86
Width: 500
Flags: MW
HStem: -11 53<77.5 156> 412 20G<391 465 465 465>
VStem: 42 77<26 69> 289 78<24 58>
LayerCount: 2
Fore
SplineSet
118 376 m 0
 118 396 99 400 58 400 c 1
 58 414 l 1
 115 421 151 428 208 441 c 1
 211 439 l 1
 120 76 l 2
 119 73 119 71 119 67 c 0
 119 52 128 42 140 42 c 0
 172 42 221 93 281 188 c 0
 327 261 334 277 391 432 c 1
 465 432 l 1
 386 133 l 2
 367 61 367 61 367 55 c 0
 367 44 371 38 378 38 c 0
 394 38 409 52 461 117 c 1
 475 108 l 1
 407 11 384 -9 337 -9 c 0
 307 -9 289 9 289 39 c 0
 289 60 305 129 334 236 c 1
 219 43 166 -11 95 -11 c 0
 60 -11 42 8 42 44 c 0
 42 62 49 96 67 167 c 2
 104 309 l 2
 113 343 118 368 118 376 c 0
EndSplineSet
Validated: 1
EndChar

StartChar: v
Encoding: 118 118 87
Width: 443
Flags: MW
HStem: -18 21G<141.5 157.5> 421 20G<149.5 156.5 359 385>
VStem: 333 93<363.5 417.5>
LayerCount: 2
Fore
SplineSet
21 403 m 1
 21 416 l 1
 59 422 114 432 132 437 c 0
 140 440 147 441 152 441 c 0
 161 441 161 439 181 337 c 0
 194 263 200 211 207 70 c 1
 238 102 l 2
 309 176 375 287 375 333 c 0
 375 343 370 351 357 363 c 0
 339 379 333 391 333 407 c 0
 333 428 348 441 370 441 c 0
 400 441 426 414 426 382 c 0
 426 345 400 280 365 230 c 0
 263 88 170 -18 145 -18 c 0
 138 -18 136 -11 136 17 c 0
 136 75 124 226 114 295 c 0
 100 387 90 404 51 404 c 0
 40 404 32 404 21 403 c 1
EndSplineSet
Validated: 1
EndChar

StartChar: w
Encoding: 119 119 88
Width: 666
Flags: HMW
HStem: -18 21G<129.5 139.5 378.5 387.5> 404 17<16 42>
VStem: 557 91<391 404 357 417.5>
LayerCount: 2
Fore
SplineSet
600 334 m 0
 600 365 557 375 557 407 c 0
 557 428 572 441 596 441 c 0
 626 441 648 419 648 389 c 0
 648 325 572 199 436 36 c 0
 416 11 393 -18 382 -18 c 0
 375 -18 373 -15 371 12 c 2
 342 331 l 1
 253 175 l 2
 223 122 203 87 198 76 c 0
 162 7 145 -18 134 -18 c 0
 125 -18 123 -10 121 29 c 2
 117 117 l 2
 114 196 102 302 90 359 c 0
 83.5540933831 393.992064492 74.5643268409 405.241436347 51.3182121413 405.241436347 c 0
 49.3199643999 405.241436347 47.2163735325 405.158312395 45 405 c 0
 40 404 37 404 36 404 c 2
 16 404 l 1
 16 417 l 1
 28 419 38 421 42 421 c 0
 121 433 123 441 140 441 c 0
 152 441 154 433 165 371 c 0
 176 301 187 196 190 126 c 1
 382 430 l 2
 387 438 390 440 395 440 c 0
 401 440 403 437 403 426 c 2
 435 74 l 1
 566 237 600 291 600 334 c 0
EndSplineSet
Validated: 524289
EndChar

StartChar: x
Encoding: 120 120 89
Width: 443
Flags: MW
HStem: -11 55<278 339.5> -11 77<8 18.5 -2.5 38.5> 385 56 404 37
LayerCount: 2
Fore
SplineSet
412 368 m 0x50
 392 368 379 385 361 385 c 0
 343 385 307 341 263 264 c 1
 263 249 300 94 303 85 c 0
 310 57 319 44 334 44 c 0xa0
 345 44 357 54 380 84 c 0
 389 96 394 102 402 111 c 1
 416 103 l 1
 358 13 332 -11 294 -11 c 0
 262 -11 249 5 236 56 c 2
 206 176 l 1
 164 118 143 91 116 59 c 0
 66 -2 54 -11 23 -11 c 0
 -7 -11 -27 5 -27 31 c 0
 -27 51 -12 66 7 66 c 0
 30 66 47 47 65 47 c 0
 76 47 96 65 116 95 c 2
 198 212 l 1
 169 335 l 2
 155 395 149 404 124 404 c 0
 115 404 106 402 68 393 c 1
 64 408 l 1
 75 412 l 2
 136 432 170 441 192 441 c 0
 219 441 230 421 244 353 c 2
 255 298 l 1
 324 405 362 441 406 441 c 0
 430 441 447 425 447 404 c 0
 447 383 433 368 412 368 c 0x50
EndSplineSet
Validated: 1
EndChar

StartChar: y
Encoding: 121 121 90
Width: 443
Flags: HMW
HStem: -206 83<12.5 26.5 4 59> 404 36
VStem: 332 94<383.5 401 361.5 415>
LayerCount: 2
Fore
SplineSet
158 441 m 2
 158.045009247 441.003000616 158.090387646 441.004497615 158.136132982 441.004497615 c 0
 173.335699895 441.004497615 229.045009247 275.735945749 244 188 c 2
 264 72 l 1
 349 213 386 291 386 331 c 0
 386 368 332 363 332 404 c 0
 332 426 348 441 371 441 c 0
 401 441 426 416 426 386 c 0
 426 337 398 265 330 142 c 0
 222 -56 91 -206 27 -206 c 0
 -2 -206 -24 -187 -24 -162 c 0
 -24 -140 -7 -123 15 -123 c 0
 38 -123 62 -151 76 -151 c 0
 99 -151 120 -127 184 -42 c 0
 199 -24 205 -8 205 8 c 0
 205 25 181 142 164 207 c 0
 118 379 103 404 46 404 c 0
 35 404 28 403 15 400 c 1
 15 417 l 1
 26 419 118 437 145 440 c 0
 149 440 158 441 158 441 c 2
EndSplineSet
Validated: 524289
EndChar

StartChar: z
Encoding: 122 122 91
Width: 388
Flags: MW
HStem: -81 21<268.5 289 268.5 294> 368 60<138.5 162 162 308>
VStem: 294 69<-10 5.5 -25 9>
LayerCount: 2
Fore
SplineSet
269 -81 m 0
 193 -81 122 5 53 5 c 0
 36 5 23 0 7 -13 c 1
 -2 -4 l 1
 308 368 l 1
 162 368 l 2
 115 368 102 359 81 309 c 1
 65 313 l 1
 96 428 l 1
 380 428 l 1
 380 417 l 1
 90 73 l 1
 148 60 167 47 211 -10 c 0
 244 -52 256 -60 281 -60 c 0
 297 -60 308 -54 308 -45 c 0
 308 -35 294 -20 294 0 c 0
 294 18 308 31 328 31 c 0
 349 31 363 16 363 -5 c 0
 363 -45 319 -81 269 -81 c 0
EndSplineSet
Validated: 1
EndChar

StartChar: braceleft
Encoding: 123 123 92
Width: 399
Flags: MW
VStem: 51 75<-118.5 -92.5 -118.5 -87.5> 117 75<186 205.5 183 212.5>
LayerCount: 2
Fore
SplineSet
407 687 m 1x40
 404 676 l 1
 342 660 316 631 295 552 c 2
 250 384 l 2
 228 301 202 272 137 255 c 1
 176 238 192 219 192 192 c 0x40
 192 174 174 97 148 2 c 0
 132 -58 126 -85 126 -100 c 0
 126 -137 141 -155 179 -166 c 1
 176 -177 l 1
 84 -174 51 -154 51 -99 c 0x80
 51 -76 61 -30 83 45 c 0
 105 121 117 174 117 198 c 0
 117 227 104 241 65 255 c 1
 129 272 151 296 170 369 c 2
 218 547 l 2
 249 653 294 687 407 687 c 1x40
EndSplineSet
Validated: 1
EndChar

StartChar: bar
Encoding: 124 124 93
Width: 274
Flags: MW
HStem: -18 21G<105 105 105 171> 646 20G<105 171 171 171>
VStem: 105 66<-18 666 -18 666>
LayerCount: 2
Fore
SplineSet
105 -18 m 1
 105 666 l 1
 171 666 l 1
 171 -18 l 1
 105 -18 l 1
EndSplineSet
Validated: 1
EndChar

StartChar: braceright
Encoding: 125 125 94
Width: 399
Flags: MW
VStem: 208 75<304.5 324 297.5 327> 274 75<602.5 627.5>
LayerCount: 2
Fore
SplineSet
221 676 m 1x40
 224 687 l 1
 315 684 349 663 349 609 c 0x40
 349 587 338 539 317 465 c 0
 294 388 283 336 283 312 c 0
 283 283 296 269 335 255 c 1
 271 238 249 214 230 141 c 2
 182 -37 l 2
 151 -143 105 -177 -7 -177 c 1
 -4 -166 l 1
 58 -150 84 -121 105 -42 c 2
 150 126 l 2
 172 209 197 238 263 255 c 1
 224 272 208 291 208 318 c 0x80
 208 336 225 412 252 508 c 0
 267 565 274 596 274 609 c 0
 274 646 259 665 221 676 c 1x40
EndSplineSet
Validated: 1
EndChar

StartChar: asciitilde
Encoding: 126 126 95
Width: 540
Flags: MW
HStem: 186 66<363.5 389.5 363.5 402> 254 66<152.5 178.5>
LayerCount: 2
Fore
SplineSet
448 303 m 1
 502 271 l 1
 456 207 425 186 379 186 c 0
 334 186 316 192 227 240 c 0
 210 249 189 254 168 254 c 0
 137 254 120 242 94 203 c 1
 40 235 l 1
 86 299 117 320 163 320 c 0
 208 320 226 314 315 266 c 0
 332 257 353 252 374 252 c 0
 405 252 422 264 448 303 c 1
EndSplineSet
Validated: 1
EndChar

StartChar: exclamdown
Encoding: 161 161 96
Width: 388
Flags: MW
HStem: -205 21G<86 117> 368 106<255 282.5>
VStem: 215 106<407.5 435 406 436>
LayerCount: 2
Fore
SplineSet
224 285 m 1
 241 281 l 1
 205 118 188 29 169 -89 c 0
 155 -172 135 -205 99 -205 c 0
 73 -205 59 -188 59 -154 c 0
 59 -124 69 -93 97 -31 c 0
 135 52 171 140 224 285 c 1
270 474 m 0
 299 474 321 451 321 419 c 0
 321 393 296 368 269 368 c 0
 240 368 215 393 215 422 c 0
 215 450 240 474 270 474 c 0
EndSplineSet
Validated: 1
EndChar

StartChar: cent
Encoding: 162 162 97
Width: 500
Flags: MW
HStem: -11 36<247 263>
VStem: 77 86<116.5 171 116.5 190> 385 87<347 356.5>
LayerCount: 2
Fore
SplineSet
414 560 m 1
 372 440 l 1
 407 437 423 432 442 418 c 0
 460 404 472 382 472 360 c 0
 472 334 452 314 424 314 c 0
 400 314 385 328 385 352 c 0
 385 361 387 368 394 381 c 0
 398 390 400 395 400 400 c 0
 400 412 388 419 365 420 c 1
 228 29 l 1
 236 26 242 25 252 25 c 0
 303 25 341 47 397 106 c 1
 413 96 l 1
 353 21 299 -11 227 -11 c 0
 222 -11 220 -11 215 -10 c 1
 168 -143 l 1
 137 -143 l 1
 185 -7 l 1
 158 -1 144 5 129 17 c 0
 96 42 77 86 77 140 c 0
 77 240 135 339 228 399 c 0
 265 423 290 432 342 440 c 1
 384 560 l 1
 414 560 l 1
202 41 m 1
 334 417 l 1
 282 402 254 380 219 328 c 0
 184 275 163 203 163 139 c 0
 163 94 175 64 202 41 c 1
EndSplineSet
Validated: 1
EndChar

StartChar: sterling
Encoding: 163 163 98
Width: 500
Flags: MW
HStem: -6 22<63 90 63 92.5> -6 72<336 348.5> 98 28<76.5 96.5> 319 42<81 185 72 191 280 396> 641 29<397 414>
VStem: 10 22<42.5 66.5 42.5 78>
LayerCount: 2
Fore
SplineSet
396 319 m 1xbc
 270 319 l 1
 244 209 238 193 197 104 c 1
 268 77 315 66 357 66 c 0
 386 66 408 73 436 93 c 2
 446 100 l 1
 457 91 l 1
 432 29 382 -6 315 -6 c 0x7c
 266 -6 235 8 171 57 c 1
 132 8 110 -6 75 -6 c 0
 36 -6 10 20 10 58 c 0
 10 98 49 126 104 126 c 0
 119 126 120 126 160 115 c 1
 185 319 l 1
 72 319 l 1
 81 361 l 1
 191 361 l 1
 211 474 232 529 282 594 c 0
 320 643 370 670 424 670 c 0
 479 670 517 639 517 594 c 0
 517 567 503 553 478 553 c 0
 454 553 447 562 442 597 c 0
 437 628 426 641 402 641 c 0
 345 641 322 587 280 361 c 1
 403 361 l 1
 396 319 l 1xbc
146 73 m 1
 116 94 107 98 86 98 c 0
 54 98 32 80 32 53 c 0
 32 32 51 16 75 16 c 0
 105 16 134 39 146 73 c 1
EndSplineSet
Validated: 1
EndChar

StartChar: currency
Encoding: 164 164 99
Width: 500
Flags: MW
HStem: 110 64<228 274.5> 476 64<227.5 275 227.5 292.5>
VStem: 35 68<301.5 349> 397 68<302.5 349.5 302.5 367>
LayerCount: 2
Fore
SplineSet
-22 103 m 1
 76 199 l 1
 47 241 35 278 35 325 c 0
 35 373 47 411 76 451 c 1
 -22 549 l 1
 28 597 l 1
 124 501 l 1
 167 529 204 540 251 540 c 0
 299 540 338 528 376 501 c 1
 474 597 l 1
 522 549 l 1
 426 451 l 1
 453 410 465 373 465 326 c 0
 465 279 454 242 426 199 c 1
 522 103 l 1
 474 53 l 1
 376 151 l 1
 337 123 298 110 251 110 c 0
 205 110 166 123 124 151 c 1
 28 53 l 1
 -22 103 l 1
253 476 m 0
 170 476 103 410 103 327 c 0
 103 242 169 174 251 174 c 0
 332 174 397 241 397 326 c 0
 397 408 332 476 253 476 c 0
EndSplineSet
Validated: 1
EndChar

StartChar: yen
Encoding: 165 165 100
Width: 500
Flags: MW
HStem: 0 21G<52 337 52 52> 182 40<39 192 27 203 288 456> 312 40<72 212 72 223 60 212 349 488> 633 20G<61 300 300 300 414 603 603 603>
LayerCount: 2
Fore
SplineSet
456 182 m 1
 276 182 l 1
 251 103 245 79 245 57 c 0
 245 31 258 21 299 19 c 0
 305 18 320 17 337 16 c 1
 337 0 l 1
 52 0 l 1
 56 16 l 1
 119 20 148 39 165 90 c 2
 192 182 l 1
 27 182 l 1
 39 222 l 1
 203 222 l 1
 226 302 l 1
 223 312 l 1
 60 312 l 1
 72 352 l 1
 212 352 l 1
 149 571 l 2
 132 625 127 629 61 637 c 1
 61 653 l 1
 300 653 l 1
 300 637 l 1
 236 631 225 626 225 601 c 0
 225 586 236 543 264 447 c 2
 293 347 l 1
 308 364 312 370 321 380 c 0
 434 511 483 578 483 606 c 0
 483 623 470 631 441 634 c 0
 436 635 426 636 414 637 c 1
 414 653 l 1
 603 653 l 1
 603 637 l 1
 571 623 562 616 530 576 c 2
 349 352 l 1
 500 352 l 1
 488 312 l 1
 318 312 l 1
 312 304 l 1
 288 222 l 1
 468 222 l 1
 456 182 l 1
EndSplineSet
Validated: 1
EndChar

StartChar: brokenbar
Encoding: 166 166 101
Width: 274
Flags: MW
HStem: -18 21G<105 105 105 171> 646 20G<105 171 171 171>
VStem: 105 66<-18 257 -18 257 391 666>
LayerCount: 2
Fore
SplineSet
105 -18 m 1
 105 257 l 1
 171 257 l 1
 171 -18 l 1
 105 -18 l 1
105 391 m 1
 105 666 l 1
 171 666 l 1
 171 391 l 1
 105 391 l 1
EndSplineSet
Validated: 1
EndChar

StartChar: section
Encoding: 167 167 102
Width: 500
Flags: MW
HStem: -162 21<166.5 215 166.5 233> 100 21<310 329.5 283 352> 388 21<195 204.5 167 229.5> 645 21<308.5 354>
VStem: 53 61<-114 -36.5> 90 57<286.5 319.5> 184 61<549 577.5> 287 58<-64 -36> 363 98<550 564> 377 58<188.5 209>
LayerCount: 2
Fore
SplineSet
249 398 m 1xf7
 251 401 l 1
 201 462 184 497 184 541 c 0
 184 614 245 666 331 666 c 0
 407 666 461 625 461 567 c 0
 461 533 441 512 409 512 c 0
 382 512 363 531 363 557 c 0xf780
 363 571 369 582 384 595 c 0
 393 603 397 609 397 614 c 0
 397 631 371 645 337 645 c 0
 280 645 245 613 245 562 c 0
 245 536 254 510 271 490 c 2
 394 340 l 2
 420 308 435 267 435 226 c 0
 435 151 387 100 317 100 c 0
 303 100 296 102 284 107 c 1
 282 104 l 1
 335 36 345 15 345 -25 c 0
 345 -103 277 -162 189 -162 c 0
 113 -162 53 -115 53 -54 c 0
 53 -19 74 2 109 2 c 0
 138 2 156 -14 156 -41 c 0
 156 -63 149 -74 129 -87 c 0
 118 -94 114 -98 114 -104 c 0xfb40
 114 -124 148 -141 185 -141 c 0
 245 -141 287 -104 287 -51 c 0
 287 -21 275 3 237 46 c 2
 161 133 l 2
 114 186 90 239 90 286 c 0
 90 353 138 409 196 409 c 0
 213 409 232 405 249 398 c 1xf7
213 388 m 0
 177 388 147 359 147 322 c 0
 147 251 254 121 312 121 c 0
 347 121 377 154 377 192 c 0xf740
 377 226 363 256 320 312 c 0
 281 363 246 388 213 388 c 0
EndSplineSet
Validated: 1
EndChar

StartChar: dieresis
Encoding: 168 168 103
Width: 332
Flags: MW
HStem: 508 98<143 169.5 143 169.5 343 369.5>
VStem: 107 98<544 569.5 543.5 571> 307 98<544 569.5 543.5 571>
LayerCount: 2
Fore
SplineSet
157 606 m 0
 182 606 205 582 205 557 c 0
 205 530 183 508 156 508 c 0
 129 508 107 530 107 558 c 0
 107 584 129 606 157 606 c 0
357 606 m 0
 382 606 405 582 405 557 c 0
 405 530 383 508 356 508 c 0
 329 508 307 530 307 558 c 0
 307 584 329 606 357 606 c 0
EndSplineSet
Validated: 1
EndChar

StartChar: copyright
Encoding: 169 169 104
Width: 759
Flags: MW
HStem: -18 42<303.5 457.5 303.5 475> 136 20<364 416.5> 503 20<362 424.5 344.5 437.5> 624 42<303.5 459.5>
VStem: 41 55<241.5 405 241.5 418> 191 77<275 382> 664 55<239.5 403.5>
LayerCount: 2
Fore
SplineSet
529 240 m 1
 545 240 l 1
 530 172 l 2
 528 161 525 159 511 155 c 0
 461 140 435 136 398 136 c 0
 272 136 191 209 191 323 c 0
 191 441 280 523 409 523 c 0
 440 523 467 518 499 508 c 2
 504 506 l 1
 508 505 l 2
 521 501 529 493 529 484 c 2
 529 415 l 1
 513 415 l 1
 503 474 468 503 407 503 c 0
 317 503 268 442 268 331 c 0
 268 219 319 156 409 156 c 0
 466 156 501 181 529 240 c 1
380 666 m 0
 572 666 719 515 719 318 c 0
 719 133 568 -18 382 -18 c 0
 192 -18 41 133 41 323 c 0
 41 513 192 666 380 666 c 0
381 624 m 0
 226 624 96 487 96 323 c 0
 96 160 226 24 381 24 c 0
 534 24 664 160 664 319 c 0
 664 488 538 624 381 624 c 0
EndSplineSet
Validated: 1
EndChar

StartChar: ordfeminine
Encoding: 170 170 105
Width: 275
Flags: HMW
HStem: 406 34<136.5 144.5> 443 21G<297 298.5> 656 20G<187 248>
VStem: 42 73<470 517 470 522.5> 229 65<424 450>
LayerCount: 2
Fore
SplineSet
299 673 m 1
 352 675 l 1
 319 559 302 493 298 472 c 2
 295 457 l 2
 294 454 294 451 294 449 c 0
 294 446 296 443 298 443 c 0
 299 443 300 443 301 444 c 2
 307 447 l 2
 308 447 319 457 329 467 c 0
 331 470 337 476 343 482 c 1
 350 472 l 1
 301 417 286 406 260 406 c 0
 241 406 229 416 229 432 c 0
 229 448 232 458 246 493 c 1
 197 425 169 406 120 406 c 0
 72 406 42 433 42 476 c 0
 42 569 143 676 231 676 c 0
 265 676 285 665 290 641 c 1
 297 671 l 1
 299 673 l 1
250 658 m 0
 248.456612066 658.21183756 246.88300209 658.315608427 245.282412728 658.315608427 c 0
 193.9928274 658.315608427 115 551.76057437 115 480 c 0
 115 460 129 440 144 440 c 0
 168 440 196 460 221 496 c 0
 247 535 269 590 269 620 c 0
 269 641 261 656 250 658 c 0
EndSplineSet
Validated: 524289
EndChar

StartChar: guillemotleft
Encoding: 171 171 106
Width: 500
Flags: MW
HStem: 37 366<194.5 278 270.5 367>
VStem: 53 392<216 397.5 225 397.5>
LayerCount: 2
Fore
SplineSet
53 216 m 1
 53 225 l 1
 82 248 134 286 165 313 c 0
 197 341 266 403 275 403 c 0
 281 403 283 400 283 395 c 0
 283 378 253 347 127 217 c 1
 158 156 209 56 209 45 c 0
 209 43 209 37 201 37 c 0
 188 37 135 115 120 132 c 0
 104 150 60 204 53 216 c 1
215 216 m 1
 215 225 l 1
 244 248 296 286 327 313 c 0
 359 341 428 403 437 403 c 0
 443 403 445 400 445 395 c 0
 445 378 415 347 289 217 c 1
 320 156 371 56 371 45 c 0
 371 43 371 37 363 37 c 0
 350 37 297 115 282 132 c 0
 266 150 222 204 215 216 c 1
EndSplineSet
Validated: 1
Substitution2: "'locl' Localized Forms in Greek lookup 31 subtable" uniEB0E
Substitution2: "'aalt' Access All Alternates lookup 0 subtable" uniEB0E
EndChar

StartChar: logicalnot
Encoding: 172 172 107
Width: 674
Flags: MW
HStem: 320 66<86 524 86 590>
VStem: 524 66<108 320 320 320>
LayerCount: 2
Fore
SplineSet
524 108 m 1
 524 320 l 1
 86 320 l 1
 86 386 l 1
 590 386 l 1
 590 108 l 1
 524 108 l 1
EndSplineSet
Validated: 1
EndChar

StartChar: uni00AD
Encoding: 173 173 108
Width: 332
Flags: MW
HStem: 192 63<63 269 49 282>
LayerCount: 2
Fore
SplineSet
282 255 m 1
 269 192 l 1
 49 192 l 1
 63 255 l 1
 282 255 l 1
EndSplineSet
Validated: 1
EndChar

StartChar: registered
Encoding: 174 174 109
Width: 759
Flags: MW
HStem: -18 42<303.5 457.5 303.5 475> 307 18<333 375 375 380 333 375> 492 19<333 333 333 374> 624 42<303.5 459.5>
VStem: 41 55<241.5 405 241.5 418> 269 64<209 307 325 448 448 469.5> 443 67<396.5 439.5> 664 55<239.5 403.5>
LayerCount: 2
Fore
SplineSet
221 496 m 1
 221 511 l 1
 396 511 l 2
 466 511 510 475 510 420 c 0
 510 373 483 338 431 317 c 1
 488 239 l 2
 519 197 543 170 563 155 c 1
 563 146 l 1
 500 146 l 2
 483 146 466 165 431 225 c 0
 414 255 404 271 380 307 c 1
 333 307 l 1
 333 209 l 2
 333 166 333 166 381 161 c 1
 381 146 l 1
 221 146 l 1
 221 161 l 1
 269 166 269 166 269 209 c 2
 269 448 l 2
 269 491 269 491 221 496 c 1
333 492 m 1
 333 325 l 1
 375 325 l 2
 419 325 443 357 443 414 c 0
 443 465 419 492 374 492 c 2
 333 492 l 1
380 666 m 0
 572 666 719 515 719 318 c 0
 719 133 568 -18 382 -18 c 0
 192 -18 41 133 41 323 c 0
 41 513 192 666 380 666 c 0
381 624 m 0
 226 624 96 487 96 323 c 0
 96 160 226 24 381 24 c 0
 534 24 664 160 664 319 c 0
 664 488 538 624 381 624 c 0
EndSplineSet
Validated: 1
EndChar

StartChar: macron
Encoding: 175 175 110
Width: 332
Flags: MW
HStem: 532 54<106 403 92 417>
LayerCount: 2
Fore
SplineSet
417 586 m 1
 403 532 l 1
 92 532 l 1
 106 586 l 1
 417 586 l 1
EndSplineSet
Validated: 1
EndChar

StartChar: degree
Encoding: 176 176 111
Width: 399
Flags: MW
HStem: 390 34<215 272 215 283> 642 34<215.5 272>
VStem: 101 39<503.5 562.5 503.5 573> 348 39<503 562.5>
LayerCount: 2
Fore
SplineSet
244 676 m 0
 324 676 387 613 387 533 c 0
 387 452 324 390 242 390 c 0
 164 390 101 454 101 533 c 0
 101 613 164 676 244 676 c 0
244 642 m 0
 187 642 140 592 140 533 c 0
 140 474 187 424 243 424 c 0
 301 424 348 473 348 533 c 0
 348 592 300 642 244 642 c 0
EndSplineSet
Validated: 1
EndChar

StartChar: plusminus
Encoding: 177 177 112
Width: 674
Flags: MW
HStem: 0 66<86 590 86 590> 282 66<86 305 86 305 371 590>
VStem: 305 66<122 282 122 282 348 568>
LayerCount: 2
Fore
SplineSet
86 0 m 1
 86 66 l 1
 590 66 l 1
 590 0 l 1
 86 0 l 1
305 348 m 1
 305 568 l 1
 371 568 l 1
 371 348 l 1
 590 348 l 1
 590 282 l 1
 371 282 l 1
 371 122 l 1
 305 122 l 1
 305 282 l 1
 86 282 l 1
 86 348 l 1
 305 348 l 1
EndSplineSet
Validated: 1
EndChar

StartChar: two.superior
Encoding: 178 178 113
Width: 299
Flags: MW
HStem: 271 53<113 221 221 239 113 264> 625 51<172 202.5>
VStem: 259 65<557.5 576.5>
LayerCount: 2
Fore
SplineSet
213 676 m 0
 274 676 324 630 324 575 c 0
 324 540 312 523 225 439 c 2
 111 329 l 1
 113 324 l 1
 221 324 l 2
 257 324 270 331 286 358 c 1
 297 350 l 1
 264 271 l 1
 33 271 l 1
 33 289 l 1
 166 419 l 2
 228 479 259 526 259 558 c 0
 259 595 224 625 181 625 c 0
 145 625 120 610 91 572 c 1
 78 580 l 1
 92 613 131 676 213 676 c 0
EndSplineSet
Validated: 1
EndChar

StartChar: three.superior
Encoding: 179 179 114
Width: 299
Flags: HMW
HStem: 268 31<140 170> 644 32<221.5 236>
VStem: 238 63<379.5 438.5 379.5 513> 272 67<580.5 607>
LayerCount: 2
Fore
SplineSet
154 299 m 0xe0
 202 299 238 339 238 392 c 0xe0
 238 475.074978478 172.568265924 489.526430973 136.505926374 489.526430973 c 0
 132.197535294 489.526430973 128.308340507 489.320161985 125 489 c 1
 125 498 l 1
 225 516 272 547 272 592 c 0
 272 622 250 644 222 644 c 0
 196 644 178 635 149 608 c 1
 139 615 l 1
 159 653 199 676 244 676 c 0
 298 676 339 643 339 600 c 0xd0
 339 561 315 540 238 513 c 1
 242 511 l 2
 270 497 301 482 301 425 c 0
 301 334 224 268 116 268 c 0
 69 268 43 282 43 307 c 0
 43 322 56 335 73 335 c 0
 96 335 126 299 154 299 c 0xe0
EndSplineSet
Validated: 524289
EndChar

StartChar: acute
Encoding: 180 180 115
Width: 332
Flags: MW
HStem: 644 20G<362 377>
LayerCount: 2
Fore
SplineSet
180 494 m 1
 342 654 l 2
 349 660 357 664 367 664 c 0
 387 664 403 648 403 628 c 0
 403 616 398 607 386 600 c 2
 215 494 l 1
 180 494 l 1
EndSplineSet
Validated: 1
EndChar

StartChar: mu
Encoding: 181 181 116
Width: 500
Flags: MW
HStem: -10 40<366 447.5> -10 55<193 204.5> 408 20G<127 215 215 215 409 497 497 497>
VStem: -30 105<-179 -41.5> 328 85<49 54>
LayerCount: 2
Fore
SplineSet
73 18 m 0x78
 73 -31 75 -17 75 -66 c 0
 75 -153 47 -209 4 -209 c 0
 -19 -209 -30 -194 -30 -164 c 0
 -30 -84 16 -63 42 54 c 2
 127 428 l 1
 215 428 l 1
 148 144 l 2
 146 137 145 123 145 114 c 0
 145 72 172 45 214 45 c 0x78
 257 45 301 70 336 115 c 1
 409 428 l 1
 497 428 l 1
 419 92 l 2
 413 70 413 68 413 58 c 0
 413 40 422 30 439 30 c 0
 456 30 470 37 495 56 c 1
 490 42 447 -10 385 -10 c 0xb8
 347 -10 328 10 328 49 c 0
 328 59 329 66 332 80 c 1
 279 18 231 -10 178 -10 c 0
 125 -10 94 14 75 66 c 1
 74 45 73 34 73 18 c 0x78
EndSplineSet
Validated: 1
EndChar

StartChar: paragraph
Encoding: 182 182 117
Width: 522
Flags: MW
HStem: -123 23<391 392.5 391 409> 632 21<403 461 403 403 610 610>
VStem: 92 77<389.5 434.5>
LayerCount: 2
Fore
SplineSet
616 653 m 1
 610 632 l 1
 534 627 527 622 513 574 c 2
 357 -11 l 2
 356 -14 355 -19 353 -26 c 0
 345 -52 342 -64 342 -76 c 0
 342 -90 356 -96 391 -100 c 0
 394 -100 404 -101 414 -102 c 1
 409 -123 l 1
 261 -123 l 1
 461 632 l 1
 403 632 l 1
 203 -123 l 1
 55 -123 l 1
 60 -102 l 1
 106 -98 122 -95 134 -89 c 0
 147 -85 147 -85 215 171 c 0
 226 216 233 239 245 283 c 1
 190 285 165 292 137 311 c 0
 108 332 92 364 92 403 c 0
 92 466 115 534 151 577 c 0
 196 631 257 653 359 653 c 2
 616 653 l 1
255 304 m 1
 334 632 l 1
 291 629 263 616 235 585 c 0
 197 544 169 468 169 406 c 0
 169 373 181 343 202 323 c 0
 214 311 227 307 255 304 c 1
EndSplineSet
Validated: 1
EndChar

StartChar: periodcentered
Encoding: 183 183 118
Width: 250
Flags: MW
HStem: 199 111<110 139.5>
VStem: 70 111<238.5 268.5>
LayerCount: 2
Fore
SplineSet
125 310 m 0
 155 310 181 284 181 253 c 0
 181 224 155 199 124 199 c 0
 95 199 70 224 70 253 c 0
 70 284 95 310 125 310 c 0
EndSplineSet
Validated: 1
Substitution2: "'locl' Localized Forms in Greek lookup 31 subtable" anoteleia
Substitution2: "'aalt' Access All Alternates lookup 0 subtable" anoteleia
EndChar

StartChar: cedilla
Encoding: 184 184 119
Width: 332
Flags: MW
HStem: -217 35<49 72 44.5 97.5> -97 34<57 125> -20 20G<81 119 119 119>
VStem: 108 74<-154 -128>
LayerCount: 2
Fore
SplineSet
21 -96 m 1
 81 0 l 1
 119 0 l 1
 75 -66 l 1
 85 -64 92 -63 100 -63 c 0
 150 -63 182 -90 182 -131 c 0
 182 -181 132 -217 63 -217 c 0
 35 -217 12 -212 -30 -196 c 1
 -13 -167 l 1
 17 -178 34 -182 55 -182 c 0
 89 -182 108 -167 108 -141 c 0
 108 -115 89 -97 62 -97 c 0
 52 -97 44 -99 30 -104 c 1
 21 -96 l 1
EndSplineSet
Validated: 1
EndChar

StartChar: one.superior
Encoding: 185 185 120
Width: 299
Flags: MW
HStem: 635 40
VStem: 148 55<616 654 616 654>
LayerCount: 2
Fore
SplineSet
148 654 m 1
 248 670 251 675 273 675 c 0
 274 675 276 676 276 676 c 1
 279 676 l 2
 281 676 284 673 284 671 c 0
 284 669 283 663 280 655 c 2
 194 381 l 2
 182 343 175 316 175 307 c 0
 175 292 186 288 224 287 c 1
 224 271 l 1
 43 271 l 1
 43 287 l 1
 90 292 103 297 108 312 c 2
 198 597 l 2
 202 609 203 614 203 618 c 0
 203 631 192 638 182 635 c 2
 148 635 l 1
 148 654 l 1
EndSplineSet
Validated: 1
EndChar

StartChar: ordmasculine
Encoding: 186 186 121
Width: 309
Flags: HMW
HStem: 406 24<166.5 186.5 166.5 213> 654 22
VStem: 67 73<464 518.5 462 536.5> 289 73<581 616.5 546 622>
LayerCount: 2
Fore
SplineSet
265 676 m 0
 322 676 362 641 362 592 c 0
 362 500 262 406 164 406 c 0
 105 406 67 439 67 489 c 0
 67 584 164 676 265 676 c 0
258 654 m 0
 256.918578062 654.080105329 255.833145585 654.119704205 254.744296909 654.119704205 c 0
 201.462296936 654.119704205 140 559.297761765 140 476 c 0
 140 448 155 430 178 430 c 0
 195 430 214 439 227 452 c 0
 263 490 289 555 289 607 c 0
 289 637 279 653 258 654 c 0
EndSplineSet
Validated: 524289
EndChar

StartChar: guillemotright
Encoding: 187 187 122
Width: 500
Flags: MW
HStem: 37 366<60 143.5 133 229.5>
VStem: 55 392<42.5 224>
LayerCount: 2
Fore
SplineSet
447 224 m 1
 447 215 l 1
 418 192 366 154 335 127 c 0
 303 99 234 37 225 37 c 0
 219 37 217 40 217 45 c 0
 217 62 247 93 373 223 c 1
 342 284 291 384 291 395 c 0
 291 397 291 403 299 403 c 0
 312 403 365 325 380 308 c 0
 396 290 440 236 447 224 c 1
285 224 m 1
 285 215 l 1
 256 192 204 154 173 127 c 0
 141 99 72 37 63 37 c 0
 57 37 55 40 55 45 c 0
 55 62 85 93 211 223 c 1
 180 284 129 384 129 395 c 0
 129 397 129 403 137 403 c 0
 150 403 203 325 218 308 c 0
 234 290 278 236 285 224 c 1
EndSplineSet
Validated: 1
Substitution2: "'locl' Localized Forms in Greek lookup 31 subtable" uniEB0F
Substitution2: "'aalt' Access All Alternates lookup 0 subtable" uniEB0F
EndChar

StartChar: onequarter
Encoding: 188 188 123
Width: 750
Flags: MW
VStem: 138 55<616 654 616 654>
LayerCount: 2
Fore
SplineSet
138 654 m 1
 238 670 241 675 263 675 c 0
 264 675 266 676 266 676 c 1
 269 676 l 2
 271 676 274 673 274 671 c 0
 274 669 273 663 270 655 c 2
 184 381 l 2
 172 343 165 316 165 307 c 0
 165 292 176 288 214 287 c 1
 214 271 l 1
 33 271 l 1
 33 287 l 1
 80 292 93 297 98 312 c 2
 188 597 l 2
 192 609 193 614 193 618 c 0
 193 631 182 638 172 635 c 2
 138 635 l 1
 138 654 l 1
649 676 m 1
 194 -10 l 1
 143 -10 l 1
 598 676 l 1
 649 676 l 1
712 147 m 1
 703 104 l 1
 645 104 l 1
 615 0 l 1
 552 0 l 1
 584 105 l 1
 416 105 l 1
 429 147 l 1
 700 406 l 1
 736 406 l 1
 657 147 l 1
 712 147 l 1
653 333 m 1
 464 147 l 1
 593 147 l 1
 653 333 l 1
EndSplineSet
Validated: 1
EndChar

StartChar: onehalf
Encoding: 189 189 124
Width: 750
Flags: MW
VStem: 139 55<616 654 616 654> 684 65<286.5 305.5>
LayerCount: 2
Fore
SplineSet
638 405 m 0
 699 405 749 359 749 304 c 0
 749 269 737 252 650 168 c 2
 536 58 l 1
 538 53 l 1
 646 53 l 2
 682 53 695 60 711 87 c 1
 722 79 l 1
 689 0 l 1
 458 0 l 1
 458 18 l 1
 591 148 l 2
 653 208 684 255 684 287 c 0
 684 324 649 354 606 354 c 0
 570 354 545 339 516 301 c 1
 503 309 l 1
 517 342 556 405 638 405 c 0
139 654 m 1
 239 670 242 675 264 675 c 0
 265 675 267 676 267 676 c 1
 270 676 l 2
 272 676 275 673 275 671 c 0
 275 669 274 663 271 655 c 2
 185 381 l 2
 173 343 166 316 166 307 c 0
 166 292 177 288 215 287 c 1
 215 271 l 1
 34 271 l 1
 34 287 l 1
 81 292 94 297 99 312 c 2
 189 597 l 2
 193 609 194 614 194 618 c 0
 194 631 183 638 173 635 c 2
 139 635 l 1
 139 654 l 1
635 676 m 1
 180 -10 l 1
 129 -10 l 1
 584 676 l 1
 635 676 l 1
EndSplineSet
Validated: 1
EndChar

StartChar: threequarters
Encoding: 190 190 125
Width: 750
Flags: HMW
HStem: 268 31<120 150> 644 32<201.5 216>
LayerCount: 2
Fore
SplineSet
134 299 m 0
 182 299 218 339 218 392 c 0
 218 475.074978478 152.568265924 489.526430973 116.505926374 489.526430973 c 0
 112.197535294 489.526430973 108.308340507 489.320161985 105 489 c 1
 105 498 l 1
 205 516 252 547 252 592 c 0
 252 622 230 644 202 644 c 0
 176 644 158 635 129 608 c 1
 119 615 l 1
 139 653 179 676 224 676 c 0
 278 676 319 643 319 600 c 0
 319 561 295 540 218 513 c 1
 222 511 l 2
 250 497 281 482 281 425 c 0
 281 334 204 268 96 268 c 0
 49 268 23 282 23 307 c 0
 23 322 36 335 53 335 c 0
 76 335 106 299 134 299 c 0
650 676 m 1
 195 -10 l 1
 144 -10 l 1
 599 676 l 1
 650 676 l 1
712 147 m 1
 703 104 l 1
 645 104 l 1
 615 0 l 1
 552 0 l 1
 584 105 l 1
 416 105 l 1
 429 147 l 1
 700 406 l 1
 736 406 l 1
 657 147 l 1
 712 147 l 1
653 333 m 1
 464 147 l 1
 593 147 l 1
 653 333 l 1
EndSplineSet
Validated: 524289
EndChar

StartChar: questiondown
Encoding: 191 191 126
Width: 500
Flags: MW
HStem: -205 22<156.5 203.5 156.5 216.5> 368 105<300.5 329 300 329.5>
VStem: 28 74<-115 -72.5 -126 -45.5> 237 79<-87 -81 -128 -73>
LayerCount: 2
Fore
SplineSet
284 285 m 1
 301 283 l 1
 283 184 272 162 189 67 c 0
 124 -4 102 -46 102 -99 c 0
 102 -153 131 -183 182 -183 c 0
 225 -183 252 -165 252 -135 c 0
 252 -127 250 -121 244 -108 c 0
 239 -96 237 -91 237 -83 c 0
 237 -63 253 -48 277 -48 c 0
 301 -48 316 -66 316 -96 c 0
 316 -160 258 -205 175 -205 c 0
 86 -205 28 -154 28 -76 c 0
 28 -15 48 12 162 105 c 0
 233 162 263 200 277 256 c 2
 284 285 l 1
314 473 m 0
 344 473 367 450 367 421 c 0
 367 391 344 368 315 368 c 0
 286 368 262 392 262 421 c 0
 262 448 286 473 314 473 c 0
EndSplineSet
Validated: 1
EndChar

StartChar: Agrave
Encoding: 192 192 127
Width: 630
Flags: MW
HStem: 0 21<-31 156 -31 -31 338 584 338 338> 226 36<200 387 200 393 179 387> 856 20<306 323.5>
LayerCount: 2
Fore
SplineSet
584 16 m 1
 584 0 l 1
 338 0 l 1
 338 16 l 1
 402 22 416 31 416 69 c 0
 416 77 415 86 414 95 c 2
 393 226 l 1
 179 226 l 1
 117 113 l 2
 100 79 97 70 97 51 c 0
 97 26 105 21 156 16 c 1
 156 0 l 1
 -31 0 l 1
 -31 16 l 1
 8 32 34 47 103 168 c 2
 388 668 l 1
 414 668 l 1
 508 102 l 2
 521 29 527 21 584 16 c 1
200 262 m 1
 387 262 l 1
 345 522 l 1
 200 262 l 1
440 704 m 1
 300 810 l 2
 287 820 281 830 281 842 c 0
 281 861 296 876 316 876 c 0
 331 876 342 869 355 853 c 2
 471 704 l 1
 440 704 l 1
EndSplineSet
Validated: 1
EndChar

StartChar: Aacute
Encoding: 193 193 128
Width: 630
Flags: MW
HStem: 0 21<-31 156 -31 -31 338 584 338 338> 226 36<200 387 200 393 179 387> 856 20<522 537>
LayerCount: 2
Fore
SplineSet
584 16 m 1
 584 0 l 1
 338 0 l 1
 338 16 l 1
 402 22 416 31 416 69 c 0
 416 77 415 86 414 95 c 2
 393 226 l 1
 179 226 l 1
 117 113 l 2
 100 79 97 70 97 51 c 0
 97 26 105 21 156 16 c 1
 156 0 l 1
 -31 0 l 1
 -31 16 l 1
 8 32 34 47 103 168 c 2
 388 668 l 1
 414 668 l 1
 508 102 l 2
 521 29 527 21 584 16 c 1
200 262 m 1
 387 262 l 1
 345 522 l 1
 200 262 l 1
340 706 m 1
 502 866 l 2
 509 872 517 876 527 876 c 0
 547 876 563 860 563 840 c 0
 563 828 558 819 546 812 c 2
 375 706 l 1
 340 706 l 1
EndSplineSet
Validated: 1
EndChar

StartChar: Acircumflex
Encoding: 194 194 129
Width: 630
Flags: MW
HStem: 0 21<-31 156 -31 -31 338 584 338 338> 226 36<200 387 200 393 179 387> 853 20<408 457 457 457>
LayerCount: 2
Fore
SplineSet
584 16 m 1
 584 0 l 1
 338 0 l 1
 338 16 l 1
 402 22 416 31 416 69 c 0
 416 77 415 86 414 95 c 2
 393 226 l 1
 179 226 l 1
 117 113 l 2
 100 79 97 70 97 51 c 0
 97 26 105 21 156 16 c 1
 156 0 l 1
 -31 0 l 1
 -31 16 l 1
 8 32 34 47 103 168 c 2
 388 668 l 1
 414 668 l 1
 508 102 l 2
 521 29 527 21 584 16 c 1
200 262 m 1
 387 262 l 1
 345 522 l 1
 200 262 l 1
457 873 m 1
 545 704 l 1
 509 704 l 1
 427 808 l 1
 290 704 l 1
 251 704 l 1
 408 873 l 1
 457 873 l 1
EndSplineSet
Validated: 1
EndChar

StartChar: Atilde
Encoding: 195 195 130
Width: 630
Flags: MW
HStem: 0 21<-31 156 -31 -31 338 584 338 338> 226 36<200 387 200 393 179 387> 732 60<500.5 516> 776 59<334 348.5>
LayerCount: 2
Fore
SplineSet
584 16 m 1xc0
 584 0 l 1
 338 0 l 1
 338 16 l 1
 402 22 416 31 416 69 c 0
 416 77 415 86 414 95 c 2
 393 226 l 1
 179 226 l 1
 117 113 l 2
 100 79 97 70 97 51 c 0
 97 26 105 21 156 16 c 1
 156 0 l 1
 -31 0 l 1
 -31 16 l 1
 8 32 34 47 103 168 c 2
 388 668 l 1
 414 668 l 1
 508 102 l 2
 521 29 527 21 584 16 c 1xc0
200 262 m 1
 387 262 l 1
 345 522 l 1
 200 262 l 1
559 836 m 1x20
 587 836 l 1
 573 769 540 732 492 732 c 0x20
 480 732 461 737 435 747 c 0
 381 769 357 776 340 776 c 0
 315 776 299 761 289 729 c 1
 260 729 l 1
 280 806 308 835 360 835 c 0x10
 382 835 408 828 446 811 c 0
 476 797 493 792 508 792 c 0
 535 792 548 803 559 836 c 1x20
EndSplineSet
Validated: 1
EndChar

StartChar: Adieresis
Encoding: 196 196 131
Width: 630
Flags: MW
HStem: 0 21<-31 156 -31 -31 338 584 338 338> 226 36<200 387 200 393 179 387> 720 98<303 329.5 303 329.5 503 529.5>
VStem: 267 98<756 781.5 755.5 783> 467 98<756 781.5 755.5 783>
LayerCount: 2
Fore
SplineSet
584 16 m 1
 584 0 l 1
 338 0 l 1
 338 16 l 1
 402 22 416 31 416 69 c 0
 416 77 415 86 414 95 c 2
 393 226 l 1
 179 226 l 1
 117 113 l 2
 100 79 97 70 97 51 c 0
 97 26 105 21 156 16 c 1
 156 0 l 1
 -31 0 l 1
 -31 16 l 1
 8 32 34 47 103 168 c 2
 388 668 l 1
 414 668 l 1
 508 102 l 2
 521 29 527 21 584 16 c 1
200 262 m 1
 387 262 l 1
 345 522 l 1
 200 262 l 1
317 818 m 0
 342 818 365 794 365 769 c 0
 365 742 343 720 316 720 c 0
 289 720 267 742 267 770 c 0
 267 796 289 818 317 818 c 0
517 818 m 0
 542 818 565 794 565 769 c 0
 565 742 543 720 516 720 c 0
 489 720 467 742 467 770 c 0
 467 796 489 818 517 818 c 0
EndSplineSet
Validated: 1
EndChar

StartChar: Aring
Encoding: 197 197 132
Width: 630
Flags: MW
HStem: 0 21<-31 156 -31 -31 338 584 338 338> 226 36<200 387 200 393 179 387> 704 34<393 430 393 439.5> 869 34<393.5 429.5>
VStem: 312 34<785.5 821.5 785.5 831> 478 34<784.5 821>
LayerCount: 2
Fore
SplineSet
584 16 m 1
 584 0 l 1
 338 0 l 1
 338 16 l 1
 402 22 416 31 416 69 c 0
 416 77 415 86 414 95 c 2
 393 226 l 1
 179 226 l 1
 117 113 l 2
 100 79 97 70 97 51 c 0
 97 26 105 21 156 16 c 1
 156 0 l 1
 -31 0 l 1
 -31 16 l 1
 8 32 34 47 103 168 c 2
 388 668 l 1
 414 668 l 1
 508 102 l 2
 521 29 527 21 584 16 c 1
200 262 m 1
 387 262 l 1
 345 522 l 1
 200 262 l 1
411 903 m 0
 466 903 512 858 512 803 c 0
 512 749 467 704 412 704 c 0
 356 704 312 748 312 804 c 0
 312 858 357 903 411 903 c 0
411 869 m 0
 376 869 346 839 346 804 c 0
 346 767 375 738 411 738 c 0
 449 738 478 766 478 803 c 0
 478 839 448 869 411 869 c 0
EndSplineSet
Validated: 1
EndChar

StartChar: AE
Encoding: 198 198 133
Width: 888
Flags: HMW
HStem: 0 33<533.5 613 533.5 780> 234 37<249 411 221 422> 601 52<508 514 508 508> 620 33<664.5 723>
LayerCount: 2
Fore
SplineSet
911 653 m 1xd0
 878 500 l 1
 861 502 l 1
 862 535 l 2
 864.307692308 611.923076923 803.301775148 620.798816568 740.429676832 620.798816568 c 0
 721.568047337 620.798816568 702.538461538 620 685 620 c 0
 674.245901639 620 664.523783929 620.55038968 655.815601306 620.55038968 c 0
 631.323837678 620.55038968 614.852459016 616.196721311 606 583 c 2
 545 361 l 1
 549.348302273 361.037485364 553.595433563 361.052488288 557.745555009 361.052488288 c 0
 574.394746387 361.052488288 589.48265889 360.811030855 603.277956423 360.811030855 c 0
 677.779331252 360.811030855 714.581204161 367.853209056 756 458 c 1
 774 454 l 1
 705 222 l 1
 688 226 l 1
 691 242 694 259 694 275 c 0
 694 322.127272727 646.872727273 330.267438017 600.851582269 330.267438017 c 0
 576.562644628 330.267438017 552.581818182 328 536 328 c 1
 524 287 465 90 465 63 c 0
 465 36.1568627451 494.474817378 32.4725105729 520.203360698 32.4725105729 c 0
 529.938485198 32.4725105729 539.137254902 33 546 33 c 0
 680 33 750 54 826 169 c 1
 844 164 l 1
 780 0 l 1
 282 0 l 1
 282 16 l 1
 325 20 349 18 362 64 c 2
 411 234 l 1
 221 234 l 1
 196 204 96 82 96 50 c 0
 96 18 136 18 160 16 c 1
 160 0 l 1
 -27 0 l 1
 -27 16 l 1
 8 25 36 65 57 92 c 0
 94 139 458 581 458 608 c 0
 458 640 417 636 394 638 c 1
 394 653 l 1
 911 653 l 1xd0
514 601 m 1xe0
 508 601 l 1
 249 271 l 1
 422 271 l 1
 514 601 l 1xe0
EndSplineSet
Validated: 524321
Ligature2: "'dlig' Discretionary Ligatures in Cyrillic lookup 17 subtable" A E
Ligature2: "'dlig' Discretionary Ligatures in Latin lookup 16 subtable" A E
Ligature2: "'dlig' Discretionary Ligatures lookup 15 subtable" A E
EndChar

StartChar: Ccedilla
Encoding: 199 199 134
Width: 666
Flags: MW
HStem: -217 35<216 239 211.5 264.5> -97 34<224 292> -18 45<319 378.5> 630 36<448 488 365.5 527>
VStem: 66 112<182.5 291.5 167.5 354> 275 74<-154 -128>
LayerCount: 2
Fore
SplineSet
277 -14 m 1
 242 -66 l 1
 252 -64 259 -63 267 -63 c 0
 317 -63 349 -90 349 -131 c 0
 349 -181 299 -217 230 -217 c 0
 202 -217 179 -212 137 -196 c 1
 154 -167 l 1
 183 -178 201 -182 222 -182 c 0
 256 -182 275 -167 275 -141 c 0
 275 -115 256 -97 229 -97 c 0
 219 -97 211 -99 197 -104 c 1
 188 -96 l 1
 244 -6 l 1
 135 26 66 122 66 243 c 0
 66 465 259 666 472 666 c 0
 504 666 544 660 589 649 c 0
 610 644 622 642 630 642 c 0
 650 642 660 648 668 664 c 1
 689 664 l 1
 652 465 l 1
 634 468 l 1
 624 576 573 630 481 630 c 0
 415 630 352 602 304 553 c 0
 226 472 178 351 178 232 c 0
 178 103 242 27 353 27 c 0
 435 27 493 57 583 145 c 1
 600 131 l 1
 510 26 430 -18 327 -18 c 0
 311 -18 295 -17 277 -14 c 1
EndSplineSet
Validated: 1
Ligature2: "'ccmp' Glyph Composition/Decomposition in Latin lookup 8 subtable" C cedilla
EndChar

StartChar: Egrave
Encoding: 200 200 135
Width: 603
Flags: HMW
HStem: 0 33<219.5 286.5 219.5 499> 325 38<319 325 319 356.5> 620 33<357 463.5> 856 20<318 335.5>
LayerCount: 2
Fore
SplineSet
315 325 m 0
 303 325 237 328 237 328 c 1
 170 76 l 2
 168.920583149 72.042138214 168.387775533 68.4151188596 168.387775533 65.0965143058 c 0
 168.387775533 40.7451404228 197.076177133 33 249 33 c 0
 324 33 392 43 429 60 c 0
 472 80 498 106 545 170 c 1
 561 162 l 1
 499 0 l 1
 -8 0 l 1
 -8 16 l 1
 48 26 56 33 73 90 c 2
 196 532 l 2
 201 550 207 585 207 596 c 0
 207 623 192 631 130 637 c 1
 130 653 l 1
 627 653 l 1
 596 500 l 1
 575 502 l 1
 576 519 577 534 577 547 c 0
 577 607 542 620 385 620 c 0
 329 620 318 616 312 594 c 2
 246 361 l 1
 246 361 313 363 325 363 c 0
 416 367 425 373 463 458 c 1
 481 454 l 1
 413 222 l 1
 393 227 l 1
 398 249 400 262 400 279 c 0
 400 309 398 325 315 325 c 0
452 704 m 1
 312 810 l 2
 299 820 293 830 293 842 c 0
 293 861 308 876 328 876 c 0
 343 876 354 869 367 853 c 2
 483 704 l 1
 452 704 l 1
EndSplineSet
Validated: 524289
EndChar

StartChar: Eacute
Encoding: 201 201 136
Width: 603
Flags: HMW
HStem: 0 33<219.5 286.5 219.5 499> 325 38<319 325 319 356.5> 620 33<357 463.5> 856 20<534 549>
LayerCount: 2
Fore
SplineSet
315 325 m 0
 303 325 237 328 237 328 c 1
 170 76 l 2
 168.920583149 72.042138214 168.387775533 68.4151188596 168.387775533 65.0965143058 c 0
 168.387775533 40.7451404228 197.076177133 33 249 33 c 0
 324 33 392 43 429 60 c 0
 472 80 498 106 545 170 c 1
 561 162 l 1
 499 0 l 1
 -8 0 l 1
 -8 16 l 1
 48 26 56 33 73 90 c 2
 196 532 l 2
 201 550 207 585 207 596 c 0
 207 623 192 631 130 637 c 1
 130 653 l 1
 627 653 l 1
 596 500 l 1
 575 502 l 1
 576 519 577 534 577 547 c 0
 577 607 542 620 385 620 c 0
 329 620 318 616 312 594 c 2
 246 361 l 1
 246 361 313 363 325 363 c 0
 416 367 425 373 463 458 c 1
 481 454 l 1
 413 222 l 1
 393 227 l 1
 398 249 400 262 400 279 c 0
 400 309 398 325 315 325 c 0
352 706 m 1
 514 866 l 2
 521 872 529 876 539 876 c 0
 559 876 575 860 575 840 c 0
 575 828 570 819 558 812 c 2
 387 706 l 1
 352 706 l 1
EndSplineSet
Validated: 524289
EndChar

StartChar: Ecircumflex
Encoding: 202 202 137
Width: 603
Flags: HMW
HStem: 0 33<219.5 286.5 219.5 499> 325 38<319 325 319 356.5> 620 33<357 463.5> 853 20<420 469 469 469>
LayerCount: 2
Fore
SplineSet
315 325 m 0
 303 325 237 328 237 328 c 1
 170 76 l 2
 168.920583149 72.042138214 168.387775533 68.4151188596 168.387775533 65.0965143058 c 0
 168.387775533 40.7451404228 197.076177133 33 249 33 c 0
 324 33 392 43 429 60 c 0
 472 80 498 106 545 170 c 1
 561 162 l 1
 499 0 l 1
 -8 0 l 1
 -8 16 l 1
 48 26 56 33 73 90 c 2
 196 532 l 2
 201 550 207 585 207 596 c 0
 207 623 192 631 130 637 c 1
 130 653 l 1
 627 653 l 1
 596 500 l 1
 575 502 l 1
 576 519 577 534 577 547 c 0
 577 607 542 620 385 620 c 0
 329 620 318 616 312 594 c 2
 246 361 l 1
 246 361 313 363 325 363 c 0
 416 367 425 373 463 458 c 1
 481 454 l 1
 413 222 l 1
 393 227 l 1
 398 249 400 262 400 279 c 0
 400 309 398 325 315 325 c 0
469 873 m 1
 557 704 l 1
 521 704 l 1
 439 808 l 1
 302 704 l 1
 263 704 l 1
 420 873 l 1
 469 873 l 1
EndSplineSet
Validated: 524289
EndChar

StartChar: Edieresis
Encoding: 203 203 138
Width: 603
Flags: HMW
HStem: 0 33<219.5 286.5 219.5 499> 325 38<319 325 319 356.5> 620 33<357 463.5> 720 98<315 341.5 315 341.5 515 541.5>
VStem: 279 98<756 781.5 755.5 783> 479 98<756 781.5>
LayerCount: 2
Fore
SplineSet
315 325 m 0
 303 325 237 328 237 328 c 1
 170 76 l 2
 168.920583149 72.042138214 168.387775533 68.4151188596 168.387775533 65.0965143058 c 0
 168.387775533 40.7451404228 197.076177133 33 249 33 c 0
 324 33 392 43 429 60 c 0
 472 80 498 106 545 170 c 1
 561 162 l 1
 499 0 l 1
 -8 0 l 1
 -8 16 l 1
 48 26 56 33 73 90 c 2
 196 532 l 2
 201 550 207 585 207 596 c 0
 207 623 192 631 130 637 c 1
 130 653 l 1
 627 653 l 1
 596 500 l 1
 575 502 l 1
 576 519 577 534 577 547 c 0
 577 607 542 620 385 620 c 0
 329 620 318 616 312 594 c 2
 246 361 l 1
 246 361 313 363 325 363 c 0
 416 367 425 373 463 458 c 1
 481 454 l 1
 413 222 l 1
 393 227 l 1
 398 249 400 262 400 279 c 0
 400 309 398 325 315 325 c 0
329 818 m 0
 354 818 377 794 377 769 c 0
 377 742 355 720 328 720 c 0
 301 720 279 742 279 770 c 0
 279 796 301 818 329 818 c 0
529 818 m 0
 554 818 577 794 577 769 c 0
 577 742 555 720 528 720 c 0
 501 720 479 742 479 770 c 0
 479 796 501 818 529 818 c 0
EndSplineSet
Validated: 524289
EndChar

StartChar: Igrave
Encoding: 204 204 139
Width: 338
Flags: MW
HStem: 0 21<-8 -8 -8 236> 633 20<137 384 384 384> 856 20<186 203.5>
LayerCount: 2
Fore
SplineSet
-8 0 m 1
 -8 16 l 1
 48 26 57 31 73 90 c 2
 196 532 l 2
 203 557 207 580 207 594 c 0
 207 622 195 630 137 637 c 1
 137 653 l 1
 384 653 l 1
 384 637 l 1
 327 627 318 622 302 563 c 2
 179 120 l 2
 170 88 168 76 168 57 c 0
 168 29 179 23 236 16 c 1
 236 0 l 1
 -8 0 l 1
320 704 m 1
 180 810 l 2
 167 820 161 830 161 842 c 0
 161 861 176 876 196 876 c 0
 211 876 222 869 235 853 c 2
 351 704 l 1
 320 704 l 1
EndSplineSet
Validated: 1
EndChar

StartChar: Iacute
Encoding: 205 205 140
Width: 338
Flags: MW
HStem: 0 21<-8 -8 -8 236> 633 20<137 384 384 384> 856 20<402 417>
LayerCount: 2
Fore
SplineSet
-8 0 m 1
 -8 16 l 1
 48 26 57 31 73 90 c 2
 196 532 l 2
 203 557 207 580 207 594 c 0
 207 622 195 630 137 637 c 1
 137 653 l 1
 384 653 l 1
 384 637 l 1
 327 627 318 622 302 563 c 2
 179 120 l 2
 170 88 168 76 168 57 c 0
 168 29 179 23 236 16 c 1
 236 0 l 1
 -8 0 l 1
220 706 m 1
 382 866 l 2
 389 872 397 876 407 876 c 0
 427 876 443 860 443 840 c 0
 443 828 438 819 426 812 c 2
 255 706 l 1
 220 706 l 1
EndSplineSet
Validated: 1
EndChar

StartChar: Icircumflex
Encoding: 206 206 141
Width: 338
Flags: MW
HStem: 0 21<-8 -8 -8 236> 633 20<137 384 384 384> 853 20<288 337 337 337>
LayerCount: 2
Fore
SplineSet
-8 0 m 1
 -8 16 l 1
 48 26 57 31 73 90 c 2
 196 532 l 2
 203 557 207 580 207 594 c 0
 207 622 195 630 137 637 c 1
 137 653 l 1
 384 653 l 1
 384 637 l 1
 327 627 318 622 302 563 c 2
 179 120 l 2
 170 88 168 76 168 57 c 0
 168 29 179 23 236 16 c 1
 236 0 l 1
 -8 0 l 1
337 873 m 1
 425 704 l 1
 389 704 l 1
 307 808 l 1
 170 704 l 1
 131 704 l 1
 288 873 l 1
 337 873 l 1
EndSplineSet
Validated: 1
EndChar

StartChar: Idieresis
Encoding: 207 207 142
Width: 338
Flags: MW
HStem: 0 21<-8 -8 -8 236> 633 20<137 384 384 384> 720 98<183 209.5 183 209.5 383 409.5>
VStem: 147 98<756 781.5 755.5 783> 347 98<756 781.5 755.5 783>
LayerCount: 2
Fore
SplineSet
-8 0 m 1
 -8 16 l 1
 48 26 57 31 73 90 c 2
 196 532 l 2
 203 557 207 580 207 594 c 0
 207 622 195 630 137 637 c 1
 137 653 l 1
 384 653 l 1
 384 637 l 1
 327 627 318 622 302 563 c 2
 179 120 l 2
 170 88 168 76 168 57 c 0
 168 29 179 23 236 16 c 1
 236 0 l 1
 -8 0 l 1
197 818 m 0
 222 818 245 794 245 769 c 0
 245 742 223 720 196 720 c 0
 169 720 147 742 147 770 c 0
 147 796 169 818 197 818 c 0
397 818 m 0
 422 818 445 794 445 769 c 0
 445 742 423 720 396 720 c 0
 369 720 347 742 347 770 c 0
 347 796 369 818 397 818 c 0
EndSplineSet
Validated: 1
EndChar

StartChar: Eth
Encoding: 208 208 143
Width: 721
Flags: MW
HStem: 0 30<212 245> 326 42<48 150 60 138 250 391> 623 30<356 404.5>
VStem: 589 111<354 466 326 510>
LayerCount: 2
Fore
SplineSet
48 326 m 1
 60 368 l 1
 150 368 l 1
 196 532 l 2
 203 556 207 580 207 596 c 0
 207 623 193 631 130 637 c 1
 130 653 l 1
 408 653 l 2
 586 653 700 548 700 384 c 0
 700 268 643 158 546 87 c 0
 469 31 362 0 245 0 c 2
 -8 0 l 1
 -8 16 l 1
 48 26 56 32 73 90 c 2
 138 326 l 1
 48 326 l 1
377 623 m 0
 335 623 319 616 313 594 c 2
 250 368 l 1
 403 368 l 1
 391 326 l 1
 238 326 l 1
 192 162 l 2
 176 106 170 79 170 67 c 0
 170 41 189 30 235 30 c 0
 339 30 420 60 479 120 c 0
 547 188 589 300 589 408 c 0
 589 612 432 623 377 623 c 0
EndSplineSet
Validated: 1
EndChar

StartChar: Ntilde
Encoding: 209 209 144
Width: 656
Flags: MW
HStem: -15 21<463 481 463 463> 633 20<118 279 279 279 530 729 729 729> 732 60<548.5 564> 776 59<382 396.5>
LayerCount: 2
Fore
SplineSet
600 586 m 0xc0
 600 622 587 632 530 637 c 1
 530 653 l 1
 729 653 l 1
 729 637 l 1
 666 623 662 617 625 488 c 2
 481 -15 l 1
 463 -15 l 1
 233 535 l 1
 119 113 l 2
 113 92 110 72 110 59 c 0
 110 31 129 20 180 16 c 1
 180 0 l 1
 -18 0 l 1
 -18 16 l 1
 39 24 47 36 85 164 c 2
 204 581 l 1
 186 620 165 633 118 637 c 1
 118 653 l 1
 279 653 l 1
 487 154 l 1
 589 534 l 2
 589 535 600 574 600 586 c 0xc0
607 836 m 1x20
 635 836 l 1
 621 769 588 732 540 732 c 0x20
 528 732 509 737 483 747 c 0
 429 769 405 776 388 776 c 0
 363 776 347 761 337 729 c 1
 308 729 l 1
 328 806 356 835 408 835 c 0x10
 430 835 456 828 494 811 c 0
 524 797 541 792 556 792 c 0
 583 792 596 803 607 836 c 1x20
EndSplineSet
Validated: 1
EndChar

StartChar: Ograve
Encoding: 210 210 145
Width: 721
Flags: MW
HStem: -18 33<246 387> 633 33<370 512> 856 20<402 419.5>
VStem: 60 105<160.5 258 139 324.5> 594 105<394.5 494 318 515.5>
LayerCount: 2
Fore
SplineSet
699 423 m 0
 699 213 495 -18 279 -18 c 0
 138 -18 60 94 60 227 c 0
 60 422 264 666 467 666 c 0
 612 666 699 565 699 423 c 0
594 472 m 0
 594 559 561 633 463 633 c 0
 277 633 165 335 165 181 c 0
 165 97 197 15 295 15 c 0
 482 15 594 317 594 472 c 0
536 704 m 1
 396 810 l 2
 383 820 377 830 377 842 c 0
 377 861 392 876 412 876 c 0
 427 876 438 869 451 853 c 2
 567 704 l 1
 536 704 l 1
EndSplineSet
Validated: 1
EndChar

StartChar: Oacute
Encoding: 211 211 146
Width: 721
Flags: MW
HStem: -18 33<246 387> 633 33<370 512> 856 20<618 633>
VStem: 60 105<160.5 258 139 324.5> 594 105<394.5 494 318 515.5>
LayerCount: 2
Fore
SplineSet
699 423 m 0
 699 213 495 -18 279 -18 c 0
 138 -18 60 94 60 227 c 0
 60 422 264 666 467 666 c 0
 612 666 699 565 699 423 c 0
594 472 m 0
 594 559 561 633 463 633 c 0
 277 633 165 335 165 181 c 0
 165 97 197 15 295 15 c 0
 482 15 594 317 594 472 c 0
436 706 m 1
 598 866 l 2
 605 872 613 876 623 876 c 0
 643 876 659 860 659 840 c 0
 659 828 654 819 642 812 c 2
 471 706 l 1
 436 706 l 1
EndSplineSet
Validated: 1
EndChar

StartChar: Ocircumflex
Encoding: 212 212 147
Width: 721
Flags: MW
HStem: -18 33<246 387> 633 33<370 512> 853 20<504 553 553 553>
VStem: 60 105<160.5 258 139 324.5> 594 105<394.5 494 318 515.5>
LayerCount: 2
Fore
SplineSet
699 423 m 0
 699 213 495 -18 279 -18 c 0
 138 -18 60 94 60 227 c 0
 60 422 264 666 467 666 c 0
 612 666 699 565 699 423 c 0
594 472 m 0
 594 559 561 633 463 633 c 0
 277 633 165 335 165 181 c 0
 165 97 197 15 295 15 c 0
 482 15 594 317 594 472 c 0
553 873 m 1
 641 704 l 1
 605 704 l 1
 523 808 l 1
 386 704 l 1
 347 704 l 1
 504 873 l 1
 553 873 l 1
EndSplineSet
Validated: 1
EndChar

StartChar: Otilde
Encoding: 213 213 148
Width: 721
Flags: MW
HStem: -18 33<246 387> 633 33<370 512> 732 60<596.5 612> 776 59<430 444.5>
VStem: 60 105<160.5 258 139 324.5> 594 105<394.5 494 318 515.5>
LayerCount: 2
Fore
SplineSet
699 423 m 0xcc
 699 213 495 -18 279 -18 c 0
 138 -18 60 94 60 227 c 0
 60 422 264 666 467 666 c 0
 612 666 699 565 699 423 c 0xcc
594 472 m 0
 594 559 561 633 463 633 c 0
 277 633 165 335 165 181 c 0
 165 97 197 15 295 15 c 0
 482 15 594 317 594 472 c 0
655 836 m 1x2c
 683 836 l 1
 669 769 636 732 588 732 c 0x2c
 576 732 557 737 531 747 c 0
 477 769 453 776 436 776 c 0
 411 776 395 761 385 729 c 1
 356 729 l 1
 376 806 404 835 456 835 c 0x1c
 478 835 504 828 542 811 c 0
 572 797 589 792 604 792 c 0
 631 792 644 803 655 836 c 1x2c
EndSplineSet
Validated: 1
EndChar

StartChar: Odieresis
Encoding: 214 214 149
Width: 721
Flags: MW
HStem: -18 33<246 387> 633 33<370 512> 720 98<399 425.5 399 425.5 599 625.5>
VStem: 60 105<160.5 258 139 324.5> 594 105<394.5 494 318 515.5>
LayerCount: 2
Fore
SplineSet
699 423 m 0
 699 213 495 -18 279 -18 c 0
 138 -18 60 94 60 227 c 0
 60 422 264 666 467 666 c 0
 612 666 699 565 699 423 c 0
594 472 m 0
 594 559 561 633 463 633 c 0
 277 633 165 335 165 181 c 0
 165 97 197 15 295 15 c 0
 482 15 594 317 594 472 c 0
413 818 m 0
 438 818 461 794 461 769 c 0
 461 742 439 720 412 720 c 0
 385 720 363 742 363 770 c 0
 363 796 385 818 413 818 c 0
613 818 m 0
 638 818 661 794 661 769 c 0
 661 742 639 720 612 720 c 0
 585 720 563 742 563 770 c 0
 563 796 585 818 613 818 c 0
EndSplineSet
Validated: 1
EndChar

StartChar: multiply
Encoding: 215 215 150
Width: 674
Flags: MW
HStem: 8 489<141 141 141 534>
VStem: 93 489<56 56 56 449>
LayerCount: 2
Fore
SplineSet
289 253 m 1
 93 449 l 1
 141 497 l 1
 337 300 l 1
 534 497 l 1
 582 449 l 1
 385 253 l 1
 582 56 l 1
 534 8 l 1
 337 205 l 1
 141 8 l 1
 93 56 l 1
 289 253 l 1
EndSplineSet
Validated: 1
EndChar

StartChar: Oslash
Encoding: 216 216 151
Width: 721
Flags: MW
HStem: -18 33<278 330.5 278 386> 633 33<429 480.5>
VStem: 60 105<177 227.5 157 280.5> 594 105<424 454 318 494.5>
LayerCount: 2
Fore
SplineSet
669 722 m 1
 605 626 l 1
 638 600 650 587 665 562 c 0
 687 524 699 477 699 431 c 0
 699 205 491 -18 281 -18 c 0
 250 -18 225 -12 187 3 c 1
 113 -105 l 1
 69 -105 l 1
 155 22 l 1
 89 70 60 132 60 222 c 0
 60 339 119 460 220 553 c 0
 300 625 390 666 468 666 c 0
 505 666 536 660 573 644 c 1
 625 722 l 1
 669 722 l 1
190 74 m 1
 546 607 l 1
 521 625 497 633 464 633 c 0
 393 633 330 594 275 514 c 0
 212 423 165 279 165 176 c 0
 165 138 172 108 190 74 c 1
570 574 m 1
 215 44 l 1
 237 23 261 15 295 15 c 0
 366 15 428 53 483 132 c 0
 545 222 594 373 594 475 c 0
 594 514 586 545 570 574 c 1
EndSplineSet
Validated: 1
EndChar

StartChar: Ugrave
Encoding: 217 217 152
Width: 722
Flags: MW
HStem: -18 41<293.5 390> 633 20<127 400 400 400 566 765 765 765> 856 20<390 407.5>
VStem: 102 90<103.5 171 103.5 189.5>
LayerCount: 2
Fore
SplineSet
765 637 m 1
 683 620 682 560 661 488 c 2
 578 203 l 2
 538 67 465 -18 315 -18 c 0
 214 -18 102 37 102 151 c 0
 102 228 154 394 176 473 c 0
 184 499 205 569 205 594 c 0
 205 637 159 635 127 637 c 1
 127 653 l 1
 400 653 l 1
 400 637 l 1
 340 631 318 618 299 559 c 0
 276 491 192 198 192 144 c 0
 192 63 256 23 331 23 c 0
 464 23 515 130 546 241 c 0
 561 293 637 556 637 586 c 0
 637 630 601 635 566 637 c 1
 566 653 l 1
 765 653 l 1
 765 637 l 1
524 704 m 1
 384 810 l 2
 371 820 365 830 365 842 c 0
 365 861 380 876 400 876 c 0
 415 876 426 869 439 853 c 2
 555 704 l 1
 524 704 l 1
EndSplineSet
Validated: 1
EndChar

StartChar: Uacute
Encoding: 218 218 153
Width: 722
Flags: MW
HStem: -18 41<293.5 390> 633 20<127 400 400 400 566 765 765 765> 856 20<606 621>
VStem: 102 90<103.5 171 103.5 189.5>
LayerCount: 2
Fore
SplineSet
765 637 m 1
 683 620 682 560 661 488 c 2
 578 203 l 2
 538 67 465 -18 315 -18 c 0
 214 -18 102 37 102 151 c 0
 102 228 154 394 176 473 c 0
 184 499 205 569 205 594 c 0
 205 637 159 635 127 637 c 1
 127 653 l 1
 400 653 l 1
 400 637 l 1
 340 631 318 618 299 559 c 0
 276 491 192 198 192 144 c 0
 192 63 256 23 331 23 c 0
 464 23 515 130 546 241 c 0
 561 293 637 556 637 586 c 0
 637 630 601 635 566 637 c 1
 566 653 l 1
 765 653 l 1
 765 637 l 1
424 706 m 1
 586 866 l 2
 593 872 601 876 611 876 c 0
 631 876 647 860 647 840 c 0
 647 828 642 819 630 812 c 2
 459 706 l 1
 424 706 l 1
EndSplineSet
Validated: 1
EndChar

StartChar: Ucircumflex
Encoding: 219 219 154
Width: 722
Flags: MW
HStem: -18 41<293.5 390> 633 20<127 400 400 400 566 765 765 765> 853 20<492 541 541 541>
VStem: 102 90<103.5 171 103.5 189.5>
LayerCount: 2
Fore
SplineSet
765 637 m 1
 683 620 682 560 661 488 c 2
 578 203 l 2
 538 67 465 -18 315 -18 c 0
 214 -18 102 37 102 151 c 0
 102 228 154 394 176 473 c 0
 184 499 205 569 205 594 c 0
 205 637 159 635 127 637 c 1
 127 653 l 1
 400 653 l 1
 400 637 l 1
 340 631 318 618 299 559 c 0
 276 491 192 198 192 144 c 0
 192 63 256 23 331 23 c 0
 464 23 515 130 546 241 c 0
 561 293 637 556 637 586 c 0
 637 630 601 635 566 637 c 1
 566 653 l 1
 765 653 l 1
 765 637 l 1
541 873 m 1
 629 704 l 1
 593 704 l 1
 511 808 l 1
 374 704 l 1
 335 704 l 1
 492 873 l 1
 541 873 l 1
EndSplineSet
Validated: 1
EndChar

StartChar: Udieresis
Encoding: 220 220 155
Width: 722
Flags: MW
HStem: -18 41<293.5 390> 633 20<127 400 400 400 566 765 765 765> 720 98<387 413.5 387 413.5 587 613.5>
VStem: 102 90<103.5 171 103.5 189.5> 351 98<756 781.5 755.5 783> 551 98<756 781.5 755.5 783>
LayerCount: 2
Fore
SplineSet
765 637 m 1
 683 620 682 560 661 488 c 2
 578 203 l 2
 538 67 465 -18 315 -18 c 0
 214 -18 102 37 102 151 c 0
 102 228 154 394 176 473 c 0
 184 499 205 569 205 594 c 0
 205 637 159 635 127 637 c 1
 127 653 l 1
 400 653 l 1
 400 637 l 1
 340 631 318 618 299 559 c 0
 276 491 192 198 192 144 c 0
 192 63 256 23 331 23 c 0
 464 23 515 130 546 241 c 0
 561 293 637 556 637 586 c 0
 637 630 601 635 566 637 c 1
 566 653 l 1
 765 653 l 1
 765 637 l 1
401 818 m 0
 426 818 449 794 449 769 c 0
 449 742 427 720 400 720 c 0
 373 720 351 742 351 770 c 0
 351 796 373 818 401 818 c 0
601 818 m 0
 626 818 649 794 649 769 c 0
 649 742 627 720 600 720 c 0
 573 720 551 742 551 770 c 0
 551 796 573 818 601 818 c 0
EndSplineSet
Validated: 1
EndChar

StartChar: Yacute
Encoding: 221 221 156
Width: 555
Flags: MW
HStem: 0 21<78 367 78 78> 633 20<91 330 330 330 444 633 633 633> 856 20<502 517>
LayerCount: 2
Fore
SplineSet
367 16 m 1
 367 0 l 1
 78 0 l 1
 78 16 l 1
 144 20 166 36 183 90 c 2
 244 302 l 1
 167 571 l 2
 150 626 147 629 91 637 c 1
 91 653 l 1
 330 653 l 1
 330 637 l 1
 270 631 258 625 258 601 c 0
 258 574 313 391 325 347 c 1
 462 513 l 2
 481 536 513 588 513 606 c 0
 513 623 500 631 471 634 c 0
 467 635 456 636 444 637 c 1
 444 653 l 1
 633 653 l 1
 633 637 l 1
 603 623 595 616 563 576 c 2
 344 306 l 1
 344 306 278 99 278 56 c 0
 278 18 315 20 367 16 c 1
320 706 m 1
 482 866 l 2
 489 872 497 876 507 876 c 0
 527 876 543 860 543 840 c 0
 543 828 538 819 526 812 c 2
 355 706 l 1
 320 706 l 1
EndSplineSet
Validated: 1
EndChar

StartChar: Thorn
Encoding: 222 222 157
Width: 610
Flags: HMW
HStem: 0 21G<0 245 0 0> 170 36<294.5 319 252.5 371.5> 488 30<315 357.5 302 369> 633 20G<146 384 384 384>
VStem: 466 103<301.5 418>
LayerCount: 2
Fore
SplineSet
569 366 m 0
 569 228 431 170 312 170 c 0
 306.615384615 170 301.183431953 169.976331361 295.722348657 169.976331361 c 0
 265.686390533 169.976331361 234.769230769 170.692307692 206 180 c 1
 195 142 177 99 177 59 c 0
 177 18 213 20 245 16 c 1
 245 0 l 1
 0 0 l 1
 0 16 l 1
 57 25 66 32 82 90 c 2
 200 515 l 2
 205 534 217 574 217 592 c 0
 217 633 177 634 146 637 c 1
 146 653 l 1
 384 653 l 1
 384 637 l 1
 309 626 320 588 302 518 c 1
 304.810126582 518 307.649094696 518.001281846 310.513642937 518.001281846 c 0
 420.7987502 518.001281846 569 516.101265823 569 366 c 0
466 371 m 0
 466 465 412 488 326 488 c 0
 304 488 292 480 286 459 c 2
 215 211 l 1
 230 209 245 206 260 206 c 0
 378 206 466 232 466 371 c 0
EndSplineSet
Validated: 524289
EndChar

StartChar: germandbls
Encoding: 223 223 158
Width: 500
Flags: MW
HStem: -207 24<-88.5 -58.5 -88.5 -50> -13 22<244.5 262 244.5 305> 369 28 656 23<322 371>
VStem: -168 67<-177.5 -132> 161 82<50 67> 260 70<381 384 381 389> 367 87<228 267 188.5 297> 413 80<523.5 587 511.5 602.5>
LayerCount: 2
Fore
SplineSet
-89 -139 m 0xfe80
 -89 -157 -101 -167 -101 -175 c 0
 -101 -180 -94 -183 -83 -183 c 0
 -34 -183 -7 -139 23 -4 c 2
 95 315 l 2
 153 571 230 679 354 679 c 0
 437 679 493 626 493 548 c 0xfe80
 493 475 448 428 338 387 c 2
 330 384 l 1
 330 381 l 1
 361 377 377 372 395 360 c 0
 430 336 454 290 454 244 c 0
 454 133 369 -13 241 -13 c 0
 193 -13 161 14 161 53 c 0
 161 81 179 100 205 100 c 0
 228 100 243 84 243 60 c 0
 243 40 231 30 231 22 c 0
 231 15 240 9 249 9 c 0
 275 9 300 28 320 63 c 0
 348 113 367 194 367 262 c 0xff
 367 332 341 367 286 369 c 0
 266 370 260 374 260 384 c 0
 260 394 264 397 277 397 c 0
 358 397 413 470 413 577 c 0
 413 628 391 656 351 656 c 0
 293 656 244 582 206 438 c 2
 95 12 l 2
 59 -125 -10 -207 -90 -207 c 0
 -137 -207 -168 -182 -168 -145 c 0
 -168 -119 -153 -103 -129 -103 c 0
 -106 -103 -89 -118 -89 -139 c 0xfe80
EndSplineSet
Validated: 1
EndChar

StartChar: agrave
Encoding: 224 224 159
Width: 500
Flags: MW
HStem: -11 49<140.5 165> 419 22<251 319 231 327.5> 644 20<230 247.5>
VStem: 17 84<90.5 157 90.5 174> 297 73<50 50.5>
LayerCount: 2
Fore
SplineSet
476 100 m 1
 445 62 393 -10 339 -10 c 0
 307 -10 297 3 297 33 c 0
 297 68 309 105 318 139 c 1
 316 141 l 1
 271 74 210 -11 120 -11 c 0
 45 -11 17 39 17 107 c 0
 17 241 159 441 303 441 c 0
 335 441 378 423 382 387 c 1
 384 387 l 1
 394 431 l 1
 397 434 l 1
 458 441 l 1
 465 438 l 1
 447 368 370 102 370 54 c 0
 370 46 377 41 384 41 c 0
 401 41 452 98 464 110 c 1
 476 100 l 1
365 352 m 0
 365 388 347 419 308 419 c 0
 194 419 101 205 101 109 c 0
 101 72 120 38 161 38 c 0
 270 38 365 260 365 352 c 0
364 492 m 1
 224 598 l 2
 211 608 205 618 205 630 c 0
 205 649 220 664 240 664 c 0
 255 664 266 657 279 641 c 2
 395 492 l 1
 364 492 l 1
EndSplineSet
Validated: 1
EndChar

StartChar: aacute
Encoding: 225 225 160
Width: 500
Flags: MW
HStem: -11 49<140.5 165> 419 22<251 319 231 327.5> 644 20<446 461>
VStem: 17 84<90.5 157 90.5 174> 297 73<50 50.5>
LayerCount: 2
Fore
SplineSet
476 100 m 1
 445 62 393 -10 339 -10 c 0
 307 -10 297 3 297 33 c 0
 297 68 309 105 318 139 c 1
 316 141 l 1
 271 74 210 -11 120 -11 c 0
 45 -11 17 39 17 107 c 0
 17 241 159 441 303 441 c 0
 335 441 378 423 382 387 c 1
 384 387 l 1
 394 431 l 1
 397 434 l 1
 458 441 l 1
 465 438 l 1
 447 368 370 102 370 54 c 0
 370 46 377 41 384 41 c 0
 401 41 452 98 464 110 c 1
 476 100 l 1
365 352 m 0
 365 388 347 419 308 419 c 0
 194 419 101 205 101 109 c 0
 101 72 120 38 161 38 c 0
 270 38 365 260 365 352 c 0
264 494 m 1
 426 654 l 2
 433 660 441 664 451 664 c 0
 471 664 487 648 487 628 c 0
 487 616 482 607 470 600 c 2
 299 494 l 1
 264 494 l 1
EndSplineSet
Validated: 1
EndChar

StartChar: acircumflex
Encoding: 226 226 161
Width: 500
Flags: MW
HStem: -11 49<140.5 165> 419 22<251 319 231 327.5> 641 20<332 381 381 381>
VStem: 17 84<90.5 157 90.5 174> 297 73<50 50.5>
LayerCount: 2
Fore
SplineSet
476 100 m 1
 445 62 393 -10 339 -10 c 0
 307 -10 297 3 297 33 c 0
 297 68 309 105 318 139 c 1
 316 141 l 1
 271 74 210 -11 120 -11 c 0
 45 -11 17 39 17 107 c 0
 17 241 159 441 303 441 c 0
 335 441 378 423 382 387 c 1
 384 387 l 1
 394 431 l 1
 397 434 l 1
 458 441 l 1
 465 438 l 1
 447 368 370 102 370 54 c 0
 370 46 377 41 384 41 c 0
 401 41 452 98 464 110 c 1
 476 100 l 1
365 352 m 0
 365 388 347 419 308 419 c 0
 194 419 101 205 101 109 c 0
 101 72 120 38 161 38 c 0
 270 38 365 260 365 352 c 0
381 661 m 1
 469 492 l 1
 433 492 l 1
 351 596 l 1
 214 492 l 1
 175 492 l 1
 332 661 l 1
 381 661 l 1
EndSplineSet
Validated: 1
EndChar

StartChar: atilde
Encoding: 227 227 162
Width: 500
Flags: MW
HStem: -11 49<140.5 165> 419 22<251 319 231 327.5> 520 60<424.5 440> 564 59<258 272.5>
VStem: 17 84<90.5 157 90.5 174> 297 73<50 50.5>
LayerCount: 2
Fore
SplineSet
476 100 m 1xcc
 445 62 393 -10 339 -10 c 0
 307 -10 297 3 297 33 c 0
 297 68 309 105 318 139 c 1
 316 141 l 1
 271 74 210 -11 120 -11 c 0
 45 -11 17 39 17 107 c 0
 17 241 159 441 303 441 c 0
 335 441 378 423 382 387 c 1
 384 387 l 1
 394 431 l 1
 397 434 l 1
 458 441 l 1
 465 438 l 1
 447 368 370 102 370 54 c 0
 370 46 377 41 384 41 c 0
 401 41 452 98 464 110 c 1
 476 100 l 1xcc
365 352 m 0
 365 388 347 419 308 419 c 0
 194 419 101 205 101 109 c 0
 101 72 120 38 161 38 c 0
 270 38 365 260 365 352 c 0
483 624 m 1x2c
 511 624 l 1
 497 557 464 520 416 520 c 0x2c
 404 520 385 525 359 535 c 0
 305 557 281 564 264 564 c 0
 239 564 223 549 213 517 c 1
 184 517 l 1
 204 594 232 623 284 623 c 0x1c
 306 623 332 616 370 599 c 0
 400 585 417 580 432 580 c 0
 459 580 472 591 483 624 c 1x2c
EndSplineSet
Validated: 1
EndChar

StartChar: adieresis
Encoding: 228 228 163
Width: 500
Flags: MW
HStem: -11 49<140.5 165> 419 22<251 319 231 327.5> 508 98<227 253.5 227 253.5 427 453.5>
VStem: 17 84<90.5 157 90.5 174> 191 98<544 569.5 543.5 571> 297 73<50 50.5> 391 98<544 569.5 543.5 571>
LayerCount: 2
Fore
SplineSet
476 100 m 1
 445 62 393 -10 339 -10 c 0
 307 -10 297 3 297 33 c 0
 297 68 309 105 318 139 c 1
 316 141 l 1
 271 74 210 -11 120 -11 c 0
 45 -11 17 39 17 107 c 0
 17 241 159 441 303 441 c 0
 335 441 378 423 382 387 c 1
 384 387 l 1
 394 431 l 1
 397 434 l 1
 458 441 l 1
 465 438 l 1
 447 368 370 102 370 54 c 0
 370 46 377 41 384 41 c 0
 401 41 452 98 464 110 c 1
 476 100 l 1
365 352 m 0
 365 388 347 419 308 419 c 0
 194 419 101 205 101 109 c 0
 101 72 120 38 161 38 c 0
 270 38 365 260 365 352 c 0
241 606 m 0
 266 606 289 582 289 557 c 0
 289 530 267 508 240 508 c 0
 213 508 191 530 191 558 c 0
 191 584 213 606 241 606 c 0
441 606 m 0
 466 606 489 582 489 557 c 0
 489 530 467 508 440 508 c 0
 413 508 391 530 391 558 c 0
 391 584 413 606 441 606 c 0
EndSplineSet
Validated: 1
EndChar

StartChar: aring
Encoding: 229 229 164
Width: 500
Flags: MW
HStem: -11 49<140.5 165> 419 22<251 319 231 327.5> 508 34<329 366 329 375.5> 673 34<329.5 365.5>
VStem: 17 84<90.5 157 90.5 174> 248 34<589.5 625.5 589.5 635> 297 73<50 50.5> 414 34<588.5 625>
LayerCount: 2
Fore
SplineSet
476 100 m 1
 445 62 393 -10 339 -10 c 0
 307 -10 297 3 297 33 c 0
 297 68 309 105 318 139 c 1
 316 141 l 1
 271 74 210 -11 120 -11 c 0
 45 -11 17 39 17 107 c 0
 17 241 159 441 303 441 c 0
 335 441 378 423 382 387 c 1
 384 387 l 1
 394 431 l 1
 397 434 l 1
 458 441 l 1
 465 438 l 1
 447 368 370 102 370 54 c 0
 370 46 377 41 384 41 c 0
 401 41 452 98 464 110 c 1
 476 100 l 1
365 352 m 0
 365 388 347 419 308 419 c 0
 194 419 101 205 101 109 c 0
 101 72 120 38 161 38 c 0
 270 38 365 260 365 352 c 0
347 707 m 0
 402 707 448 662 448 607 c 0
 448 553 403 508 348 508 c 0
 292 508 248 552 248 608 c 0
 248 662 293 707 347 707 c 0
347 673 m 0
 312 673 282 643 282 608 c 0
 282 571 311 542 347 542 c 0
 385 542 414 570 414 607 c 0
 414 643 384 673 347 673 c 0
EndSplineSet
Validated: 1
EndChar

StartChar: ae
Encoding: 230 230 165
Width: 666
Flags: MW
HStem: -11 50<131.5 139> 416 25<538.5 550.5>
VStem: 23 86<80.5 162> 296 80<104 118> 574 66<351 391>
LayerCount: 2
Fore
SplineSet
588 113 m 1
 598 101 l 1
 542 33 466 -11 403 -11 c 0
 340 -11 296 40 296 111 c 0
 296 125 298 135 302 151 c 1
 217 27 171 -11 107 -11 c 0
 58 -11 23 28 23 83 c 0
 23 241 179 441 303 441 c 0
 337 441 353 430 369 394 c 1
 388 437 l 1
 459 439 l 1
 437 377 l 1
 484 423 518 441 559 441 c 0
 609 441 640 414 640 371 c 0
 640 267 483 227 384 198 c 1
 378 170 376 159 376 137 c 0
 376 71 400 36 446 36 c 0
 489 36 529 57 588 113 c 1
299 421 m 0
 227 421 109 232 109 100 c 0
 109 61 120 39 143 39 c 0
 169 39 200 55 223 80 c 0
 295 158 350 284 350 370 c 0
 350 400 330 421 299 421 c 0
390 223 m 1
 418 231 437 236 450 241 c 0
 523 266 574 323 574 379 c 0
 574 403 562 416 539 416 c 0
 451 416 403 263 390 223 c 1
EndSplineSet
Validated: 1
Ligature2: "'dlig' Discretionary Ligatures in Cyrillic lookup 17 subtable" a e
Ligature2: "'dlig' Discretionary Ligatures in Latin lookup 16 subtable" a e
Ligature2: "'dlig' Discretionary Ligatures lookup 15 subtable" a e
EndChar

StartChar: ccedilla
Encoding: 231 231 166
Width: 443
Flags: MW
HStem: -217 35<105 128 100.5 153.5> -97 34<113 181> -11 36<168 231.5 168 231.5> 420 21<296 327>
VStem: 30 86<103.5 181.5 103.5 217> 164 74<-154 -128> 338 87<347 356.5>
LayerCount: 2
Fore
SplineSet
168 -11 m 1
 131 -66 l 1
 141 -64 148 -63 156 -63 c 0
 206 -63 238 -90 238 -131 c 0
 238 -181 188 -217 119 -217 c 0
 91 -217 68 -212 26 -196 c 1
 43 -167 l 1
 72 -178 90 -182 111 -182 c 0
 145 -182 164 -167 164 -141 c 0
 164 -115 145 -97 118 -97 c 0
 108 -97 100 -99 86 -104 c 1
 77 -96 l 1
 133 -6 l 1
 66 10 30 60 30 139 c 0
 30 295 170 441 320 441 c 0
 380 441 425 406 425 360 c 0
 425 334 404 314 377 314 c 0
 353 314 338 328 338 352 c 0
 338 361 340 368 347 381 c 0
 351 390 353 395 353 400 c 0
 353 412 338 420 316 420 c 0
 276 420 236 402 207 372 c 0
 151 314 116 224 116 139 c 0
 116 68 150 25 207 25 c 0
 256 25 295 47 350 106 c 1
 366 96 l 1
 306 19 252 -11 176 -11 c 2
 168 -11 l 1
EndSplineSet
Validated: 1
Ligature2: "'ccmp' Glyph Composition/Decomposition in Latin lookup 8 subtable" c uni0327
EndChar

StartChar: egrave
Encoding: 232 232 167
Width: 443
Flags: MW
HStem: -11 45<183.5 198.5> 418 23<285.5 321.5> 644 20<234 251.5>
VStem: 31 87<97 131.5 97 201> 346 66<363.5 390.5>
LayerCount: 2
Fore
SplineSet
358 109 m 1
 370 97 l 1
 311 30 234 -11 163 -11 c 0
 85 -11 31 45 31 126 c 0
 31 276 188 441 332 441 c 0
 382 441 412 415 412 373 c 0
 412 287 306 211 156 190 c 2
 128 186 l 1
 120 154 118 139 118 124 c 0
 118 70 155 34 212 34 c 0
 255 34 286 50 358 109 c 1
152 252 m 2
 135 208 l 1
 221 229 259 247 296 282 c 0
 327 312 346 348 346 379 c 0
 346 402 332 418 311 418 c 0
 260 418 186 341 152 252 c 2
368 492 m 1
 228 598 l 2
 215 608 209 618 209 630 c 0
 209 649 224 664 244 664 c 0
 259 664 270 657 283 641 c 2
 399 492 l 1
 368 492 l 1
EndSplineSet
Validated: 1
EndChar

StartChar: eacute
Encoding: 233 233 168
Width: 443
Flags: MW
HStem: -11 45<183.5 198.5> 418 23<285.5 321.5> 644 20<450 465>
VStem: 31 87<97 131.5 97 201> 346 66<363.5 390.5>
LayerCount: 2
Fore
SplineSet
358 109 m 1
 370 97 l 1
 311 30 234 -11 163 -11 c 0
 85 -11 31 45 31 126 c 0
 31 276 188 441 332 441 c 0
 382 441 412 415 412 373 c 0
 412 287 306 211 156 190 c 2
 128 186 l 1
 120 154 118 139 118 124 c 0
 118 70 155 34 212 34 c 0
 255 34 286 50 358 109 c 1
152 252 m 2
 135 208 l 1
 221 229 259 247 296 282 c 0
 327 312 346 348 346 379 c 0
 346 402 332 418 311 418 c 0
 260 418 186 341 152 252 c 2
268 494 m 1
 430 654 l 2
 437 660 445 664 455 664 c 0
 475 664 491 648 491 628 c 0
 491 616 486 607 474 600 c 2
 303 494 l 1
 268 494 l 1
EndSplineSet
Validated: 1
EndChar

StartChar: ecircumflex
Encoding: 234 234 169
Width: 443
Flags: MW
HStem: -11 45<183.5 198.5> 418 23<285.5 321.5> 641 20<336 385 385 385>
VStem: 31 87<97 131.5 97 201> 346 66<363.5 390.5>
LayerCount: 2
Fore
SplineSet
358 109 m 1
 370 97 l 1
 311 30 234 -11 163 -11 c 0
 85 -11 31 45 31 126 c 0
 31 276 188 441 332 441 c 0
 382 441 412 415 412 373 c 0
 412 287 306 211 156 190 c 2
 128 186 l 1
 120 154 118 139 118 124 c 0
 118 70 155 34 212 34 c 0
 255 34 286 50 358 109 c 1
152 252 m 2
 135 208 l 1
 221 229 259 247 296 282 c 0
 327 312 346 348 346 379 c 0
 346 402 332 418 311 418 c 0
 260 418 186 341 152 252 c 2
385 661 m 1
 473 492 l 1
 437 492 l 1
 355 596 l 1
 218 492 l 1
 179 492 l 1
 336 661 l 1
 385 661 l 1
EndSplineSet
Validated: 1
EndChar

StartChar: edieresis
Encoding: 235 235 170
Width: 443
Flags: MW
HStem: -11 45<183.5 198.5> 418 23<285.5 321.5> 508 98<231 257.5 231 257.5 431 457.5>
VStem: 31 87<97 131.5 97 201> 346 66<363.5 390.5>
LayerCount: 2
Fore
SplineSet
358 109 m 1
 370 97 l 1
 311 30 234 -11 163 -11 c 0
 85 -11 31 45 31 126 c 0
 31 276 188 441 332 441 c 0
 382 441 412 415 412 373 c 0
 412 287 306 211 156 190 c 2
 128 186 l 1
 120 154 118 139 118 124 c 0
 118 70 155 34 212 34 c 0
 255 34 286 50 358 109 c 1
152 252 m 2
 135 208 l 1
 221 229 259 247 296 282 c 0
 327 312 346 348 346 379 c 0
 346 402 332 418 311 418 c 0
 260 418 186 341 152 252 c 2
245 606 m 0
 270 606 293 582 293 557 c 0
 293 530 271 508 244 508 c 0
 217 508 195 530 195 558 c 0
 195 584 217 606 245 606 c 0
445 606 m 0
 470 606 493 582 493 557 c 0
 493 530 471 508 444 508 c 0
 417 508 395 530 395 558 c 0
 395 584 417 606 445 606 c 0
EndSplineSet
Validated: 1
EndChar

StartChar: igrave
Encoding: 236 236 171
Width: 277
Flags: HMW
HStem: -11 47<80 144.5> 644 20<94 111.5>
VStem: 49 75<47.5 56 47.5 56>
LayerCount: 2
Fore
SplineSet
124 51 m 0
 124 44 132 36 140 36 c 0
 149 36 164 46 181 63 c 0
 191 74 198 82 222 114 c 1
 235 103 l 1
 178 19 141 -11 95 -11 c 0
 65 -11 49 9 49 46 c 0
 49 66 55 97 71 155 c 2
 119 332 l 2
 125 352 128 368 128 376 c 0
 128 396 118 399 65 400 c 1
 65 416 l 1
 104 419 124 422 225 441 c 1
 228 439 l 1
 140 117 l 2
 120 44 124 61 124 51 c 0
228 492 m 1
 88 598 l 2
 75 608 69 618 69 630 c 0
 69 649 84 664 104 664 c 0
 119 664 130 657 143 641 c 2
 259 492 l 1
 228 492 l 1
EndSplineSet
Validated: 33
EndChar

StartChar: iacute
Encoding: 237 237 172
Width: 277
Flags: HMW
HStem: -11 47<80 144.5> 644 20<310 325>
VStem: 49 75<47.5 56 47.5 56>
LayerCount: 2
Fore
SplineSet
124 51 m 0
 124 44 132 36 140 36 c 0
 149 36 164 46 181 63 c 0
 191 74 198 82 222 114 c 1
 235 103 l 1
 178 19 141 -11 95 -11 c 0
 65 -11 49 9 49 46 c 0
 49 66 55 97 71 155 c 2
 119 332 l 2
 125 352 128 368 128 376 c 0
 128 396 118 399 65 400 c 1
 65 416 l 1
 104 419 124 422 225 441 c 1
 228 439 l 1
 140 117 l 2
 120 44 124 61 124 51 c 0
128 494 m 1
 290 654 l 2
 297 660 305 664 315 664 c 0
 335 664 351 648 351 628 c 0
 351 616 346 607 334 600 c 2
 163 494 l 1
 128 494 l 1
EndSplineSet
Validated: 33
Substitution2: "'locl' Localized Forms in Cyrillic lookup 36 subtable" iacute.locl
Substitution2: "'aalt' Access All Alternates lookup 0 subtable" iacute.locl
EndChar

StartChar: icircumflex
Encoding: 238 238 173
Width: 277
Flags: HMW
HStem: -11 47<80 144.5> 641 20<196 245 245 245>
VStem: 49 75<47.5 56 47.5 56>
LayerCount: 2
Fore
SplineSet
124 51 m 0
 124 44 132 36 140 36 c 0
 149 36 164 46 181 63 c 0
 191 74 198 82 222 114 c 1
 235 103 l 1
 178 19 141 -11 95 -11 c 0
 65 -11 49 9 49 46 c 0
 49 66 55 97 71 155 c 2
 119 332 l 2
 125 352 128 368 128 376 c 0
 128 396 118 399 65 400 c 1
 65 416 l 1
 104 419 124 422 225 441 c 1
 228 439 l 1
 140 117 l 2
 120 44 124 61 124 51 c 0
245 661 m 1
 333 492 l 1
 297 492 l 1
 215 596 l 1
 78 492 l 1
 39 492 l 1
 196 661 l 1
 245 661 l 1
EndSplineSet
Validated: 33
EndChar

StartChar: idieresis
Encoding: 239 239 174
Width: 277
Flags: HMW
HStem: -11 47<80 144.5> 508 98<91 117.5 91 117.5 291 317.5>
VStem: 49 75<47.5 56 47.5 56>
LayerCount: 2
Fore
SplineSet
124 51 m 0
 124 44 132 36 140 36 c 0
 149 36 164 46 181 63 c 0
 191 74 198 82 222 114 c 1
 235 103 l 1
 178 19 141 -11 95 -11 c 0
 65 -11 49 9 49 46 c 0
 49 66 55 97 71 155 c 2
 119 332 l 2
 125 352 128 368 128 376 c 0
 128 396 118 399 65 400 c 1
 65 416 l 1
 104 419 124 422 225 441 c 1
 228 439 l 1
 140 117 l 2
 120 44 124 61 124 51 c 0
105 606 m 0
 130 606 153 582 153 557 c 0
 153 530 131 508 104 508 c 0
 77 508 55 530 55 558 c 0
 55 584 77 606 105 606 c 0
305 606 m 0
 330 606 353 582 353 557 c 0
 353 530 331 508 304 508 c 0
 277 508 255 530 255 558 c 0
 255 584 277 606 305 606 c 0
EndSplineSet
Validated: 33
EndChar

StartChar: eth
Encoding: 240 240 175
Width: 500
Flags: MW
HStem: -11 21<165.5 210.5 165.5 252.5> 420 21<291.5 329 241.5 334.5>
VStem: 27 84<86 138 74 204.5> 384 83<289.5 354.5>
LayerCount: 2
Fore
SplineSet
324 567 m 1
 207 516 l 1
 174 545 l 1
 297 599 l 1
 262 632 236 649 194 666 c 1
 229 683 l 1
 274 673 311 655 351 622 c 1
 450 665 l 1
 482 637 l 1
 381 592 l 1
 442 519 467 452 467 359 c 0
 467 161 331 -11 174 -11 c 0
 83 -11 27 43 27 129 c 0
 27 280 173 441 310 441 c 0
 348 441 377 424 394 392 c 1
 396 393 l 1
 386 462 364 515 324 567 c 1
313 420 m 0
 270 420 228 390 189 334 c 0
 141 263 111 175 111 101 c 0
 111 47 142 10 189 10 c 0
 232 10 270 35 306 88 c 0
 351 152 384 253 384 326 c 0
 384 383 356 420 313 420 c 0
EndSplineSet
Validated: 1
EndChar

StartChar: ntilde
Encoding: 241 241 176
Width: 500
Flags: MW
HStem: -9 47<317.5 385> 390 51<344 344.5> 520 60<396.5 412> 564 59<230 244.5>
LayerCount: 2
Fore
SplineSet
460 117 m 1xc0
 474 104 l 1
 405 12 379 -9 334 -9 c 0
 301 -9 287 7 287 45 c 0
 287 55 290 69 303 120 c 2
 347 285 l 2
 355 316 361 349 361 361 c 0
 361 379 352 390 337 390 c 0
 300 390 249 340 189 248 c 0
 145 180 136 158 89 0 c 1
 14 0 l 1
 110 350 l 2
 111 355 112 361 112 367 c 0
 112 387 99 393 48 394 c 1
 48 410 l 1
 135 426 156 430 210 441 c 1
 213 439 l 1
 146 221 l 1
 249 381 312 441 376 441 c 0
 415 441 442 416 442 380 c 0
 442 366 438 344 433 323 c 2
 376 117 l 2
 362 61 362 61 362 54 c 0
 362 46 370 38 378 38 c 0
 392 38 410 54 439 91 c 2
 460 117 l 1xc0
455 624 m 1x20
 483 624 l 1
 469 557 436 520 388 520 c 0x20
 376 520 357 525 331 535 c 0
 277 557 253 564 236 564 c 0
 211 564 195 549 185 517 c 1
 156 517 l 1
 176 594 204 623 256 623 c 0x10
 278 623 304 616 342 599 c 0
 372 585 389 580 404 580 c 0
 431 580 444 591 455 624 c 1x20
EndSplineSet
Validated: 1
EndChar

StartChar: ograve
Encoding: 242 242 177
Width: 500
Flags: MW
HStem: -11 21<163.5 248> 420 21<253.5 340> 644 20<248 265.5>
VStem: 27 84<85.5 153 78 205.5> 384 84<275.5 339 224.5 346>
LayerCount: 2
Fore
SplineSet
468 293 m 0
 468 156 318 -11 178 -11 c 0
 85 -11 27 38 27 133 c 0
 27 278 173 441 321 441 c 0
 414 441 468 385 468 293 c 0
384 324 m 0
 384 368 366 420 314 420 c 0
 193 420 111 203 111 103 c 0
 111 53 136 10 191 10 c 0
 310 10 384 227 384 324 c 0
382 492 m 1
 242 598 l 2
 229 608 223 618 223 630 c 0
 223 649 238 664 258 664 c 0
 273 664 284 657 297 641 c 2
 413 492 l 1
 382 492 l 1
EndSplineSet
Validated: 1
EndChar

StartChar: oacute
Encoding: 243 243 178
Width: 500
Flags: MW
HStem: -11 21<163.5 248> 420 21<253.5 340> 644 20<464 479>
VStem: 27 84<85.5 153 78 205.5> 384 84<275.5 339 224.5 346>
LayerCount: 2
Fore
SplineSet
468 293 m 0
 468 156 318 -11 178 -11 c 0
 85 -11 27 38 27 133 c 0
 27 278 173 441 321 441 c 0
 414 441 468 385 468 293 c 0
384 324 m 0
 384 368 366 420 314 420 c 0
 193 420 111 203 111 103 c 0
 111 53 136 10 191 10 c 0
 310 10 384 227 384 324 c 0
282 494 m 1
 444 654 l 2
 451 660 459 664 469 664 c 0
 489 664 505 648 505 628 c 0
 505 616 500 607 488 600 c 2
 317 494 l 1
 282 494 l 1
EndSplineSet
Validated: 1
EndChar

StartChar: ocircumflex
Encoding: 244 244 179
Width: 500
Flags: MW
HStem: -11 21<163.5 248> 420 21<253.5 340> 641 20<350 399 399 399>
VStem: 27 84<85.5 153 78 205.5> 384 84<275.5 339 224.5 346>
LayerCount: 2
Fore
SplineSet
468 293 m 0
 468 156 318 -11 178 -11 c 0
 85 -11 27 38 27 133 c 0
 27 278 173 441 321 441 c 0
 414 441 468 385 468 293 c 0
384 324 m 0
 384 368 366 420 314 420 c 0
 193 420 111 203 111 103 c 0
 111 53 136 10 191 10 c 0
 310 10 384 227 384 324 c 0
399 661 m 1
 487 492 l 1
 451 492 l 1
 369 596 l 1
 232 492 l 1
 193 492 l 1
 350 661 l 1
 399 661 l 1
EndSplineSet
Validated: 1
EndChar

StartChar: otilde
Encoding: 245 245 180
Width: 500
Flags: MW
HStem: -11 21<163.5 248> 420 21<253.5 340> 520 60<442.5 458> 564 59<276 290.5>
VStem: 27 84<85.5 153 78 205.5> 384 84<275.5 339 224.5 346>
LayerCount: 2
Fore
SplineSet
468 293 m 0xcc
 468 156 318 -11 178 -11 c 0
 85 -11 27 38 27 133 c 0
 27 278 173 441 321 441 c 0
 414 441 468 385 468 293 c 0xcc
384 324 m 0
 384 368 366 420 314 420 c 0
 193 420 111 203 111 103 c 0
 111 53 136 10 191 10 c 0
 310 10 384 227 384 324 c 0
501 624 m 1x2c
 529 624 l 1
 515 557 482 520 434 520 c 0x2c
 422 520 403 525 377 535 c 0
 323 557 299 564 282 564 c 0
 257 564 241 549 231 517 c 1
 202 517 l 1
 222 594 250 623 302 623 c 0x1c
 324 623 350 616 388 599 c 0
 418 585 435 580 450 580 c 0
 477 580 490 591 501 624 c 1x2c
EndSplineSet
Validated: 1
EndChar

StartChar: odieresis
Encoding: 246 246 181
Width: 500
Flags: MW
HStem: -11 21<163.5 248> 420 21<253.5 340> 508 98<245 271.5 245 271.5 445 471.5>
VStem: 27 84<85.5 153 78 205.5> 384 84<275.5 339 224.5 346>
LayerCount: 2
Fore
SplineSet
468 293 m 0
 468 156 318 -11 178 -11 c 0
 85 -11 27 38 27 133 c 0
 27 278 173 441 321 441 c 0
 414 441 468 385 468 293 c 0
384 324 m 0
 384 368 366 420 314 420 c 0
 193 420 111 203 111 103 c 0
 111 53 136 10 191 10 c 0
 310 10 384 227 384 324 c 0
259 606 m 0
 284 606 307 582 307 557 c 0
 307 530 285 508 258 508 c 0
 231 508 209 530 209 558 c 0
 209 584 231 606 259 606 c 0
459 606 m 0
 484 606 507 582 507 557 c 0
 507 530 485 508 458 508 c 0
 431 508 409 530 409 558 c 0
 409 584 431 606 459 606 c 0
EndSplineSet
Validated: 1
EndChar

StartChar: divide
Encoding: 247 247 182
Width: 674
Flags: MW
HStem: -11 111<323 352> 220 66<86 590 86 590> 406 111<323 352.5>
VStem: 283 111<28.5 58.5 445.5 475.5>
CounterMasks: 1 e0
LayerCount: 2
Fore
SplineSet
338 100 m 0
 368 100 394 74 394 43 c 0
 394 13 368 -11 336 -11 c 0
 308 -11 283 14 283 43 c 0
 283 74 308 100 338 100 c 0
590 220 m 1
 86 220 l 1
 86 286 l 1
 590 286 l 1
 590 220 l 1
338 517 m 0
 368 517 394 491 394 460 c 0
 394 431 368 406 337 406 c 0
 308 406 283 431 283 460 c 0
 283 491 308 517 338 517 c 0
EndSplineSet
Validated: 1
EndChar

StartChar: oslash
Encoding: 248 248 183
Width: 500
Flags: MW
HStem: -11 21<184.5 207> 420 21<301.5 319>
VStem: 28 84<110.5 144.5 83.5 206.5> 385 84<288.5 311.5 260 342.5>
LayerCount: 2
Fore
SplineSet
428 554 m 1
 370 435 l 1
 411 423 430 409 448 379 c 0
 461 357 469 325 469 298 c 0
 469 222 425 133 355 68 c 0
 298 16 238 -11 176 -11 c 0
 167 -11 162 -11 156 -9 c 1
 95 -135 l 1
 60 -135 l 1
 124 -4 l 1
 93 6 80 14 65 30 c 0
 41 55 28 91 28 130 c 0
 28 283 178 441 323 441 c 0
 327 441 332 441 339 440 c 1
 394 554 l 1
 428 554 l 1
140 29 m 1
 328 418 l 1
 323 419 320 420 318 420 c 0
 285 420 250 403 223 374 c 0
 157 304 112 192 112 97 c 0
 112 70 121 48 140 29 c 1
357 406 m 1
 167 14 l 1
 175 11 180 10 189 10 c 0
 233 10 271 34 308 87 c 0
 353 152 385 252 385 325 c 0
 385 360 376 385 357 406 c 1
EndSplineSet
Validated: 1
EndChar

StartChar: ugrave
Encoding: 249 249 184
Width: 500
Flags: MW
HStem: -11 53<77.5 156> 412 20<391 465 465 465> 644 20<216 233.5>
VStem: 42 77<26 69> 289 78<24 58>
LayerCount: 2
Fore
SplineSet
118 376 m 0
 118 396 99 400 58 400 c 1
 58 414 l 1
 115 421 151 428 208 441 c 1
 211 439 l 1
 120 76 l 2
 119 73 119 71 119 67 c 0
 119 52 128 42 140 42 c 0
 172 42 221 93 281 188 c 0
 327 261 334 277 391 432 c 1
 465 432 l 1
 386 133 l 2
 367 61 367 61 367 55 c 0
 367 44 371 38 378 38 c 0
 394 38 409 52 461 117 c 1
 475 108 l 1
 407 11 384 -9 337 -9 c 0
 307 -9 289 9 289 39 c 0
 289 60 305 129 334 236 c 1
 219 43 166 -11 95 -11 c 0
 60 -11 42 8 42 44 c 0
 42 62 49 96 67 167 c 2
 104 309 l 2
 113 343 118 368 118 376 c 0
350 492 m 1
 210 598 l 2
 197 608 191 618 191 630 c 0
 191 649 206 664 226 664 c 0
 241 664 252 657 265 641 c 2
 381 492 l 1
 350 492 l 1
EndSplineSet
Validated: 1
EndChar

StartChar: uacute
Encoding: 250 250 185
Width: 500
Flags: MW
HStem: -11 53<77.5 156> 412 20<391 465 465 465> 644 20<432 447>
VStem: 42 77<26 69> 289 78<24 58>
LayerCount: 2
Fore
SplineSet
118 376 m 0
 118 396 99 400 58 400 c 1
 58 414 l 1
 115 421 151 428 208 441 c 1
 211 439 l 1
 120 76 l 2
 119 73 119 71 119 67 c 0
 119 52 128 42 140 42 c 0
 172 42 221 93 281 188 c 0
 327 261 334 277 391 432 c 1
 465 432 l 1
 386 133 l 2
 367 61 367 61 367 55 c 0
 367 44 371 38 378 38 c 0
 394 38 409 52 461 117 c 1
 475 108 l 1
 407 11 384 -9 337 -9 c 0
 307 -9 289 9 289 39 c 0
 289 60 305 129 334 236 c 1
 219 43 166 -11 95 -11 c 0
 60 -11 42 8 42 44 c 0
 42 62 49 96 67 167 c 2
 104 309 l 2
 113 343 118 368 118 376 c 0
250 494 m 1
 412 654 l 2
 419 660 427 664 437 664 c 0
 457 664 473 648 473 628 c 0
 473 616 468 607 456 600 c 2
 285 494 l 1
 250 494 l 1
EndSplineSet
Validated: 1
EndChar

StartChar: ucircumflex
Encoding: 251 251 186
Width: 500
Flags: MW
HStem: -11 53<77.5 156> 412 20<391 465 465 465> 641 20<318 367 367 367>
VStem: 42 77<26 69> 289 78<24 58>
LayerCount: 2
Fore
SplineSet
118 376 m 0
 118 396 99 400 58 400 c 1
 58 414 l 1
 115 421 151 428 208 441 c 1
 211 439 l 1
 120 76 l 2
 119 73 119 71 119 67 c 0
 119 52 128 42 140 42 c 0
 172 42 221 93 281 188 c 0
 327 261 334 277 391 432 c 1
 465 432 l 1
 386 133 l 2
 367 61 367 61 367 55 c 0
 367 44 371 38 378 38 c 0
 394 38 409 52 461 117 c 1
 475 108 l 1
 407 11 384 -9 337 -9 c 0
 307 -9 289 9 289 39 c 0
 289 60 305 129 334 236 c 1
 219 43 166 -11 95 -11 c 0
 60 -11 42 8 42 44 c 0
 42 62 49 96 67 167 c 2
 104 309 l 2
 113 343 118 368 118 376 c 0
367 661 m 1
 455 492 l 1
 419 492 l 1
 337 596 l 1
 200 492 l 1
 161 492 l 1
 318 661 l 1
 367 661 l 1
EndSplineSet
Validated: 1
EndChar

StartChar: udieresis
Encoding: 252 252 187
Width: 500
Flags: MW
HStem: -11 53<77.5 156> 412 20<391 465 465 465> 508 98<213 239.5 213 239.5 413 439.5>
VStem: 42 77<26 69> 177 98<544 569.5 543.5 571> 289 78<24 58> 377 98<544 569.5>
LayerCount: 2
Fore
SplineSet
118 376 m 0
 118 396 99 400 58 400 c 1
 58 414 l 1
 115 421 151 428 208 441 c 1
 211 439 l 1
 120 76 l 2
 119 73 119 71 119 67 c 0
 119 52 128 42 140 42 c 0
 172 42 221 93 281 188 c 0
 327 261 334 277 391 432 c 1
 465 432 l 1
 386 133 l 2
 367 61 367 61 367 55 c 0
 367 44 371 38 378 38 c 0
 394 38 409 52 461 117 c 1
 475 108 l 1
 407 11 384 -9 337 -9 c 0
 307 -9 289 9 289 39 c 0
 289 60 305 129 334 236 c 1
 219 43 166 -11 95 -11 c 0
 60 -11 42 8 42 44 c 0
 42 62 49 96 67 167 c 2
 104 309 l 2
 113 343 118 368 118 376 c 0
227 606 m 0
 252 606 275 582 275 557 c 0
 275 530 253 508 226 508 c 0
 199 508 177 530 177 558 c 0
 177 584 199 606 227 606 c 0
427 606 m 0
 452 606 475 582 475 557 c 0
 475 530 453 508 426 508 c 0
 399 508 377 530 377 558 c 0
 377 584 399 606 427 606 c 0
EndSplineSet
Validated: 1
EndChar

StartChar: yacute
Encoding: 253 253 188
Width: 443
Flags: HMW
HStem: -206 83<12.5 26.5 4 59> 404 36 644 20<398 413>
VStem: 332 94<383.5 401 361.5 415>
LayerCount: 2
Fore
SplineSet
158 441 m 2
 173 442 229 276 244 188 c 2
 264 72 l 1
 349 213 386 291 386 331 c 0
 386 368 332 363 332 404 c 0
 332 426 348 441 371 441 c 0
 401 441 426 416 426 386 c 0
 426 337 398 265 330 142 c 0
 222 -56 91 -206 27 -206 c 0
 -2 -206 -24 -187 -24 -162 c 0
 -24 -140 -7 -123 15 -123 c 0
 38 -123 62 -151 76 -151 c 0
 99 -151 120 -127 184 -42 c 0
 199 -24 205 -8 205 8 c 0
 205 25 181 142 164 207 c 0
 118 379 103 404 46 404 c 0
 35 404 28 403 15 400 c 1
 15 417 l 1
 26 419 118 437 145 440 c 0
 149 440 158 441 158 441 c 2
216 494 m 1
 378 654 l 2
 385 660 393 664 403 664 c 0
 423 664 439 648 439 628 c 0
 439 616 434 607 422 600 c 2
 251 494 l 1
 216 494 l 1
EndSplineSet
Validated: 33
EndChar

StartChar: thorn
Encoding: 254 254 189
Width: 500
Flags: HMW
HStem: -205 21G<-75 130 -75 -75> -11 19<159 231 155.5 245.5> 398 43<316 340.5>
VStem: 379 90<259 336>
LayerCount: 2
Fore
SplineSet
469 310 m 0
 469 167 320 -11 171 -11 c 0
 147 -11 124 -5 103 6 c 1
 94 -27 66 -130 66 -158 c 0
 66 -185.868068804 97.0955074346 -190.224900279 120.317213843 -190.224900279 c 0
 123.760240119 -190.224900279 127.030174453 -190.12912285 130 -190 c 1
 130 -205 l 1
 -75 -205 l 1
 -75 -189 l 1
 -73.8803172799 -189.023823037 -72.7816334316 -189.035727795 -71.703448198 -189.035727795 c 0
 -27.5235392681 -189.035727795 -17.761769634 -169.047078536 -8 -130 c 0
 49 96 110 322 172 547 c 0
 177 565 188 596 188 614 c 0
 188 640.272727273 163.518595041 643.258264463 141.317054846 643.258264463 c 0
 134.787190083 643.258264463 128.454545455 643 123 643 c 1
 123 660 l 1
 174 666 225 673 275 683 c 1
 280 678 l 1
 251 564 226 446 189 335 c 1
 191 333 l 1
 223 389 282 441 350 441 c 0
 433 441 469 388 469 310 c 0
379 313 m 0
 379 359 368 398 313 398 c 0
 253 398 203 335 182 284 c 0
 164 239 117 90 117 45 c 0
 117 18 144 8 167 8 c 0
 295 8 379 205 379 313 c 0
EndSplineSet
Validated: 524289
EndChar

StartChar: ydieresis
Encoding: 255 255 190
Width: 443
Flags: HMW
HStem: -206 83<12.5 26.5 4 59> 404 36 508 98<179 205.5 179 205.5 379 405.5>
VStem: 332 94<383.5 401 361.5 415>
LayerCount: 2
Fore
SplineSet
158 441 m 2
 173 442 229 276 244 188 c 2
 264 72 l 1
 349 213 386 291 386 331 c 0
 386 368 332 363 332 404 c 0
 332 426 348 441 371 441 c 0
 401 441 426 416 426 386 c 0
 426 337 398 265 330 142 c 0
 222 -56 91 -206 27 -206 c 0
 -2 -206 -24 -187 -24 -162 c 0
 -24 -140 -7 -123 15 -123 c 0
 38 -123 62 -151 76 -151 c 0
 99 -151 120 -127 184 -42 c 0
 199 -24 205 -8 205 8 c 0
 205 25 181 142 164 207 c 0
 118 379 103 404 46 404 c 0
 35 404 28 403 15 400 c 1
 15 417 l 1
 26 419 118 437 145 440 c 0
 149 440 158 441 158 441 c 2
193 606 m 0
 218 606 241 582 241 557 c 0
 241 530 219 508 192 508 c 0
 165 508 143 530 143 558 c 0
 143 584 165 606 193 606 c 0
393 606 m 0
 418 606 441 582 441 557 c 0
 441 530 419 508 392 508 c 0
 365 508 343 530 343 558 c 0
 343 584 365 606 393 606 c 0
EndSplineSet
Validated: 33
Ligature2: "'ccmp' Glyph Composition/Decomposition in Latin lookup 8 subtable" y diaeresiscomb
EndChar

StartChar: Amacron
Encoding: 256 256 191
Width: 630
Flags: MW
HStem: 0 21<-31 156 -31 -31 338 584 338 338> 226 36<200 387 200 393 179 387> 744 54<266 563 252 577>
LayerCount: 2
Fore
SplineSet
584 16 m 1
 584 0 l 1
 338 0 l 1
 338 16 l 1
 402 22 416 31 416 69 c 0
 416 77 415 86 414 95 c 2
 393 226 l 1
 179 226 l 1
 117 113 l 2
 100 79 97 70 97 51 c 0
 97 26 105 21 156 16 c 1
 156 0 l 1
 -31 0 l 1
 -31 16 l 1
 8 32 34 47 103 168 c 2
 388 668 l 1
 414 668 l 1
 508 102 l 2
 521 29 527 21 584 16 c 1
200 262 m 1
 387 262 l 1
 345 522 l 1
 200 262 l 1
577 798 m 1
 563 744 l 1
 252 744 l 1
 266 798 l 1
 577 798 l 1
EndSplineSet
Validated: 1
EndChar

StartChar: amacron
Encoding: 257 257 192
Width: 500
Flags: MW
HStem: -11 49<140.5 165> 419 22<251 319 231 327.5> 532 54<190 487 176 501>
VStem: 17 84<90.5 157 90.5 174> 297 73<50 50.5>
LayerCount: 2
Fore
SplineSet
476 100 m 1
 445 62 393 -10 339 -10 c 0
 307 -10 297 3 297 33 c 0
 297 68 309 105 318 139 c 1
 316 141 l 1
 271 74 210 -11 120 -11 c 0
 45 -11 17 39 17 107 c 0
 17 241 159 441 303 441 c 0
 335 441 378 423 382 387 c 1
 384 387 l 1
 394 431 l 1
 397 434 l 1
 458 441 l 1
 465 438 l 1
 447 368 370 102 370 54 c 0
 370 46 377 41 384 41 c 0
 401 41 452 98 464 110 c 1
 476 100 l 1
365 352 m 0
 365 388 347 419 308 419 c 0
 194 419 101 205 101 109 c 0
 101 72 120 38 161 38 c 0
 270 38 365 260 365 352 c 0
501 586 m 1
 487 532 l 1
 176 532 l 1
 190 586 l 1
 501 586 l 1
EndSplineSet
Validated: 1
EndChar

StartChar: Abreve
Encoding: 258 258 193
Width: 630
Flags: HMW
HStem: 0 21<-31 156 -31 -31 338 584 338 338> 226 36<200 387 200 393 179 387> 705 60<395.5 453.5>
LayerCount: 2
Fore
SplineSet
584 16 m 1
 584 0 l 1
 338 0 l 1
 338 16 l 1
 402 22 416 31 416 69 c 0
 416 77 415 86 414 95 c 2
 393 226 l 1
 179 226 l 1
 117 113 l 2
 100 79 97 70 97 51 c 0
 97 26 105 21 156 16 c 1
 156 0 l 1
 -31 0 l 1
 -31 16 l 1
 8 32 34 47 103 168 c 2
 388 668 l 1
 414 668 l 1
 508 102 l 2
 521 29 527 21 584 16 c 1
200 262 m 1
 387 262 l 1
 345 522 l 1
 200 262 l 1
588 861 m 1
 558 777 502 705 405 705 c 0
 340 705 298 742 298 808 c 0
 298 821 301 850 307 861 c 1
 336 861 l 1
 335 847 l 2
 334.886205071 844.913759643 334.829962524 842.867805952 334.829962524 840.862084352 c 0
 334.829962524 789.990539143 371.010377072 765 422 765 c 0
 494 765 524 806 559 861 c 1
 588 861 l 1
EndSplineSet
Validated: 524289
EndChar

StartChar: abreve
Encoding: 259 259 194
Width: 500
Flags: HMW
HStem: -11 49<140.5 165> 419 22<251 319 231 327.5> 493 60<319.5 377.5>
VStem: 17 84<90.5 157 90.5 174> 297 73<50 50.5>
LayerCount: 2
Fore
SplineSet
476 100 m 1
 445 62 393 -10 339 -10 c 0
 307 -10 297 3 297 33 c 0
 297 68 309 105 318 139 c 1
 316 141 l 1
 271 74 210 -11 120 -11 c 0
 45 -11 17 39 17 107 c 0
 17 241 159 441 303 441 c 0
 335 441 378 423 382 387 c 1
 384 387 l 1
 394 431 l 1
 397 434 l 1
 458 441 l 1
 465 438 l 1
 447 368 370 102 370 54 c 0
 370 46 377 41 384 41 c 0
 401 41 452 98 464 110 c 1
 476 100 l 1
365 352 m 0
 365 388 347 419 308 419 c 0
 194 419 101 205 101 109 c 0
 101 72 120 38 161 38 c 0
 270 38 365 260 365 352 c 0
512 649 m 1
 482 565 426 493 329 493 c 0
 264 493 222 530 222 596 c 0
 222 609 225 638 231 649 c 1
 260 649 l 1
 259 635 l 2
 258.886205071 632.913759643 258.829962524 630.867805952 258.829962524 628.862084352 c 0
 258.829962524 577.990539143 295.010377072 553 346 553 c 0
 418 553 448 594 483 649 c 1
 512 649 l 1
EndSplineSet
Validated: 524289
EndChar

StartChar: Aogonek
Encoding: 260 260 195
Width: 630
Flags: MW
HStem: -169 63<608.5 626> -20 20G<-31 156 -31 -31 338 338 338 535 584 584> 226 36<195 389 195 394 174 389>
VStem: 507 61<-67 -59.5>
LayerCount: 2
Fore
SplineSet
394 226 m 1
 174 226 l 1
 117 113 l 2
 100 79 97 70 97 51 c 0
 97 26 105 21 156 16 c 1
 156 0 l 1
 -31 0 l 1
 -31 16 l 1
 9 24 20 34 98 168 c 2
 388 668 l 1
 414 668 l 1
 508 102 l 2
 521 29 527 21 584 16 c 1
 584 0 l 1
 573 -11 568 -27 568 -49 c 0
 568 -85 590 -106 627 -106 c 0
 658 -106 683 -96 710 -74 c 1
 727 -92 l 1
 692 -143 650 -169 602 -169 c 0
 550 -169 507 -126 507 -73 c 0
 507 -46 513 -30 535 0 c 1
 338 0 l 1
 338 16 l 1
 402 22 416 31 416 69 c 0
 416 77 415 86 414 95 c 2
 394 226 l 1
195 262 m 1
 389 262 l 1
 345 522 l 1
 195 262 l 1
EndSplineSet
Validated: 1
Ligature2: "'ccmp' Glyph Composition/Decomposition in Latin lookup 8 subtable" A uni0328
EndChar

StartChar: aogonek
Encoding: 261 261 196
Width: 500
Flags: MW
HStem: -169 63<382 399> -11 49<140.5 154> 419 22<251 324.5 237 327.5>
VStem: 17 84<90.5 157 90.5 179> 280 61<-68.5 -61> 297 73<23 64>
LayerCount: 2
Fore
SplineSet
365 352 m 0xf0
 365 388 347 419 308 419 c 0
 194 419 101 205 101 109 c 0
 101 72 120 38 161 38 c 0
 270 38 365 260 365 352 c 0xf0
464 110 m 1
 476 100 l 1
 428 41 399 12 372 -4 c 0
 348 -17 341 -28 341 -52 c 0
 341 -85 364 -106 400 -106 c 0
 431 -106 456 -96 483 -74 c 1
 500 -92 l 1
 465 -143 423 -169 375 -169 c 0
 323 -169 280 -126 280 -74 c 0xf8
 280 -48 288 -26 306 0 c 1
 299 8 297 15 297 31 c 0
 297 55 300 68 320 146 c 1
 232 22 189 -11 119 -11 c 0
 55 -11 17 30 17 100 c 0
 17 258 171 441 303 441 c 0
 346 441 375 420 383 383 c 1
 394 431 l 1
 397 434 l 1
 458 441 l 1
 465 438 l 1
 463 429 462 427 459 417 c 0
 412 245 370 74 370 54 c 0xf4
 370 47 376 41 384 41 c 0
 393 41 406 51 436 82 c 0
 443 90 449 95 464 110 c 1
EndSplineSet
Validated: 1
Ligature2: "'ccmp' Glyph Composition/Decomposition in Latin lookup 8 subtable" a uni0328
EndChar

StartChar: Cacute
Encoding: 262 262 197
Width: 666
Flags: MW
HStem: -18 45<287 386> 630 36<386 500 365.5 530.5> 856 20<612 627>
VStem: 66 112<183 324 183 357.5>
LayerCount: 2
Fore
SplineSet
689 664 m 1
 652 465 l 1
 634 468 l 1
 629 561 581 630 480 630 c 0
 292 630 178 407 178 241 c 0
 178 125 222 27 352 27 c 0
 451 27 516 79 583 145 c 1
 600 131 l 1
 529 46 444 -18 328 -18 c 0
 168 -18 66 93 66 252 c 0
 66 463 259 666 472 666 c 0
 528 666 582 642 628 642 c 0
 644 642 662 647 668 664 c 1
 689 664 l 1
430 706 m 1
 592 866 l 2
 599 872 607 876 617 876 c 0
 637 876 653 860 653 840 c 0
 653 828 648 819 636 812 c 2
 465 706 l 1
 430 706 l 1
EndSplineSet
Validated: 1
EndChar

StartChar: cacute
Encoding: 263 263 198
Width: 443
Flags: MW
HStem: -11 36<171.5 219.5> 420 21<253 321> 644 20<456 471>
VStem: 30 86<116.5 200 116.5 219> 338 87<346.5 363>
LayerCount: 2
Fore
SplineSet
425 360 m 0
 425 333 404 314 378 314 c 0
 355 314 338 327 338 351 c 0
 338 375 353 384 353 400 c 0
 353 417 327 420 315 420 c 0
 191 420 116 253 116 147 c 0
 116 86 136 25 207 25 c 0
 265 25 313 65 350 106 c 1
 366 96 l 1
 317 34 261 -11 178 -11 c 0
 77 -11 30 48 30 147 c 0
 30 291 170 441 316 441 c 0
 365 441 425 418 425 360 c 0
274 494 m 1
 436 654 l 2
 443 660 451 664 461 664 c 0
 481 664 497 648 497 628 c 0
 497 616 492 607 480 600 c 2
 309 494 l 1
 274 494 l 1
EndSplineSet
Validated: 1
EndChar

StartChar: Ccircumflex
Encoding: 264 264 199
Width: 666
Flags: MW
HStem: -18 45<287 386> 630 36<386 500 365.5 530.5> 853 20<498 547 547 547>
VStem: 66 112<183 324 183 357.5>
LayerCount: 2
Fore
SplineSet
689 664 m 1
 652 465 l 1
 634 468 l 1
 629 561 581 630 480 630 c 0
 292 630 178 407 178 241 c 0
 178 125 222 27 352 27 c 0
 451 27 516 79 583 145 c 1
 600 131 l 1
 529 46 444 -18 328 -18 c 0
 168 -18 66 93 66 252 c 0
 66 463 259 666 472 666 c 0
 528 666 582 642 628 642 c 0
 644 642 662 647 668 664 c 1
 689 664 l 1
547 873 m 1
 635 704 l 1
 599 704 l 1
 517 808 l 1
 380 704 l 1
 341 704 l 1
 498 873 l 1
 547 873 l 1
EndSplineSet
Validated: 1
EndChar

StartChar: ccircumflex
Encoding: 265 265 200
Width: 443
Flags: MW
HStem: -11 36<171.5 219.5> 420 21<253 321> 640 20<342 391 391 391>
VStem: 30 86<116.5 200 116.5 219> 338 87<346.5 363>
LayerCount: 2
Fore
SplineSet
425 360 m 0
 425 333 404 314 378 314 c 0
 355 314 338 327 338 351 c 0
 338 375 353 384 353 400 c 0
 353 417 327 420 315 420 c 0
 191 420 116 253 116 147 c 0
 116 86 136 25 207 25 c 0
 265 25 313 65 350 106 c 1
 366 96 l 1
 317 34 261 -11 178 -11 c 0
 77 -11 30 48 30 147 c 0
 30 291 170 441 316 441 c 0
 365 441 425 418 425 360 c 0
391 660 m 1
 479 491 l 1
 443 491 l 1
 361 595 l 1
 224 491 l 1
 185 491 l 1
 342 660 l 1
 391 660 l 1
EndSplineSet
Validated: 1
EndChar

StartChar: Cdotaccent
Encoding: 266 266 201
Width: 666
Flags: MW
HStem: -18 45<287 386> 630 36<386 500 365.5 530.5> 720 96<492.5 519.5>
VStem: 66 112<183 324 183 357.5> 458 96<754.5 781.5>
LayerCount: 2
Fore
SplineSet
689 664 m 1
 652 465 l 1
 634 468 l 1
 629 561 581 630 480 630 c 0
 292 630 178 407 178 241 c 0
 178 125 222 27 352 27 c 0
 451 27 516 79 583 145 c 1
 600 131 l 1
 529 46 444 -18 328 -18 c 0
 168 -18 66 93 66 252 c 0
 66 463 259 666 472 666 c 0
 528 666 582 642 628 642 c 0
 644 642 662 647 668 664 c 1
 689 664 l 1
554 768 m 0
 554 741 533 720 506 720 c 0
 479 720 458 741 458 768 c 0
 458 795 479 816 506 816 c 0
 533 816 554 795 554 768 c 0
EndSplineSet
Validated: 1
EndChar

StartChar: cdotaccent
Encoding: 267 267 202
Width: 443
Flags: MW
HStem: -11 36<171.5 219.5> 420 21<253 321> 508 96<336.5 363.5>
VStem: 30 86<116.5 200 116.5 219> 338 87<346.5 363>
LayerCount: 2
Fore
SplineSet
425 360 m 0
 425 333 404 314 378 314 c 0
 355 314 338 327 338 351 c 0
 338 375 353 384 353 400 c 0
 353 417 327 420 315 420 c 0
 191 420 116 253 116 147 c 0
 116 86 136 25 207 25 c 0
 265 25 313 65 350 106 c 1
 366 96 l 1
 317 34 261 -11 178 -11 c 0
 77 -11 30 48 30 147 c 0
 30 291 170 441 316 441 c 0
 365 441 425 418 425 360 c 0
398 556 m 0
 398 529 377 508 350 508 c 0
 323 508 302 529 302 556 c 0
 302 583 323 604 350 604 c 0
 377 604 398 583 398 556 c 0
EndSplineSet
Validated: 1
EndChar

StartChar: Ccaron
Encoding: 268 268 203
Width: 666
Flags: MW
HStem: -18 45<287 386> 630 36<386 500 365.5 530.5> 853 20<371 408 408 408 640 676 676 676>
VStem: 66 112<183 324 183 357.5>
LayerCount: 2
Fore
SplineSet
689 664 m 1
 652 465 l 1
 634 468 l 1
 629 561 581 630 480 630 c 0
 292 630 178 407 178 241 c 0
 178 125 222 27 352 27 c 0
 451 27 516 79 583 145 c 1
 600 131 l 1
 529 46 444 -18 328 -18 c 0
 168 -18 66 93 66 252 c 0
 66 463 259 666 472 666 c 0
 528 666 582 642 628 642 c 0
 644 642 662 647 668 664 c 1
 689 664 l 1
676 873 m 1
 513 704 l 1
 467 704 l 1
 371 873 l 1
 408 873 l 1
 498 768 l 1
 640 873 l 1
 676 873 l 1
EndSplineSet
Validated: 1
EndChar

StartChar: ccaron
Encoding: 269 269 204
Width: 443
Flags: MW
HStem: -11 36<171.5 219.5> 420 21<253 321> 641 20<215 252 252 252 484 520 520 520>
VStem: 30 86<116.5 200 116.5 219> 338 87<346.5 363>
LayerCount: 2
Fore
SplineSet
425 360 m 0
 425 333 404 314 378 314 c 0
 355 314 338 327 338 351 c 0
 338 375 353 384 353 400 c 0
 353 417 327 420 315 420 c 0
 191 420 116 253 116 147 c 0
 116 86 136 25 207 25 c 0
 265 25 313 65 350 106 c 1
 366 96 l 1
 317 34 261 -11 178 -11 c 0
 77 -11 30 48 30 147 c 0
 30 291 170 441 316 441 c 0
 365 441 425 418 425 360 c 0
520 661 m 1
 357 492 l 1
 311 492 l 1
 215 661 l 1
 252 661 l 1
 342 556 l 1
 484 661 l 1
 520 661 l 1
EndSplineSet
Validated: 1
EndChar

StartChar: Dcaron
Encoding: 270 270 205
Width: 721
Flags: HMW
HStem: 0 30<226 245> 623 30<365 408 408 451> 853 20<293 330 330 330 562 598 598 598>
VStem: 589 111<296.5 468.5>
LayerCount: 2
Fore
SplineSet
700 387 m 0
 700 133 477 0 245 0 c 2
 -8 0 l 1
 -8 16 l 1
 47 24 58 36 73 90 c 2
 196 532 l 2
 202 552 207 573 207 594 c 0
 207 635 160 635 130 637 c 1
 130 653 l 1
 408 653 l 2
 572 653 700 559 700 387 c 0
589 399 m 0
 589 538 524 623 378 623 c 0
 376.375 623 374.73046875 623.00390625 373.073242188 623.00390625 c 0
 348.21484375 623.00390625 320.5 622.125 313 594 c 2
 192 162 l 2
 186 141 170 89 170 69 c 0
 170 30.9047619048 207.188208617 29.9977324263 236.645070727 29.9977324263 c 0
 238.117913832 29.9977324263 239.571428571 30 241 30 c 0
 454 30 589 194 589 399 c 0
598 873 m 1
 435 704 l 1
 389 704 l 1
 293 873 l 1
 330 873 l 1
 420 768 l 1
 562 873 l 1
 598 873 l 1
EndSplineSet
Validated: 524289
EndChar

StartChar: dcaron
Encoding: 271 271 206
Width: 600
Flags: HMW
HStem: -11 48<139.5 160.5> 418 23<254 324 235.5 330>
VStem: 15 87<90.5 158 90.5 171.5> 287 76<18 81> 591 64<526.5 615>
LayerCount: 2
Fore
SplineSet
529 457 m 1
 520 474 l 1
 569 493 591 513 591 540 c 0
 591 550 584 557 575 564 c 0
 554 580 546 595 546 619 c 0
 546 646 568 666 597 666 c 0
 630 666 655 635 655 595 c 0
 655 539 615 491 529 457 c 1
527 678 m 1
 506 592 363 100 363 62 c 0
 363 51 369 40 381 40 c 0
 407 40 448 94 463 111 c 1
 475 101 l 1
 451 64 383 -13 334 -13 c 0
 304 -13 287 3 287 33 c 0
 287 60 293 87 299 114 c 1
 297 116 l 1
 255 51 202 -11 119 -11 c 0
 47 -11 15 41 15 107 c 0
 15 236 167 441 304 441 c 0
 344 441 365 425 371 386 c 1
 373 388 l 1
 382 421 431 581 431 614 c 0
 431 640.56097561 407.030339084 643.152290303 384.640748103 643.152290303 c 0
 379.212968471 643.152290303 373.87804878 643 369 643 c 1
 369 660 l 1
 420 665 472 672 522 683 c 1
 527 678 l 1
356 351 m 0
 356 384 351 418 309 418 c 0
 199 418 102 205 102 111 c 0
 102 70 116 37 163 37 c 0
 275 37 356 260 356 351 c 0
EndSplineSet
Validated: 524289
Ligature2: "'ccmp' Glyph Composition/Decomposition in Latin lookup 8 subtable" d caroncomb
EndChar

StartChar: dcroat
Encoding: 273 273 207
Width: 500
Flags: MW
HStem: -11 48<139.5 154> 418 23<254 326.5 242 330> 544 35<257 415 249 425 501 550>
VStem: 15 87<90.5 158 90.5 178> 287 76<18.5 73>
LayerCount: 2
Fore
SplineSet
356 351 m 0
 356 384 351 418 309 418 c 0
 199 418 102 205 102 111 c 0
 102 70 116 37 163 37 c 0
 275 37 356 260 356 351 c 0
363 60 m 0
 363 49 371 40 381 40 c 0
 398 40 409 49 463 111 c 1
 475 101 l 1
 423 28 371 -13 329 -13 c 0
 304 -13 287 5 287 32 c 0
 287 55 289 70 300 121 c 1
 232 21 188 -11 120 -11 c 0
 55 -11 15 32 15 103 c 0
 15 253 177 441 307 441 c 0
 346 441 364 425 372 383 c 1
 415 544 l 1
 249 544 l 1
 257 579 l 1
 425 579 l 1
 430 598 431 606 431 616 c 0
 431 638 424 641 369 643 c 1
 369 660 l 1
 433 666 469 672 522 683 c 1
 527 678 l 1
 501 579 l 1
 558 579 l 1
 550 544 l 1
 492 544 l 1
 457 407 363 86 363 60 c 0
EndSplineSet
Validated: 1
EndChar

StartChar: Emacron
Encoding: 274 274 208
Width: 603
Flags: HMW
HStem: 0 33<219.5 286.5 219.5 499> 325 38<319 325 319 356.5> 620 33<357 463.5> 744 54<278 575 264 589>
LayerCount: 2
Fore
SplineSet
315 325 m 0
 303 325 237 328 237 328 c 1
 170 76 l 2
 168.920583149 72.042138214 168.387775533 68.4151188596 168.387775533 65.0965143058 c 0
 168.387775533 40.7451404228 197.076177133 33 249 33 c 0
 324 33 392 43 429 60 c 0
 472 80 498 106 545 170 c 1
 561 162 l 1
 499 0 l 1
 -8 0 l 1
 -8 16 l 1
 48 26 56 33 73 90 c 2
 196 532 l 2
 201 550 207 585 207 596 c 0
 207 623 192 631 130 637 c 1
 130 653 l 1
 627 653 l 1
 596 500 l 1
 575 502 l 1
 576 519 577 534 577 547 c 0
 577 607 542 620 385 620 c 0
 329 620 318 616 312 594 c 2
 246 361 l 1
 246 361 313 363 325 363 c 0
 416 367 425 373 463 458 c 1
 481 454 l 1
 413 222 l 1
 393 227 l 1
 398 249 400 262 400 279 c 0
 400 309 398 325 315 325 c 0
589 798 m 1
 575 744 l 1
 264 744 l 1
 278 798 l 1
 589 798 l 1
EndSplineSet
Validated: 524289
EndChar

StartChar: emacron
Encoding: 275 275 209
Width: 443
Flags: MW
HStem: -11 45<183.5 198.5> 418 23<285.5 321.5> 532 54<194 491 180 505>
VStem: 31 87<97 131.5 97 201> 346 66<363.5 390.5>
LayerCount: 2
Fore
SplineSet
358 109 m 1
 370 97 l 1
 311 30 234 -11 163 -11 c 0
 85 -11 31 45 31 126 c 0
 31 276 188 441 332 441 c 0
 382 441 412 415 412 373 c 0
 412 287 306 211 156 190 c 2
 128 186 l 1
 120 154 118 139 118 124 c 0
 118 70 155 34 212 34 c 0
 255 34 286 50 358 109 c 1
152 252 m 2
 135 208 l 1
 221 229 259 247 296 282 c 0
 327 312 346 348 346 379 c 0
 346 402 332 418 311 418 c 0
 260 418 186 341 152 252 c 2
505 586 m 1
 491 532 l 1
 180 532 l 1
 194 586 l 1
 505 586 l 1
EndSplineSet
Validated: 1
EndChar

StartChar: Ebreve
Encoding: 276 276 210
Width: 603
Flags: HMW
HStem: 0 33<219.5 286.5 219.5 499> 325 38<319 325 319 356.5> 620 33<357 463.5> 705 60<407.5 465.5>
LayerCount: 2
Fore
SplineSet
315 325 m 0
 303 325 237 328 237 328 c 1
 170 76 l 2
 168.920583149 72.042138214 168.387775533 68.4151188596 168.387775533 65.0965143058 c 0
 168.387775533 40.7451404228 197.076177133 33 249 33 c 0
 324 33 392 43 429 60 c 0
 472 80 498 106 545 170 c 1
 561 162 l 1
 499 0 l 1
 -8 0 l 1
 -8 16 l 1
 48 26 56 33 73 90 c 2
 196 532 l 2
 201 550 207 585 207 596 c 0
 207 623 192 631 130 637 c 1
 130 653 l 1
 627 653 l 1
 596 500 l 1
 575 502 l 1
 576 519 577 534 577 547 c 0
 577 607 542 620 385 620 c 0
 329 620 318 616 312 594 c 2
 246 361 l 1
 246 361 313 363 325 363 c 0
 416 367 425 373 463 458 c 1
 481 454 l 1
 413 222 l 1
 393 227 l 1
 398 249 400 262 400 279 c 0
 400 309 398 325 315 325 c 0
600 861 m 1
 570 777 514 705 417 705 c 0
 352 705 310 742 310 808 c 0
 310 821 313 850 319 861 c 1
 348 861 l 1
 347 847 l 2
 346.886205071 844.913759643 346.829962524 842.867805952 346.829962524 840.862084352 c 0
 346.829962524 789.990539143 383.010377072 765 434 765 c 0
 506 765 536 806 571 861 c 1
 600 861 l 1
EndSplineSet
Validated: 524289
EndChar

StartChar: ebreve
Encoding: 277 277 211
Width: 443
Flags: HMW
HStem: -11 45<183.5 198.5> 418 23<285.5 321.5> 493 60<323.5 381.5>
VStem: 31 87<97 131.5 97 201> 346 66<363.5 390.5>
LayerCount: 2
Fore
SplineSet
358 109 m 1
 370 97 l 1
 311 30 234 -11 163 -11 c 0
 85 -11 31 45 31 126 c 0
 31 276 188 441 332 441 c 0
 382 441 412 415 412 373 c 0
 412 287 306 211 156 190 c 2
 128 186 l 1
 120 154 118 139 118 124 c 0
 118 70 155 34 212 34 c 0
 255 34 286 50 358 109 c 1
152 252 m 2
 135 208 l 1
 221 229 259 247 296 282 c 0
 327 312 346 348 346 379 c 0
 346 402 332 418 311 418 c 0
 260 418 186 341 152 252 c 2
516 649 m 1
 486 565 430 493 333 493 c 0
 268 493 226 530 226 596 c 0
 226 609 229 638 235 649 c 1
 264 649 l 1
 263 635 l 2
 262.886205071 632.913759643 262.829962524 630.867805952 262.829962524 628.862084352 c 0
 262.829962524 577.990539143 299.010377072 553 350 553 c 0
 422 553 452 594 487 649 c 1
 516 649 l 1
EndSplineSet
Validated: 524289
EndChar

StartChar: Edotaccent
Encoding: 278 278 212
Width: 603
Flags: HMW
HStem: 0 33<219.5 286.5 219.5 499> 325 38<319 325 319 356.5> 620 33<357 463.5> 720 96<414.5 441.5>
VStem: 380 96<754.5 781.5>
LayerCount: 2
Fore
SplineSet
315 325 m 0
 303 325 237 328 237 328 c 1
 170 76 l 2
 168.920583149 72.042138214 168.387775533 68.4151188596 168.387775533 65.0965143058 c 0
 168.387775533 40.7451404228 197.076177133 33 249 33 c 0
 324 33 392 43 429 60 c 0
 472 80 498 106 545 170 c 1
 561 162 l 1
 499 0 l 1
 -8 0 l 1
 -8 16 l 1
 48 26 56 33 73 90 c 2
 196 532 l 2
 201 550 207 585 207 596 c 0
 207 623 192 631 130 637 c 1
 130 653 l 1
 627 653 l 1
 596 500 l 1
 575 502 l 1
 576 519 577 534 577 547 c 0
 577 607 542 620 385 620 c 0
 329 620 318 616 312 594 c 2
 246 361 l 1
 246 361 313 363 325 363 c 0
 416 367 425 373 463 458 c 1
 481 454 l 1
 413 222 l 1
 393 227 l 1
 398 249 400 262 400 279 c 0
 400 309 398 325 315 325 c 0
476 768 m 0
 476 741 455 720 428 720 c 0
 401 720 380 741 380 768 c 0
 380 795 401 816 428 816 c 0
 455 816 476 795 476 768 c 0
EndSplineSet
Validated: 524289
EndChar

StartChar: edotaccent
Encoding: 279 279 213
Width: 443
Flags: MW
HStem: -11 45<183.5 198.5> 418 23<285.5 321.5> 508 96<330.5 357.5>
VStem: 31 87<97 131.5 97 201> 346 66<363.5 390.5>
LayerCount: 2
Fore
SplineSet
358 109 m 1
 370 97 l 1
 311 30 234 -11 163 -11 c 0
 85 -11 31 45 31 126 c 0
 31 276 188 441 332 441 c 0
 382 441 412 415 412 373 c 0
 412 287 306 211 156 190 c 2
 128 186 l 1
 120 154 118 139 118 124 c 0
 118 70 155 34 212 34 c 0
 255 34 286 50 358 109 c 1
152 252 m 2
 135 208 l 1
 221 229 259 247 296 282 c 0
 327 312 346 348 346 379 c 0
 346 402 332 418 311 418 c 0
 260 418 186 341 152 252 c 2
392 556 m 0
 392 529 371 508 344 508 c 0
 317 508 296 529 296 556 c 0
 296 583 317 604 344 604 c 0
 371 604 392 583 392 556 c 0
EndSplineSet
Validated: 1
EndChar

StartChar: Eogonek
Encoding: 280 280 214
Width: 610
Flags: MW
HStem: -169 63<534 550> 0 33<228 293.5 228 459> 325 38<326 332 326 353> 620 33<364 470.5>
VStem: 431 61<-70.5 -58.5>
LayerCount: 2
Fore
SplineSet
322 325 m 0
 310 325 279 326 244 328 c 1
 234 290 176 90 176 67 c 0
 176 43 200 33 256 33 c 0
 331 33 399 43 436 60 c 0
 479 80 505 106 552 170 c 1
 568 162 l 1
 506 0 l 2
 497 -23 492 -44 492 -56 c 0
 492 -85 517 -106 551 -106 c 0
 582 -106 607 -96 634 -74 c 1
 651 -92 l 1
 616 -143 574 -169 526 -169 c 0
 473 -169 431 -126 431 -72 c 0
 431 -45 438 -27 459 0 c 1
 -1 0 l 1
 -1 16 l 1
 55 26 63 33 80 90 c 2
 203 532 l 2
 208 550 214 585 214 596 c 0
 214 623 199 631 137 637 c 1
 137 653 l 1
 634 653 l 1
 603 500 l 1
 582 502 l 1
 583 519 584 534 584 547 c 0
 584 607 549 620 392 620 c 0
 336 620 325 616 319 594 c 2
 253 361 l 1
 288 362 320 363 332 363 c 0
 423 367 432 373 470 458 c 1
 488 454 l 1
 420 222 l 1
 400 227 l 1
 405 249 407 262 407 279 c 0
 407 319 384 325 322 325 c 0
EndSplineSet
Validated: 1
Ligature2: "'ccmp' Glyph Composition/Decomposition in Latin lookup 8 subtable" E uni0328
EndChar

StartChar: eogonek
Encoding: 281 281 215
Width: 443
Flags: MW
HStem: -169 63<326.5 343> -11 45<124.5 233.5> 418 23<285.5 321.5>
VStem: 31 87<97 131.5 97 201> 224 61<-69 -58.5> 346 66<363.5 390.5>
LayerCount: 2
Fore
SplineSet
358 109 m 1
 370 97 l 1
 365 91 360 85 354 80 c 0
 301 21 285 -10 285 -53 c 0
 285 -85 309 -106 344 -106 c 0
 375 -106 400 -96 427 -74 c 1
 444 -92 l 1
 409 -143 367 -169 319 -169 c 0
 267 -169 224 -126 224 -75 c 0
 224 -42 235 -16 262 14 c 1
 226 -4 198 -11 164 -11 c 0
 85 -11 31 45 31 126 c 0
 31 276 188 441 332 441 c 0
 382 441 412 415 412 373 c 0
 412 287 306 211 156 190 c 2
 128 186 l 1
 120 154 118 139 118 124 c 0
 118 70 155 34 212 34 c 0
 255 34 286 50 358 109 c 1
152 252 m 2
 135 208 l 1
 221 229 259 247 296 282 c 0
 327 312 346 348 346 379 c 0
 346 402 332 418 311 418 c 0
 260 418 186 341 152 252 c 2
EndSplineSet
Validated: 1
Ligature2: "'ccmp' Glyph Composition/Decomposition in Latin lookup 8 subtable" e uni0328
EndChar

StartChar: Ecaron
Encoding: 282 282 216
Width: 603
Flags: HMW
HStem: 0 33<219.5 286.5 219.5 499> 325 38<319 325 319 356.5> 620 33<357 463.5> 853 20<293 330 330 330 562 598 598 598>
LayerCount: 2
Fore
SplineSet
315 325 m 0
 303 325 237 328 237 328 c 1
 170 76 l 2
 168.920583149 72.042138214 168.387775533 68.4151188596 168.387775533 65.0965143058 c 0
 168.387775533 40.7451404228 197.076177133 33 249 33 c 0
 324 33 392 43 429 60 c 0
 472 80 498 106 545 170 c 1
 561 162 l 1
 499 0 l 1
 -8 0 l 1
 -8 16 l 1
 48 26 56 33 73 90 c 2
 196 532 l 2
 201 550 207 585 207 596 c 0
 207 623 192 631 130 637 c 1
 130 653 l 1
 627 653 l 1
 596 500 l 1
 575 502 l 1
 576 519 577 534 577 547 c 0
 577 607 542 620 385 620 c 0
 329 620 318 616 312 594 c 2
 246 361 l 1
 246 361 313 363 325 363 c 0
 416 367 425 373 463 458 c 1
 481 454 l 1
 413 222 l 1
 393 227 l 1
 398 249 400 262 400 279 c 0
 400 309 398 325 315 325 c 0
598 873 m 1
 435 704 l 1
 389 704 l 1
 293 873 l 1
 330 873 l 1
 420 768 l 1
 562 873 l 1
 598 873 l 1
EndSplineSet
Validated: 524289
EndChar

StartChar: ecaron
Encoding: 283 283 217
Width: 443
Flags: MW
HStem: -11 45<183.5 198.5> 418 23<285.5 321.5> 641 20<209 246 246 246 478 514 514 514>
VStem: 31 87<97 131.5 97 201> 346 66<363.5 390.5>
LayerCount: 2
Fore
SplineSet
358 109 m 1
 370 97 l 1
 311 30 234 -11 163 -11 c 0
 85 -11 31 45 31 126 c 0
 31 276 188 441 332 441 c 0
 382 441 412 415 412 373 c 0
 412 287 306 211 156 190 c 2
 128 186 l 1
 120 154 118 139 118 124 c 0
 118 70 155 34 212 34 c 0
 255 34 286 50 358 109 c 1
152 252 m 2
 135 208 l 1
 221 229 259 247 296 282 c 0
 327 312 346 348 346 379 c 0
 346 402 332 418 311 418 c 0
 260 418 186 341 152 252 c 2
514 661 m 1
 351 492 l 1
 305 492 l 1
 209 661 l 1
 246 661 l 1
 336 556 l 1
 478 661 l 1
 514 661 l 1
EndSplineSet
Validated: 1
EndChar

StartChar: Gcircumflex
Encoding: 284 284 218
Width: 721
Flags: MW
HStem: -18 37<299.5 383> 632 34<362 491 345 512> 853 20<498 547 547 547>
VStem: 52 110<158 305.5 157.5 349>
LayerCount: 2
Fore
SplineSet
722 303 m 1
 664 300 641 290 625 231 c 2
 576 44 l 1
 512 4 421 -18 345 -18 c 0
 192 -18 52 76 52 240 c 0
 52 458 233 666 457 666 c 0
 525 666 591 632 630 632 c 0
 657 632 679 643 693 666 c 1
 708 662 l 1
 659 465 l 1
 641 468 l 1
 634 573 563 632 461 632 c 0
 263 632 162 390 162 221 c 0
 162 94 235 19 364 19 c 0
 403 19 439 27 469 53 c 0
 493 74 534 231 534 266 c 0
 534 302 481 301 456 303 c 1
 456 319 l 1
 722 319 l 1
 722 303 l 1
547 873 m 1
 635 704 l 1
 599 704 l 1
 517 808 l 1
 380 704 l 1
 341 704 l 1
 498 873 l 1
 547 873 l 1
EndSplineSet
Validated: 1
EndChar

StartChar: gcircumflex
Encoding: 285 285 219
Width: 500
Flags: MW
HStem: -206 22<150 228.5 150 238> 155 17<201.5 271> 366 39<422 472 422 422> 419 22<263.5 314.5> 640 20<344 393 393 393>
VStem: 8 55<-114 -70 -114 -69> 96 78<244 293 223.5 317> 325 60<-103.5 -55>
LayerCount: 2
Fore
SplineSet
297 441 m 0
 375 441 396 405 411 405 c 2
 472 405 l 1
 472 366 l 1
 422 366 l 1
 428 346 431 326 431 310 c 0
 431 232 337 151 246 151 c 0
 222 151 214 155 208 155 c 0
 195 155 172 129 172 114 c 0
 172 99 198 83 242 72 c 0
 337 47 385 3 385 -60 c 0
 385 -147 301 -206 175 -206 c 0
 74 -206 8 -161 8 -92 c 0
 8 -46 26 -26 125 39 c 1
 106 53 98 65 98 78 c 0
 98 102 116 122 175 162 c 1
 118 188 96 218 96 270 c 0
 96 364 186 441 297 441 c 0
148 28 m 0
 140 28 98 -5 85 -22 c 0
 69 -41 63 -58 63 -82 c 0
 63 -146 110 -184 190 -184 c 0
 267 -184 325 -144 325 -90 c 0
 325 -20 226 2 153 26 c 0
 151 27 149 28 148 28 c 0
234 172 m 0
 308 172 352 279 352 348 c 0
 352 395 333 419 296 419 c 0
 231 419 174 339 174 247 c 0
 174 200 196 172 234 172 c 0
393 660 m 1
 481 491 l 1
 445 491 l 1
 363 595 l 1
 226 491 l 1
 187 491 l 1
 344 660 l 1
 393 660 l 1
EndSplineSet
Validated: 1
EndChar

StartChar: Gbreve
Encoding: 286 286 220
Width: 721
Flags: HMW
HStem: -18 37<299.5 383> 632 34<362 491 345 512> 705 60<485.5 543.5>
VStem: 52 110<158 305.5 157.5 349>
LayerCount: 2
Fore
SplineSet
722 303 m 1
 664 300 641 290 625 231 c 2
 576 44 l 1
 512 4 421 -18 345 -18 c 0
 192 -18 52 76 52 240 c 0
 52 458 233 666 457 666 c 0
 525 666 591 632 630 632 c 0
 657 632 679 643 693 666 c 1
 708 662 l 1
 659 465 l 1
 641 468 l 1
 634 573 563 632 461 632 c 0
 263 632 162 390 162 221 c 0
 162 94 235 19 364 19 c 0
 403 19 439 27 469 53 c 0
 493 74 534 231 534 266 c 0
 534 302 481 301 456 303 c 1
 456 319 l 1
 722 319 l 1
 722 303 l 1
678 861 m 1
 648 777 592 705 495 705 c 0
 430 705 388 742 388 808 c 0
 388 821 391 850 397 861 c 1
 426 861 l 1
 425 847 l 2
 424.886205071 844.913759643 424.829962524 842.867805952 424.829962524 840.862084352 c 0
 424.829962524 789.990539143 461.010377072 765 512 765 c 0
 584 765 614 806 649 861 c 1
 678 861 l 1
EndSplineSet
Validated: 524289
EndChar

StartChar: gbreve
Encoding: 287 287 221
Width: 500
Flags: HMW
HStem: -206 22<150 228.5 150 238> 155 17<201.5 271> 366 39<422 472 422 422> 419 22<263.5 314.5> 493 60<319.5 377.5>
VStem: 8 55<-114 -70 -114 -69> 96 78<244 293 223.5 317> 325 60<-103.5 -55>
LayerCount: 2
Fore
SplineSet
297 441 m 0
 375 441 396 405 411 405 c 2
 472 405 l 1
 472 366 l 1
 422 366 l 1
 428 346 431 326 431 310 c 0
 431 232 337 151 246 151 c 0
 222 151 214 155 208 155 c 0
 195 155 172 129 172 114 c 0
 172 99 198 83 242 72 c 0
 337 47 385 3 385 -60 c 0
 385 -147 301 -206 175 -206 c 0
 74 -206 8 -161 8 -92 c 0
 8 -46 26 -26 125 39 c 1
 106 53 98 65 98 78 c 0
 98 102 116 122 175 162 c 1
 118 188 96 218 96 270 c 0
 96 364 186 441 297 441 c 0
148 28 m 0
 140 28 98 -5 85 -22 c 0
 69 -41 63 -58 63 -82 c 0
 63 -146 110 -184 190 -184 c 0
 267 -184 325 -144 325 -90 c 0
 325 -20 226 2 153 26 c 0
 151 27 149 28 148 28 c 0
234 172 m 0
 308 172 352 279 352 348 c 0
 352 395 333 419 296 419 c 0
 231 419 174 339 174 247 c 0
 174 200 196 172 234 172 c 0
512 649 m 1
 482 565 426 493 329 493 c 0
 264 493 222 530 222 596 c 0
 222 609 225 638 231 649 c 1
 260 649 l 1
 259 635 l 2
 258.886205071 632.913759643 258.829962524 630.867805952 258.829962524 628.862084352 c 0
 258.829962524 577.990539143 295.010377072 553 346 553 c 0
 418 553 448 594 483 649 c 1
 512 649 l 1
EndSplineSet
Validated: 524289
EndChar

StartChar: Gdotaccent
Encoding: 288 288 222
Width: 721
Flags: MW
HStem: -18 37<299.5 383> 632 34<362 491 345 512> 720 96<492.5 519.5>
VStem: 52 110<158 305.5 157.5 349> 458 96<754.5 781.5>
LayerCount: 2
Fore
SplineSet
722 303 m 1
 664 300 641 290 625 231 c 2
 576 44 l 1
 512 4 421 -18 345 -18 c 0
 192 -18 52 76 52 240 c 0
 52 458 233 666 457 666 c 0
 525 666 591 632 630 632 c 0
 657 632 679 643 693 666 c 1
 708 662 l 1
 659 465 l 1
 641 468 l 1
 634 573 563 632 461 632 c 0
 263 632 162 390 162 221 c 0
 162 94 235 19 364 19 c 0
 403 19 439 27 469 53 c 0
 493 74 534 231 534 266 c 0
 534 302 481 301 456 303 c 1
 456 319 l 1
 722 319 l 1
 722 303 l 1
554 768 m 0
 554 741 533 720 506 720 c 0
 479 720 458 741 458 768 c 0
 458 795 479 816 506 816 c 0
 533 816 554 795 554 768 c 0
EndSplineSet
Validated: 1
EndChar

StartChar: gdotaccent
Encoding: 289 289 223
Width: 500
Flags: MW
HStem: -206 22<150 228.5 150 238> 155 17<201.5 271> 366 39<422 472 422 422> 419 22<263.5 314.5> 508 96<326.5 353.5>
VStem: 8 55<-114 -70 -114 -69> 96 78<244 293 223.5 317> 292 96<542.5 569.5>
LayerCount: 2
Fore
SplineSet
297 441 m 0
 375 441 396 405 411 405 c 2
 472 405 l 1
 472 366 l 1
 422 366 l 1
 428 346 431 326 431 310 c 0
 431 232 337 151 246 151 c 0
 222 151 214 155 208 155 c 0
 195 155 172 129 172 114 c 0
 172 99 198 83 242 72 c 0
 337 47 385 3 385 -60 c 0
 385 -147 301 -206 175 -206 c 0
 74 -206 8 -161 8 -92 c 0
 8 -46 26 -26 125 39 c 1
 106 53 98 65 98 78 c 0
 98 102 116 122 175 162 c 1
 118 188 96 218 96 270 c 0
 96 364 186 441 297 441 c 0
148 28 m 0
 140 28 98 -5 85 -22 c 0
 69 -41 63 -58 63 -82 c 0
 63 -146 110 -184 190 -184 c 0
 267 -184 325 -144 325 -90 c 0
 325 -20 226 2 153 26 c 0
 151 27 149 28 148 28 c 0
234 172 m 0
 308 172 352 279 352 348 c 0
 352 395 333 419 296 419 c 0
 231 419 174 339 174 247 c 0
 174 200 196 172 234 172 c 0
388 556 m 0
 388 529 367 508 340 508 c 0
 313 508 292 529 292 556 c 0
 292 583 313 604 340 604 c 0
 367 604 388 583 388 556 c 0
EndSplineSet
Validated: 1
EndChar

StartChar: Gcedilla
Encoding: 290 290 224
Width: 721
Flags: MW
HStem: -18 37<299.5 383> 632 34<362 491 345 512>
VStem: 52 110<158 305.5 157.5 349> 240 95<-94 -84.5 -128.5 -70>
LayerCount: 2
Fore
SplineSet
222 -212 m 1
 214 -197 l 1
 254 -186 279 -167 279 -143 c 0
 279 -139 279 -130 270 -125 c 0
 252 -116 240 -106 240 -82 c 0
 240 -58 260 -40 286 -40 c 0
 316 -40 335 -67 335 -102 c 0
 335 -155 292 -190 222 -212 c 1
722 303 m 1
 664 300 641 290 625 231 c 2
 576 44 l 1
 512 4 421 -18 345 -18 c 0
 192 -18 52 76 52 240 c 0
 52 458 233 666 457 666 c 0
 525 666 591 632 630 632 c 0
 657 632 679 643 693 666 c 1
 708 662 l 1
 659 465 l 1
 641 468 l 1
 634 573 563 632 461 632 c 0
 263 632 162 390 162 221 c 0
 162 94 235 19 364 19 c 0
 403 19 439 27 469 53 c 0
 493 74 534 231 534 266 c 0
 534 302 481 301 456 303 c 1
 456 319 l 1
 722 319 l 1
 722 303 l 1
EndSplineSet
Validated: 1
Ligature2: "'ccmp' Glyph Composition/Decomposition in Latin lookup 8 subtable" G uni0327
EndChar

StartChar: gcedilla
Encoding: 291 291 225
Width: 500
Flags: MW
HStem: -206 22<150 228.5 150 238> 155 17<201.5 271> 366 39<422 472 422 422> 419 22<263.5 314.5>
VStem: 8 55<-114 -70 -114 -69> 96 78<244 293 223.5 317> 290 64<543 631.5> 325 60<-103.5 -55>
LayerCount: 2
Fore
SplineSet
416 701 m 1xf0
 425 684 l 1
 376 665 354 645 354 618 c 0
 354 608 361 601 370 594 c 0
 391 578 399 563 399 539 c 0
 399 512 377 492 348 492 c 0
 315 492 290 523 290 563 c 0
 290 619 330 667 416 701 c 1xf0
297 441 m 0
 375 441 396 405 411 405 c 2
 472 405 l 1
 472 366 l 1
 422 366 l 1
 428 346 431 326 431 310 c 0
 431 232 337 151 246 151 c 0
 222 151 214 155 208 155 c 0
 195 155 172 129 172 114 c 0
 172 99 198 83 242 72 c 0
 337 47 385 3 385 -60 c 0
 385 -147 301 -206 175 -206 c 0
 74 -206 8 -161 8 -92 c 0
 8 -46 26 -26 125 39 c 1
 106 53 98 65 98 78 c 0
 98 102 116 122 175 162 c 1
 118 188 96 218 96 270 c 0
 96 364 186 441 297 441 c 0
148 28 m 0
 140 28 98 -5 85 -22 c 0
 69 -41 63 -58 63 -82 c 0
 63 -146 110 -184 190 -184 c 0
 267 -184 325 -144 325 -90 c 0xfe
 325 -20 226 2 153 26 c 0
 151 27 149 28 148 28 c 0
234 172 m 0
 308 172 352 279 352 348 c 0xfd
 352 395 333 419 296 419 c 0
 231 419 174 339 174 247 c 0
 174 200 196 172 234 172 c 0
EndSplineSet
Validated: 1
Ligature2: "'ccmp' Glyph Composition/Decomposition in Latin lookup 8 subtable" g uni0327
EndChar

StartChar: Hcircumflex
Encoding: 292 292 226
Width: 721
Flags: MW
HStem: 0 21<-8 238 -8 -8 355 628 355 355> 326 42<248 521 236 533> 633 20<130 403 403 403 520 767 767 767> 853 20<494 543 543 543>
LayerCount: 2
Fore
SplineSet
767 653 m 1
 767 637 l 1
 710 627 702 621 685 563 c 2
 553 82 l 2
 551 74 550 68 550 58 c 0
 550 30 564 22 628 16 c 1
 628 0 l 1
 355 0 l 1
 355 16 l 1
 420 23 442 38 456 90 c 2
 521 326 l 1
 236 326 l 1
 170 82 l 2
 168 75 167 67 167 60 c 0
 167 31 178 24 238 16 c 1
 238 0 l 1
 -8 0 l 1
 -8 16 l 1
 48 26 57 31 73 90 c 2
 196 532 l 2
 203 557 207 580 207 594 c 0
 207 623 192 631 130 637 c 1
 130 653 l 1
 403 653 l 1
 403 637 l 1
 343 633 317 614 302 563 c 2
 248 368 l 1
 533 368 l 1
 579 532 l 2
 586 557 590 580 590 594 c 0
 590 622 578 630 520 637 c 1
 520 653 l 1
 767 653 l 1
543 873 m 1
 631 704 l 1
 595 704 l 1
 513 808 l 1
 376 704 l 1
 337 704 l 1
 494 873 l 1
 543 873 l 1
EndSplineSet
Validated: 1
EndChar

StartChar: hcircumflex
Encoding: 293 293 227
Width: 500
Flags: HMW
HStem: -9 47<318 395.5> 390 51<337.5 349> 882 20<300 349 349 349>
VStem: 288 79<52.5 68.5> 370 78<336 371.5>
LayerCount: 2
Fore
SplineSet
478 105 m 1
 444 56 400 -9 333 -9 c 0
 303 -9 288 8 288 37 c 0
 288 100 370 309 370 363 c 0
 370 380 357 390 341 390 c 0
 293 390 213 287 187 249 c 0
 136 174 117 87 94 0 c 1
 19 0 l 1
 151 501 l 2
 157 524 178 595 178 615 c 0
 178 637.052815094 156.153294858 641.533280401 135.697979529 641.533280401 c 0
 126.47136592 641.533280401 117.527840094 640.621699057 111 640 c 1
 111 656 l 1
 164 662 216 671 268 683 c 1
 273 678 l 1
 155 239 l 1
 157 237 l 1
 198 303 295 441 380 441 c 0
 425 441 448 414 448 369 c 0
 448 300 367 116 367 57 c 0
 367 48 373 38 383 38 c 0
 408 38 451 99 465 117 c 1
 478 105 l 1
349 902 m 1
 437 733 l 1
 401 733 l 1
 319 837 l 1
 182 733 l 1
 143 733 l 1
 300 902 l 1
 349 902 l 1
EndSplineSet
Validated: 524289
EndChar

StartChar: Hbar
Encoding: 294 294 228
Width: 722
Flags: MW
HStem: 0 21G<-8 238 -8 -8 355 628 355 355> 326 42<248 521 236 533> 460 42<138 176 126 188 285 559 668 706> 633 20G<130 403 403 403 520 767 767 767>
LayerCount: 2
Fore
SplineSet
767 637 m 1
 682 622 690 583 668 502 c 1
 718 502 l 1
 706 460 l 1
 657 460 l 1
 640 398 549 102 549 58 c 0
 549 18 599 19 628 16 c 1
 628 0 l 1
 355 0 l 1
 355 16 l 1
 410 23 440 31 456 90 c 2
 521 326 l 1
 236 326 l 1
 222 273 166 102 166 58 c 0
 166 21 211 20 238 16 c 1
 238 0 l 1
 -8 0 l 1
 -8 16 l 1
 47 26 57 34 73 90 c 2
 176 460 l 1
 126 460 l 1
 138 502 l 1
 188 502 l 1
 195 530 207 565 207 594 c 0
 207 635 160 635 130 637 c 1
 130 653 l 1
 403 653 l 1
 403 637 l 1
 310 629 308 586 285 502 c 1
 571 502 l 1
 578 530 590 565 590 594 c 0
 590 633 550 634 520 637 c 1
 520 653 l 1
 767 653 l 1
 767 637 l 1
559 460 m 1
 273 460 l 1
 248 368 l 1
 533 368 l 1
 559 460 l 1
EndSplineSet
Validated: 1
EndChar

StartChar: hbar
Encoding: 295 295 229
Width: 500
Flags: HMW
HStem: -9 47<318 395.5> 390 51<337.5 349> 508 42<79 153 67 164 239 311>
VStem: 288 79<52.5 68.5> 370 78<336 371.5>
LayerCount: 2
Fore
SplineSet
478 105 m 1
 444 56 400 -9 333 -9 c 0
 303 -9 288 8 288 37 c 0
 288 100 370 309 370 363 c 0
 370 380 357 390 341 390 c 0
 293 390 213 287 187 249 c 0
 136 174 117 87 94 0 c 1
 19 0 l 1
 63 168 102 342 153 508 c 1
 67 508 l 1
 79 550 l 1
 164 550 l 1
 168 565 178 600 178 615 c 0
 178 637.052815094 156.153294858 641.533280401 135.697979529 641.533280401 c 0
 126.47136592 641.533280401 117.527840094 640.621699057 111 640 c 1
 111 656 l 1
 164 662 216 671 268 683 c 1
 273 678 l 1
 239 550 l 1
 323 550 l 1
 311 508 l 1
 227 508 l 1
 155 239 l 1
 157 237 l 1
 198 303 295 441 380 441 c 0
 425 441 448 414 448 369 c 0
 448 300 367 116 367 57 c 0
 367 48 373 38 383 38 c 0
 408 38 451 99 465 117 c 1
 478 105 l 1
EndSplineSet
Validated: 524289
EndChar

StartChar: Itilde
Encoding: 296 296 230
Width: 338
Flags: MW
HStem: 0 21<-8 -8 -8 236> 633 20<137 384 384 384> 732 60<380.5 396> 776 59<214 228.5>
LayerCount: 2
Fore
SplineSet
-8 0 m 1xc0
 -8 16 l 1
 48 26 57 31 73 90 c 2
 196 532 l 2
 203 557 207 580 207 594 c 0
 207 622 195 630 137 637 c 1
 137 653 l 1
 384 653 l 1
 384 637 l 1
 327 627 318 622 302 563 c 2
 179 120 l 2
 170 88 168 76 168 57 c 0
 168 29 179 23 236 16 c 1
 236 0 l 1
 -8 0 l 1xc0
439 836 m 1x20
 467 836 l 1
 453 769 420 732 372 732 c 0x20
 360 732 341 737 315 747 c 0
 261 769 237 776 220 776 c 0
 195 776 179 761 169 729 c 1
 140 729 l 1
 160 806 188 835 240 835 c 0x10
 262 835 288 828 326 811 c 0
 356 797 373 792 388 792 c 0
 415 792 428 803 439 836 c 1x20
EndSplineSet
Validated: 1
EndChar

StartChar: itilde
Encoding: 297 297 231
Width: 277
Flags: HMW
HStem: -11 47<80 144.5> 520 60<288.5 304> 564 59<122 136.5>
VStem: 49 75<47.5 56 47.5 56>
LayerCount: 2
Fore
SplineSet
124 51 m 0x90
 124 44 132 36 140 36 c 0
 149 36 164 46 181 63 c 0
 191 74 198 82 222 114 c 1
 235 103 l 1
 178 19 141 -11 95 -11 c 0
 65 -11 49 9 49 46 c 0
 49 66 55 97 71 155 c 2
 119 332 l 2
 125 352 128 368 128 376 c 0
 128 396 118 399 65 400 c 1
 65 416 l 1
 104 419 124 422 225 441 c 1
 228 439 l 1
 140 117 l 2
 120 44 124 61 124 51 c 0x90
347 624 m 1x50
 375 624 l 1
 361 557 328 520 280 520 c 0x50
 268 520 249 525 223 535 c 0
 169 557 145 564 128 564 c 0
 103 564 87 549 77 517 c 1
 48 517 l 1
 68 594 96 623 148 623 c 0x30
 170 623 196 616 234 599 c 0
 264 585 281 580 296 580 c 0
 323 580 336 591 347 624 c 1x50
EndSplineSet
Validated: 33
EndChar

StartChar: Imacron
Encoding: 298 298 232
Width: 338
Flags: MW
HStem: 0 21<-8 -8 -8 236> 633 20<137 384 384 384> 744 54<146 443 132 457>
LayerCount: 2
Fore
SplineSet
-8 0 m 1
 -8 16 l 1
 48 26 57 31 73 90 c 2
 196 532 l 2
 203 557 207 580 207 594 c 0
 207 622 195 630 137 637 c 1
 137 653 l 1
 384 653 l 1
 384 637 l 1
 327 627 318 622 302 563 c 2
 179 120 l 2
 170 88 168 76 168 57 c 0
 168 29 179 23 236 16 c 1
 236 0 l 1
 -8 0 l 1
457 798 m 1
 443 744 l 1
 132 744 l 1
 146 798 l 1
 457 798 l 1
EndSplineSet
Validated: 1
EndChar

StartChar: uni0433.loclSRB
Encoding: 1114113 -1 233
Width: 277
Flags: HMW
HStem: -11 47<80 144.5> 532 54<54 351 40 365>
VStem: 49 75<47.5 56 47.5 56>
LayerCount: 2
Fore
SplineSet
124 51 m 0
 124 44 132 36 140 36 c 0
 149 36 164 46 181 63 c 0
 191 74 198 82 222 114 c 1
 235 103 l 1
 178 19 141 -11 95 -11 c 0
 65 -11 49 9 49 46 c 0
 49 66 55 97 71 155 c 2
 119 332 l 2
 125 352 128 368 128 376 c 0
 128 396 118 399 65 400 c 1
 65 416 l 1
 104 419 124 422 225 441 c 1
 228 439 l 1
 140 117 l 2
 120 44 124 61 124 51 c 0
365 586 m 1
 351 532 l 1
 40 532 l 1
 54 586 l 1
 365 586 l 1
EndSplineSet
Validated: 33
EndChar

StartChar: Ibreve
Encoding: 300 300 234
Width: 338
Flags: HMW
HStem: 0 21<-8 -8 -8 236> 633 20<137 384 384 384> 705 60<275.5 333.5>
LayerCount: 2
Fore
SplineSet
-8 0 m 1
 -8 16 l 1
 48 26 57 31 73 90 c 2
 196 532 l 2
 203 557 207 580 207 594 c 0
 207 622 195 630 137 637 c 1
 137 653 l 1
 384 653 l 1
 384 637 l 1
 327 627 318 622 302 563 c 2
 179 120 l 2
 170 88 168 76 168 57 c 0
 168 29 179 23 236 16 c 1
 236 0 l 1
 -8 0 l 1
468 861 m 1
 438 777 382 705 285 705 c 0
 220 705 178 742 178 808 c 0
 178 821 181 850 187 861 c 1
 216 861 l 1
 215 847 l 2
 214.886205071 844.913759643 214.829962524 842.867805952 214.829962524 840.862084352 c 0
 214.829962524 789.990539143 251.010377072 765 302 765 c 0
 374 765 404 806 439 861 c 1
 468 861 l 1
EndSplineSet
Validated: 524289
EndChar

StartChar: ibreve
Encoding: 301 301 235
Width: 277
Flags: HMW
HStem: -11 47<80 144.5> 493 60<183.5 241.5>
VStem: 49 75<47.5 56 47.5 56>
LayerCount: 2
Fore
SplineSet
124 51 m 0
 124 44 132 36 140 36 c 0
 149 36 164 46 181 63 c 0
 191 74 198 82 222 114 c 1
 235 103 l 1
 178 19 141 -11 95 -11 c 0
 65 -11 49 9 49 46 c 0
 49 66 55 97 71 155 c 2
 119 332 l 2
 125 352 128 368 128 376 c 0
 128 396 118 399 65 400 c 1
 65 416 l 1
 104 419 124 422 225 441 c 1
 228 439 l 1
 140 117 l 2
 120 44 124 61 124 51 c 0
376 649 m 1
 346 565 290 493 193 493 c 0
 128 493 86 530 86 596 c 0
 86 609 89 638 95 649 c 1
 124 649 l 1
 123 635 l 2
 122.886205071 632.913759643 122.829962524 630.867805952 122.829962524 628.862084352 c 0
 122.829962524 577.990539143 159.010377072 553 210 553 c 0
 282 553 312 594 347 649 c 1
 376 649 l 1
EndSplineSet
Validated: 524321
EndChar

StartChar: Iogonek
Encoding: 302 302 236
Width: 332
Flags: MW
HStem: -169 63<260.5 278> -20 20G<-8 186 -8 -8 236 236> 633 20G<137 384 384 384>
VStem: 159 61<-67 -59.5>
LayerCount: 2
Fore
SplineSet
137 653 m 1
 384 653 l 1
 384 637 l 1
 327 627 318 622 302 563 c 2
 179 120 l 2
 170 88 168 76 168 57 c 0
 168 29 179 23 236 16 c 1
 236 0 l 1
 225 -14 220 -29 220 -49 c 0
 220 -85 242 -106 279 -106 c 0
 310 -106 335 -96 362 -74 c 1
 379 -92 l 1
 344 -143 302 -169 254 -169 c 0
 202 -169 159 -126 159 -73 c 0
 159 -46 165 -31 186 0 c 1
 -8 0 l 1
 -8 16 l 1
 48 26 57 31 73 90 c 2
 196 532 l 2
 203 557 207 580 207 594 c 0
 207 622 195 630 137 637 c 1
 137 653 l 1
EndSplineSet
Validated: 1
Ligature2: "'ccmp' Glyph Composition/Decomposition in Latin lookup 8 subtable" I uni0328
EndChar

StartChar: iogonek
Encoding: 303 303 237
Width: 277
Flags: MW
HStem: -169 63<159.5 177> 634 20G<200.5 227.5>
VStem: 49 75<47.5 56 47.5 56> 58 61<-67.5 -60> 167 97<585 613.5 585 616>
LayerCount: 2
Fore
SplineSet
134 95 m 2xd8
 129 75 124 61 124 51 c 0xe8
 124 44 132 36 140 36 c 0
 157 36 184 64 222 114 c 1
 235 103 l 1
 203 55 187 36 159 13 c 0
 124 -15 119 -23 119 -50 c 0
 119 -85 141 -106 178 -106 c 0
 209 -106 234 -96 261 -74 c 1
 278 -92 l 1
 243 -144 201 -169 153 -169 c 0
 100 -169 58 -126 58 -72 c 0xd8
 58 -48 63 -32 80 -9 c 1
 58 -1 49 15 49 46 c 0xe8
 49 66 55 97 71 155 c 2
 119 332 l 2
 125 352 128 368 128 376 c 0
 128 396 118 399 65 400 c 1
 65 416 l 1
 104 419 124 422 225 441 c 1
 228 439 l 1
 134 95 l 2xd8
214 654 m 0
 241 654 264 628 264 599 c 0
 264 571 241 548 215 548 c 0
 186 548 167 569 167 601 c 0
 167 631 187 654 214 654 c 0
EndSplineSet
Validated: 1
Ligature2: "'ccmp' Glyph Composition/Decomposition in Latin lookup 8 subtable" i uni0328
EndChar

StartChar: Idotaccent
Encoding: 304 304 238
Width: 338
Flags: MW
HStem: 0 21<-8 -8 -8 236> 633 20<137 384 384 384> 720 96<282.5 309.5>
VStem: 248 96<754.5 781.5>
LayerCount: 2
Fore
SplineSet
-8 0 m 1
 -8 16 l 1
 48 26 57 31 73 90 c 2
 196 532 l 2
 203 557 207 580 207 594 c 0
 207 622 195 630 137 637 c 1
 137 653 l 1
 384 653 l 1
 384 637 l 1
 327 627 318 622 302 563 c 2
 179 120 l 2
 170 88 168 76 168 57 c 0
 168 29 179 23 236 16 c 1
 236 0 l 1
 -8 0 l 1
344 768 m 0
 344 741 323 720 296 720 c 0
 269 720 248 741 248 768 c 0
 248 795 269 816 296 816 c 0
 323 816 344 795 344 768 c 0
EndSplineSet
Validated: 1
EndChar

StartChar: dotlessi
Encoding: 305 305 239
Width: 277
Flags: HMW
HStem: -11 47<80 144.5>
VStem: 49 75<47.5 56 47.5 56>
LayerCount: 2
Fore
SplineSet
124 51 m 0
 124 44 132 36 140 36 c 0
 149 36 164 46 181 63 c 0
 191 74 198 82 222 114 c 1
 235 103 l 1
 178 19 141 -11 95 -11 c 0
 65 -11 49 9 49 46 c 0
 49 66 55 97 71 155 c 2
 119 332 l 2
 125 352 128 368 128 376 c 0
 128 396 118 399 65 400 c 1
 65 416 l 1
 104 419 124 422 225 441 c 1
 228 439 l 1
 140 117 l 2
 120 44 124 61 124 51 c 0
EndSplineSet
Validated: 33
EndChar

StartChar: IJ
Encoding: 306 306 240
Width: 706
Flags: MW
HStem: 0 21<-8 -8 -8 236> 633 20<137 384 384 384 500 754 754 754>
VStem: 257 94<68 77 68 86>
LayerCount: 2
Fore
SplineSet
754 653 m 1
 754 637 l 1
 697 629 690 623 672 563 c 2
 569 192 l 2
 548 116 528 71 501 39 c 0
 470 2 425 -18 374 -18 c 0
 304 -18 257 18 257 70 c 0
 257 102 276 124 303 124 c 0
 328 124 351 102 351 77 c 2
 351 68 l 2
 350 62 350 58 350 53 c 0
 350 26 361 13 385 13 c 0
 409 13 423 28 434 67 c 2
 565 532 l 2
 573 560 577 582 577 596 c 0
 577 623 563 631 500 637 c 1
 500 653 l 1
 754 653 l 1
-8 0 m 1
 -8 16 l 1
 48 26 57 31 73 90 c 2
 196 532 l 2
 203 557 207 580 207 594 c 0
 207 622 195 630 137 637 c 1
 137 653 l 1
 384 653 l 1
 384 637 l 1
 327 627 318 622 302 563 c 2
 179 120 l 2
 170 88 168 76 168 57 c 0
 168 29 179 23 236 16 c 1
 236 0 l 1
 -8 0 l 1
EndSplineSet
Validated: 1
Ligature2: "'locl' Localized Forms in Cyrillic lookup 35 subtable" I J
EndChar

StartChar: ij
Encoding: 307 307 241
Width: 553
Flags: HMW
HStem: -207 23<198.5 230.5 198.5 251.5> -11 53<150.5 165.5> 548 106<200 228.5 462 490.5>
VStem: 114 81<-149.5 -132.5> 135 1 167 97<585.5 612.5 585.5 614> 429 97<585.5 612.5 585.5 614>
LayerCount: 2
Fore
SplineSet
526 599 m 0xe2
 526 572 504 548 477 548 c 0
 447 548 429 571 429 600 c 0
 429 628 446 654 476 654 c 0
 505 654 526 626 526 599 c 0xe2
264 599 m 0xe6
 264 572 242 548 215 548 c 0
 185 548 167 571 167 600 c 0
 167 628 184 654 214 654 c 0
 243 654 264 626 264 599 c 0xe6
484 439 m 1
 380 28 l 2
 356 -66 311 -207 192 -207 c 0
 152 -207 114 -187 114 -143 c 0
 114 -122 135 -104 155 -104 c 0
 175 -104 195 -119 195 -140 c 0
 195 -159 182 -162 182 -173 c 0
 182 -184 195 -184 202 -184 c 0
 259 -184 287 -45 297 -3 c 2
 360 250 l 1
 313 173 217 -11 114 -11 c 0xf2
 74 -11 59 9 59 48 c 0
 59 128 135 302 135 371 c 0
 135 397.272727273 114.101239669 400.258264463 93.0667731029 400.258264463 c 0
 86.8801652893 400.258264463 80.6818181818 400 75 400 c 1
 75 414 l 1
 125 420 176 429 225 441 c 1
 228 439 l 1
 218 399 136 86 136 67 c 0xea
 136 53 143 42 158 42 c 0
 224 42 386 310 386 378 c 0
 386 397.463700624 358.457102559 400.981513257 335.617124827 400.981513257 c 0
 325.600073527 400.981513257 316.487621027 400.304867835 311 400 c 1
 311 416 l 1
 368 419 425 431 481 441 c 1
 484 439 l 1
EndSplineSet
Validated: 524289
Ligature2: "'locl' Localized Forms in Cyrillic lookup 35 subtable" i j
Ligature2: "'liga' Standard Ligatures in Latin lookup 30 subtable" i j
Ligature2: "'liga' Standard Ligatures in Latin lookup 30 subtable" I J
EndChar

StartChar: Jcircumflex
Encoding: 308 308 242
Width: 443
Flags: MW
HStem: -18 31<110 134 110 136.5> 633 20<237 491 491 491> 852 20<395 444 444 444>
VStem: -6 94<68 77 68 86>
LayerCount: 2
Fore
SplineSet
491 653 m 1
 491 637 l 1
 434 629 427 623 409 563 c 2
 306 192 l 2
 285 116 265 71 238 39 c 0
 207 2 162 -18 111 -18 c 0
 41 -18 -6 18 -6 70 c 0
 -6 102 13 124 40 124 c 0
 65 124 88 102 88 77 c 2
 88 68 l 2
 87 62 87 58 87 53 c 0
 87 26 98 13 122 13 c 0
 146 13 160 28 171 67 c 2
 302 532 l 2
 310 560 314 582 314 596 c 0
 314 623 300 631 237 637 c 1
 237 653 l 1
 491 653 l 1
444 872 m 1
 532 703 l 1
 496 703 l 1
 414 807 l 1
 277 703 l 1
 238 703 l 1
 395 872 l 1
 444 872 l 1
EndSplineSet
Validated: 1
EndChar

StartChar: jcircumflex
Encoding: 309 309 243
Width: 277
Flags: HMW
HStem: -207 23<-44 -18 -44 -1.5> 400 16<73 100 73 73> 641 20<216 265 265 265>
VStem: -124 68<-176.5 -134>
LayerCount: 2
Fore
SplineSet
-43 -141 m 0
 -43 -160 -56 -162 -56 -173 c 0
 -56 -180 -50 -184 -38 -184 c 0
 2 -184 25 -140 59 -3 c 2
 131 289 l 2
 142 332 147 359 147 369 c 0
 147 379 144 388 140 392 c 0
 134.929074472 396.225771274 122.7152918 400.451542547 108.18810487 400.451542547 c 0
 105.52649242 400.451542547 102.787223415 400.309691491 100 400 c 2
 73 400 l 1
 73 416 l 1
 104 417 154 425 243 441 c 1
 246 439 l 1
 142 28 l 2
 102 -131 42 -207 -45 -207 c 0
 -91 -207 -124 -181 -124 -146 c 0
 -124 -122 -107 -104 -84 -104 c 0
 -61 -104 -43 -120 -43 -141 c 0
265 661 m 1
 353 492 l 1
 317 492 l 1
 235 596 l 1
 98 492 l 1
 59 492 l 1
 216 661 l 1
 265 661 l 1
EndSplineSet
Validated: 524289
EndChar

StartChar: Kcedilla
Encoding: 310 310 244
Width: 659
Flags: MW
HStem: 0 21<-8 240 -8 -8 328 328 328 603> 634 19<510 512>
VStem: 228 95<-94 -84.5 -128.5 -70>
LayerCount: 2
Fore
SplineSet
210 -212 m 1
 202 -197 l 1
 242 -186 267 -167 267 -143 c 0
 267 -139 267 -130 258 -125 c 0
 240 -116 228 -106 228 -82 c 0
 228 -58 248 -40 274 -40 c 0
 304 -40 323 -67 323 -102 c 0
 323 -155 280 -190 210 -212 c 1
403 45 m 0
 403 64 389 99 365 140 c 2
 244 348 l 1
 176 99 l 2
 170 79 168 70 168 60 c 0
 168 29 177 23 240 16 c 1
 240 0 l 1
 -8 0 l 1
 -8 16 l 1
 51 25 56 30 74 90 c 2
 197 532 l 2
 204 557 208 580 208 594 c 0
 208 623 193 631 131 637 c 1
 131 653 l 1
 404 653 l 1
 404 637 l 1
 345 633 318 613 303 563 c 2
 250 369 l 1
 402 475 l 2
 491 537 546 591 546 615 c 0
 546 626 536 632 512 634 c 0
 508 634 497 636 485 637 c 1
 485 653 l 1
 707 653 l 1
 707 637 l 1
 683 633 660 622 632 601 c 2
 332 375 l 1
 506 72 l 2
 534 25 540 22 603 16 c 1
 603 0 l 1
 328 0 l 1
 328 16 l 1
 349 20 403 15 403 45 c 0
EndSplineSet
Validated: 1
Ligature2: "'ccmp' Glyph Composition/Decomposition in Latin lookup 8 subtable" K uni0327
Ligature2: "'ccmp' Glyph Composition/Decomposition in Latin lookup 8 subtable" K uni0326
EndChar

